<!-- Created with Inkscape (http://www.inkscape.org/) -->
<svg width="537" height="169.49" version="1.1" viewBox="0 0 537 169.49" xmlns="http://www.w3.org/2000/svg">

 <g transform="matrix(1.3333 0 0 -1.3333 -939.38 967.79)">
  <g transform="matrix(3.2416 0 0 3.2416 859.52 628.84)">
   <path d="m0 0c0 1.085 0.715 1.906 1.811 1.906 0.426 0 0.786-0.123 1.049-0.321 0.319-0.24 0.504-0.597 0.55-1.004h-0.91c-0.047 0.326-0.304 0.575-0.695 0.575-0.596 0-0.879-0.494-0.879-1.156 0-0.667 0.339-1.151 0.885-1.151 0.406 0 0.673 0.254 0.715 0.606h0.91c-0.026-0.362-0.19-0.693-0.443-0.933-0.282-0.269-0.658-0.412-1.178-0.412-1.08 0-1.815 0.8-1.815 1.89" fill="#001655"/>
  </g>
  <g transform="matrix(3.2416 0 0 3.2416 871.87 634.79)">
   <path d="m0 0h0.839v-1.355h0.015c0.19 0.249 0.417 0.397 0.782 0.397 0.576 0 0.915-0.407 0.915-0.988v-1.697h-0.838v1.529c0 0.275-0.139 0.463-0.411 0.463-0.278 0-0.463-0.229-0.463-0.55v-1.442h-0.839z" fill="#001655"/>
  </g>
  <g transform="matrix(3.2416 0 0 3.2416 882.31 625.89)">
   <path d="m0 0v1.712h0.833v-1.539c0-0.285 0.129-0.443 0.396-0.443 0.288 0 0.463 0.214 0.463 0.525v1.457h0.838v-2.609h-0.802v0.321h-0.015c-0.19-0.255-0.422-0.397-0.788-0.397-0.606 0-0.925 0.392-0.925 0.973" fill="#001655"/>
  </g>
  <g transform="matrix(3.2416 0 0 3.2416 892.81 631.44)">
   <path d="m0 0h0.807v-0.357h0.016c0.195 0.28 0.448 0.433 0.813 0.433 0.576 0 0.915-0.407 0.915-0.988v-1.697h-0.838v1.529c0 0.275-0.139 0.463-0.412 0.463-0.277 0-0.463-0.229-0.463-0.55v-1.442h-0.838z" fill="#001655"/>
  </g>
  <g transform="matrix(3.2416 0 0 3.2416 908.67 627.55)">
   <path d="m0 0c0 0.352-0.185 0.647-0.535 0.647-0.314 0-0.52-0.255-0.52-0.652 0-0.392 0.206-0.647 0.52-0.647 0.365 0 0.535 0.285 0.535 0.652m-1.816-1.472h0.813c0.046-0.138 0.185-0.255 0.463-0.255 0.355 0 0.504 0.183 0.504 0.499v0.26h-0.021c-0.154-0.173-0.355-0.301-0.674-0.301-0.591 0-1.141 0.438-1.141 1.239 0 0.764 0.452 1.304 1.105 1.304 0.35 0 0.587-0.138 0.741-0.357h0.01v0.28h0.803v-2.353c0-0.393-0.139-0.678-0.35-0.866-0.231-0.204-0.576-0.291-0.967-0.291-0.725 0-1.203 0.296-1.286 0.841" fill="#001655"/>
  </g>
  <g transform="matrix(3.2416 0 0 3.2416 913.18 631.44)">
   <path d="m0 0h0.807v-0.357h0.016c0.195 0.28 0.447 0.433 0.812 0.433 0.577 0 0.916-0.407 0.916-0.988v-1.697h-0.838v1.529c0 0.275-0.139 0.463-0.412 0.463-0.278 0-0.463-0.229-0.463-0.55v-1.442h-0.838z" fill="#001655"/>
  </g>
  <g transform="matrix(3.2416 0 0 3.2416 928.79 626)">
   <path d="m0 0v0.311c-0.108-0.056-0.262-0.097-0.432-0.138-0.324-0.071-0.458-0.153-0.458-0.351 0-0.209 0.154-0.291 0.36-0.291 0.314 0 0.53 0.189 0.53 0.469m-1.697-0.204c0 0.576 0.462 0.749 1.008 0.821 0.494 0.061 0.668 0.112 0.668 0.29 0 0.168-0.108 0.28-0.36 0.28-0.267 0-0.401-0.117-0.426-0.336h-0.772c0.02 0.484 0.396 0.897 1.193 0.897 0.396 0 0.664-0.072 0.854-0.214 0.226-0.163 0.335-0.418 0.335-0.744v-1.315c0-0.209 0.02-0.326 0.092-0.372v-0.035h-0.813c-0.041 0.056-0.067 0.158-0.087 0.29h-0.01c-0.155-0.219-0.386-0.357-0.782-0.357-0.525 0-0.9 0.281-0.9 0.795" fill="#001655"/>
  </g>
  <g transform="matrix(3.2416 0 0 3.2416 933.37 631.44)">
   <path d="m0 0h0.803v-0.372h0.015c0.164 0.27 0.417 0.448 0.797 0.448 0.345 0 0.607-0.178 0.741-0.458h0.01c0.206 0.316 0.489 0.458 0.828 0.458 0.597 0 0.895-0.402 0.895-0.988v-1.697h-0.838v1.549c0 0.28-0.119 0.443-0.371 0.443-0.268 0-0.416-0.219-0.416-0.529v-1.463h-0.839v1.549c0 0.28-0.118 0.443-0.37 0.443-0.262 0-0.416-0.219-0.416-0.529v-1.463h-0.839z" fill="#001655"/>
  </g>
  <g transform="matrix(3.2416 0 0 3.2416 952.61 634.79)">
   <path d="m0 0h0.915l1.091-1.829c0.056-0.102 0.252-0.463 0.252-0.463h0.01s-0.01 0.438-0.01 0.565v1.727h0.89v-3.643h-0.916l-1.08 1.804c-0.062 0.097-0.262 0.489-0.262 0.489h-0.01s0.01-0.469 0.01-0.596v-1.697h-0.89z" fill="#001655"/>
  </g>
  <g transform="matrix(3.2416 0 0 3.2416 970.04 626)">
   <path d="m0 0v0.311c-0.108-0.056-0.262-0.097-0.432-0.138-0.324-0.071-0.458-0.153-0.458-0.351 0-0.209 0.154-0.291 0.36-0.291 0.314 0 0.53 0.189 0.53 0.469m-1.697-0.204c0 0.576 0.463 0.749 1.008 0.821 0.493 0.061 0.669 0.112 0.669 0.29 0 0.168-0.109 0.28-0.361 0.28-0.267 0-0.401-0.117-0.426-0.336h-0.772c0.02 0.484 0.396 0.897 1.193 0.897 0.396 0 0.664-0.072 0.854-0.214 0.226-0.163 0.334-0.418 0.334-0.744v-1.315c0-0.209 0.021-0.326 0.093-0.372v-0.035h-0.812c-0.042 0.056-0.067 0.158-0.088 0.29h-0.011c-0.154-0.219-0.385-0.357-0.781-0.357-0.525 0-0.9 0.281-0.9 0.795" fill="#001655"/>
  </g>
  <g transform="matrix(3.2416 0 0 3.2416 974.96 625.21)">
   <path d="m0 0v1.401h-0.35v0.52h0.35v0.825h0.818v-0.825h0.479v-0.52h-0.479v-1.223c0-0.204 0.113-0.255 0.293-0.255 0.072 0 0.154 6e-3 0.186 6e-3v-0.607c-0.073-0.02-0.232-0.04-0.458-0.04-0.489 0-0.839 0.158-0.839 0.718" fill="#001655"/>
  </g>
  <path d="m980.48 631.44h2.7164v-8.4572h-2.7164zm0 3.3518h2.7164v-2.1816h-2.7164z" fill="#001655"/>
  <g transform="matrix(3.2416 0 0 3.2416 990.81 627.19)">
   <path d="m0 0c0 0.474-0.195 0.795-0.561 0.795-0.365 0-0.555-0.321-0.555-0.795s0.19-0.79 0.555-0.79c0.366 0 0.561 0.316 0.561 0.79m-1.965 0c0 0.784 0.566 1.381 1.41 1.381 0.848 0 1.404-0.597 1.404-1.381s-0.556-1.381-1.404-1.381c-0.844 0-1.41 0.597-1.41 1.381" fill="#001655"/>
  </g>
  <g transform="matrix(3.2416 0 0 3.2416 994.81 631.44)">
   <path d="m0 0h0.807v-0.357h0.016c0.195 0.28 0.447 0.433 0.812 0.433 0.577 0 0.916-0.407 0.916-0.988v-1.697h-0.838v1.529c0 0.275-0.139 0.463-0.412 0.463-0.278 0-0.463-0.229-0.463-0.55v-1.442h-0.838z" fill="#001655"/>
  </g>
  <g transform="matrix(3.2416 0 0 3.2416 1010.1 626)">
   <path d="m0 0v0.311c-0.108-0.056-0.262-0.097-0.432-0.138-0.324-0.071-0.458-0.153-0.458-0.351 0-0.209 0.154-0.291 0.36-0.291 0.314 0 0.53 0.189 0.53 0.469m-1.698-0.204c0 0.576 0.463 0.749 1.008 0.821 0.494 0.061 0.669 0.112 0.669 0.29 0 0.168-0.108 0.28-0.36 0.28-0.267 0-0.402-0.117-0.427-0.336h-0.771c0.02 0.484 0.396 0.897 1.193 0.897 0.396 0 0.663-0.072 0.854-0.214 0.226-0.163 0.334-0.418 0.334-0.744v-1.315c0-0.209 0.021-0.326 0.093-0.372v-0.035h-0.813c-0.041 0.056-0.067 0.158-0.087 0.29h-0.011c-0.154-0.219-0.385-0.357-0.781-0.357-0.525 0-0.901 0.281-0.901 0.795" fill="#001655"/>
  </g>
  <path d="m1014.7 634.79h2.7521v-11.809h-2.7521z" fill="#001655"/>
  <g transform="matrix(3.2416 0 0 3.2416 1023.4 627.14)">
   <path d="m0 0v2.359h0.91v-2.389c0-0.357 0.186-0.597 0.633-0.597 0.422 0 0.622 0.255 0.622 0.612v2.374h0.911v-2.359c0-0.841-0.509-1.35-1.533-1.35-1.029 0-1.543 0.499-1.543 1.35" fill="#001655"/>
  </g>
  <g transform="matrix(3.2416 0 0 3.2416 1035.4 631.44)">
   <path d="m0 0h0.807v-0.357h0.016c0.195 0.28 0.448 0.433 0.813 0.433 0.575 0 0.915-0.407 0.915-0.988v-1.697h-0.838v1.529c0 0.275-0.139 0.463-0.412 0.463-0.278 0-0.463-0.229-0.463-0.55v-1.442h-0.838z" fill="#001655"/>
  </g>
  <path d="m1045.6 631.44h2.7164v-8.4572h-2.7164zm0 3.3518h2.7164v-2.1816h-2.7164z" fill="#001655"/>
  <g transform="matrix(3.2416 0 0 3.2416 1049.6 631.44)">
   <path d="m0 0h0.864l0.36-1.177c0.077-0.26 0.144-0.525 0.144-0.525h0.01s0.067 0.265 0.145 0.525l0.365 1.177h0.838l-0.91-2.609h-0.906z" fill="#001655"/>
  </g>
  <g transform="matrix(3.2416 0 0 3.2416 1065 628.12)">
   <path d="m0 0c-0.031 0.311-0.226 0.509-0.499 0.509-0.319 0-0.484-0.198-0.54-0.509zm-1.867-0.275c0 0.779 0.55 1.376 1.352 1.376 0.376 0 0.674-0.123 0.9-0.326 0.314-0.286 0.469-0.739 0.464-1.269h-1.893c0.051-0.352 0.247-0.571 0.591-0.571 0.221 0 0.365 0.097 0.437 0.26h0.818c-0.056-0.234-0.211-0.458-0.442-0.616-0.221-0.153-0.489-0.24-0.823-0.24-0.869 0-1.404 0.596-1.404 1.386" fill="#001655"/>
  </g>
  <g transform="matrix(3.2416 0 0 3.2416 1069 631.44)">
   <path d="m0 0h0.803v-0.407h0.015c0.185 0.31 0.401 0.448 0.72 0.448 0.077 0 0.129-5e-3 0.165-0.021v-0.713h-0.021c-0.514 0.071-0.843-0.178-0.843-0.744v-1.172h-0.839z" fill="#001655"/>
  </g>
  <g transform="matrix(3.2416 0 0 3.2416 1075.2 625.72)">
   <path d="m0 0h0.792c0.031-0.26 0.206-0.387 0.484-0.387 0.251 0 0.411 0.091 0.411 0.259 0 0.235-0.319 0.26-0.669 0.322-0.458 0.076-0.946 0.198-0.946 0.81 0 0.55 0.514 0.835 1.137 0.835 0.746 0 1.147-0.321 1.188-0.835h-0.772c-0.031 0.234-0.19 0.305-0.422 0.305-0.205 0-0.364-0.076-0.364-0.239 0-0.184 0.298-0.209 0.632-0.27 0.463-0.077 1.008-0.194 1.008-0.861 0-0.571-0.509-0.866-1.199-0.866-0.771 0-1.254 0.351-1.28 0.927" fill="#001655"/>
  </g>
  <path d="m1084.8 631.44h2.7196v-8.4572h-2.7196zm0 3.3518h2.7196v-2.1816h-2.7196z" fill="#001655"/>
  <g transform="matrix(3.2416 0 0 3.2416 1090.2 625.21)">
   <path d="m0 0v1.401h-0.35v0.52h0.35v0.825h0.818v-0.825h0.478v-0.52h-0.478v-1.223c0-0.204 0.113-0.255 0.293-0.255 0.072 0 0.154 6e-3 0.185 6e-3v-0.607c-0.072-0.02-0.231-0.04-0.458-0.04-0.488 0-0.838 0.158-0.838 0.718" fill="#001655"/>
  </g>
  <g transform="matrix(3.2416 0 0 3.2416 1096.3 622.29)">
   <path d="m0 0h0.288c0.247 0 0.345 0.097 0.345 0.275 0 0.112-0.052 0.265-0.16 0.54l-0.777 2.008h0.885l0.355-1.111c0.082-0.255 0.165-0.601 0.165-0.601h0.01s0.072 0.346 0.154 0.601l0.345 1.111h0.838l-0.911-2.645c-0.21-0.611-0.462-0.825-0.992-0.825h-0.545z" fill="#001655"/>
  </g>
  <g transform="matrix(3.2416 0 0 3.2416 858.3 678.84)">
   <path d="m0 0v-2.11h5.723v-2.104h2.399v2.104h5.724v2.11z" fill="#001655"/>
  </g>
  <g transform="matrix(3.2416 0 0 3.2416 901.31 691.95)">
   <path d="m0 0v2.11h-5.147v1.767h-2.398v-1.767h-5.146v-2.11z" fill="#001655"/>
  </g>
  <g transform="matrix(3.2416 0 0 3.2416 1041.3 691.76)">
   <path d="m0 0v2.167h-3.613v1.768h-2.398v-1.768h-3.612v-2.167z" fill="#001655"/>
  </g>
  <g fill="#001655">
   <path d="m1068.9 656.77h7.7765v22.244h-7.7765z"/>
   <path d="m1082.6 656.77h7.7765v22.244h-7.7765z"/>
   <path d="m1061.3 651.58h45.982v7.0244h-45.982z"/>
  </g>
  <g transform="matrix(3.2416 0 0 3.2416 916.82 679.67)">
   <path d="m0 0v5.896h-2.399v-5.899c0-1.195 0.97-2.164 2.165-2.164h6.235v2.167z" fill="#001655"/>
  </g>
  <g transform="matrix(3.2416 0 0 3.2416 958.48 672.71)">
   <path d="m0 0c0-1.195 0.969-2.165 2.165-2.165h4.358v2.168h-4.124v5.872h4.124v2.168h-6.523z" fill="#001655"/>
  </g>
  <g transform="matrix(3.2416 0 0 3.2416 954.77 690.07)">
   <path d="m0 0h-2.142v2.688h-2.399v-8.064h2.399v3.209h2.142z" fill="#001655"/>
  </g>
  <g transform="matrix(3.2416 0 0 3.2416 1059 690.07)">
   <path d="m0 0h-2.142v2.688h-2.399v-8.064h2.399v3.209h2.142z" fill="#001655"/>
  </g>
  <g transform="matrix(3.2416 0 0 3.2416 999.25 681.36)">
   <path d="m0 0h-2.431v5.375h-2.398v-16.125h2.398v8.583h2.431z" fill="#001655"/>
  </g>
  <path d="m1003.4 698.78h-7.7765v-52.267h7.7765z" fill="#001655"/>
  <path d="m940.05 653.54h-19.164v7.8122h19.164zm-26.941 14.84v-14.85c0-3.8737 3.1411-7.0147 7.018-7.0147h27.699v21.864z" fill="#001655"/>
  <g transform="matrix(3.2416 0 0 3.2416 1052.1 661.3)">
   <path d="m0 0c0 1.195-0.969 2.165-2.165 2.165h-8.544v-2.168h8.31v-4.559h2.399z" fill="#001655"/>
  </g>
  <g transform="matrix(3.2416 0 0 3.2416 1104.9 690.83)">
   <path d="m0 0c0 1.195-0.969 2.165-2.165 2.165h-10.712v-2.168h10.478v-7.292h2.399z" fill="#001655"/>
  </g>
  <g transform="matrix(3.2416 0 0 3.2416 880.41 662.01)">
   <path d="m0 0c-1.299 0-2.212-0.754-2.212-1.617s0.913-1.616 2.212-1.616 2.212 0.753 2.212 1.616-0.913 1.617-2.212 1.617m4.708-1.617c0-2.007-1.944-3.761-4.708-3.761-2.765 0-4.709 1.754-4.709 3.761 0 2.008 1.944 3.761 4.709 3.761 2.764 0 4.708-1.753 4.708-3.761" fill="#001655"/>
  </g>
  <g transform="matrix(3.2416 0 0 3.2416 1025.8 688.72)">
   <path d="m0 0c-0.933 0-1.69-0.707-1.69-1.58 0-0.872 0.757-1.579 1.69-1.579s1.69 0.707 1.69 1.579c0 0.873-0.757 1.58-1.69 1.58m4.091-1.58c0-2.077-1.832-3.761-4.091-3.761s-4.09 1.684-4.09 3.761c0 2.078 1.831 3.762 4.09 3.762s4.091-1.684 4.091-3.762" fill="#001655"/>
  </g>
  <g transform="matrix(3.2416 0 0 3.2416 885.33 695.69)">
   <path d="m0 0h-2.835c-0.364-1.316-1.565-2.546-4.928-2.546v-2.089c3.449 0 5.365 1.091 6.345 2.456 0.981-1.365 2.898-2.456 6.347-2.456v2.089c-3.363 0-4.565 1.23-4.929 2.546" fill="#001655"/>
  </g>
  <g transform="matrix(3.2416 0 0 3.2416 858.3 432.98)">
   <path d="m0 0v-2.11h5.723v-2.104h2.399v2.104h5.724v2.11z" fill="#001655"/>
  </g>
  <g transform="matrix(3.2416 0 0 3.2416 901.31 446.08)">
   <path d="m0 0v2.109h-5.147v1.768h-2.398v-1.768h-5.146v-2.109z" fill="#001655"/>
  </g>
  <g transform="matrix(3.2416 0 0 3.2416 1041.3 445.89)">
   <path d="m0 0v2.167h-3.613v1.768h-2.398v-1.768h-3.612v-2.167z" fill="#001655"/>
  </g>
  <g transform="matrix(3.2416 0 0 3.2416 916.82 433.8)">
   <path d="m0 0v5.896h-2.399v-5.899c0-1.195 0.97-2.164 2.165-2.164h6.235v2.167z" fill="#001655"/>
  </g>
  <g transform="matrix(3.2416 0 0 3.2416 958.48 426.85)">
   <path d="m0 0c0-1.195 0.969-2.165 2.165-2.165h4.358v2.168h-4.124v5.872h4.124v2.168h-6.523z" fill="#001655"/>
  </g>
  <g transform="matrix(3.2416 0 0 3.2416 954.77 444.21)">
   <path d="m0 0h-2.142v2.688h-2.399v-8.064h2.399v3.209h2.142z" fill="#001655"/>
  </g>
  <g transform="matrix(3.2416 0 0 3.2416 1059 444.21)">
   <path d="m0 0h-2.142v2.688h-2.399v-8.064h2.399v3.209h2.142z" fill="#001655"/>
  </g>
  <g transform="matrix(3.2416 0 0 3.2416 999.25 435.49)">
   <path d="m0 0h-2.431v5.375h-2.398v-16.125h2.398v8.583h2.431z" fill="#001655"/>
  </g>
  <g transform="matrix(3.2416 0 0 3.2416 1052.1 415.44)">
   <path d="m0 0c0 1.195-0.969 2.165-2.165 2.165h-8.544v-2.168h8.31v-4.559h2.399z" fill="#001655"/>
  </g>
  <g transform="matrix(3.2416 0 0 3.2416 1104.9 444.96)">
   <path d="m0 0c0 1.195-0.969 2.165-2.165 2.165h-10.712v-2.168h10.478v-7.292h2.399z" fill="#001655"/>
  </g>
  <g transform="matrix(3.2416 0 0 3.2416 880.41 416.14)">
   <path d="m0 0c-1.299 0-2.212-0.754-2.212-1.617s0.913-1.617 2.212-1.617 2.212 0.754 2.212 1.617-0.913 1.617-2.212 1.617m4.708-1.617c0-2.008-1.944-3.761-4.708-3.761-2.765 0-4.709 1.753-4.709 3.761s1.944 3.761 4.709 3.761c2.764 0 4.708-1.753 4.708-3.761" fill="#001655"/>
  </g>
  <g transform="matrix(3.2416 0 0 3.2416 1025.8 442.85)">
   <path d="m0 0c-0.933 0-1.69-0.707-1.69-1.58 0-0.872 0.757-1.579 1.69-1.579s1.69 0.707 1.69 1.579c0 0.873-0.757 1.58-1.69 1.58m4.091-1.58c0-2.077-1.832-3.761-4.091-3.761s-4.09 1.684-4.09 3.761c0 2.078 1.831 3.762 4.09 3.762s4.091-1.684 4.091-3.762" fill="#001655"/>
  </g>
  <g transform="matrix(3.2416 0 0 3.2416 885.33 449.82)">
   <path d="m0 0h-2.835c-0.364-1.316-1.565-2.546-4.928-2.546v-2.089c3.449 0 5.365 1.091 6.345 2.456 0.981-1.365 2.898-2.456 6.347-2.456v2.089c-3.363 0-4.565 1.23-4.929 2.546" fill="#001655"/>
  </g>
  <g transform="matrix(3.2416 0 0 3.2416 766.04 637.05)">
   <path d="m0 0-1.558 0.275 1.114-1.036c0.018 7e-3 0.038 0.013 0.058 0.014 0.05 1e-3 0.095-0.016 0.13-0.048 0.074-0.069 0.078-0.184 0.01-0.257-0.033-0.036-0.078-0.057-0.126-0.058-6e-3 -1e-3 -0.013-1e-3 -0.019 0-0.041 2e-3 -0.081 0.019-0.112 0.048-0.035 0.033-0.056 0.078-0.057 0.127-2e-3 0.02 3e-3 0.04 9e-3 0.059l-1.114 1.035 0.389-1.536 2.542-1.815c0.092-0.066 0.213-0.072 0.311-0.015 0.074 0.043 0.165 0.11 0.263 0.216s0.159 0.201 0.196 0.278c0.049 0.102 0.034 0.222-0.038 0.309z" fill="#003f98"/>
  </g>
  <g transform="matrix(3.2416 0 0 3.2416 763.68 629.26)">
   <path d="m0 0c-0.072-0.085-0.088-0.206-0.038-0.307 0.038-0.077 0.098-0.173 0.197-0.28 0.096-0.104 0.186-0.173 0.26-0.216 0.022-0.011 0.05-0.022 0.075-0.028 0.082-0.022 0.167-5e-3 0.238 0.044l0.477 0.34-0.992 0.707z" fill="#003f98"/>
  </g>
  <g transform="matrix(3.2416 0 0 3.2416 771.4 634.63)">
   <path d="m0 0c0.022-3e-3 0.041-8e-3 0.06-0.014l1.113 1.034-1.557-0.274-0.521-0.628 1.061-1.275 0.735 0.526 0.389 1.536-1.113-1.034c5e-3 -0.019 8e-3 -0.041 8e-3 -0.06-3e-3 -0.05-0.021-0.093-0.057-0.126-0.031-0.03-0.071-0.047-0.113-0.05h-0.019c-0.047 3e-3 -0.093 0.022-0.126 0.058-0.069 0.074-0.063 0.189 0.011 0.258 0.035 0.033 0.079 0.049 0.129 0.049" fill="#003f98"/>
  </g>
  <g transform="matrix(3.2416 0 0 3.2416 762.29 607.86)">
   <path d="m0 0c0-0.252 0.204-0.457 0.456-0.457h0.92v0.458h-0.87v1.238h0.87v0.457h-1.376z" fill="#003f98"/>
  </g>
  <g transform="matrix(3.2416 0 0 3.2416 770.12 609.68)">
   <path d="m0 0h-0.275v1.134h-0.506v-3.402h0.506v1.811h0.275v-1.811h0.506v3.402h-0.506z" fill="#003f98"/>
  </g>
  <g transform="matrix(3.2416 0 0 3.2416 749.5 616.79)">
   <path d="m0 0-0.359-1.191c-0.072-0.242 0.065-0.497 0.306-0.569l1.259-0.379 0.132 0.437-1.212 0.365 0.358 1.191z" fill="#003f98"/>
  </g>
  <g transform="matrix(3.2416 0 0 3.2416 757.34 614.43)">
   <path d="m0 0-0.484 0.146-0.491-1.629 0.485-0.146 0.195 0.648 0.432-0.13 0.132 0.438-0.433 0.13z" fill="#003f98"/>
  </g>
  <g transform="matrix(3.2416 0 0 3.2416 749.62 608.51)">
   <path d="m0 0 1.194-0.36-0.147-0.486-1.194 0.359zm-0.631-0.342c-0.073-0.241 0.064-0.496 0.306-0.568l1.725-0.52 0.41 1.362-2.163 0.651z" fill="#003f98"/>
  </g>
  <g transform="matrix(3.2416 0 0 3.2416 798.5 613.59)">
   <path d="m0 0-0.682 1.139-0.434-0.26 0.682-1.139-0.334-0.2-0.682 1.138-0.435-0.26 0.683-1.138-0.423-0.254 0.236-0.392 2.566 1.538-0.235 0.393z" fill="#003f98"/>
  </g>
  <g transform="matrix(3.2416 0 0 3.2416 798.79 615.88)">
   <path d="m0 0 0.434 0.26-0.791 1.32c-0.13 0.216-0.41 0.287-0.627 0.157l-1.937-1.161 0.234-0.393 1.897 1.136z" fill="#003f98"/>
  </g>
  <g transform="matrix(3.2416 0 0 3.2416 786.54 614.67)">
   <path d="m0 0-0.437-0.116-0.146 0.548-0.489-0.131 0.438-1.643 0.49 0.13-0.175 0.654 0.437 0.116z" fill="#003f98"/>
  </g>
  <g transform="matrix(3.2416 0 0 3.2416 784.88 609.48)">
   <path d="m 0,0 -1.742,-0.464 0.118,-0.442 1.694,0.452 0.247,-0.93 0.489,0.13 -0.247,0.93 C 0.494,-0.08 0.243,0.065 0,0" fill="#003f98"/>
  </g>
  <g transform="matrix(3.2416 0 0 3.2416 779 611.24)">
   <path d="m0 0c-0.048 0.178 0.068 0.363 0.259 0.414 0.19 0.05 0.383-0.053 0.43-0.23 0.047-0.178-0.069-0.363-0.259-0.414s-0.383 0.052-0.43 0.23m0.549-0.675c0.46 0.123 0.742 0.566 0.629 0.989-0.052 0.198-0.182 0.355-0.352 0.456l0.362 0.096-0.117 0.442-0.737-0.196-0.096 0.36-0.489-0.13 0.096-0.36-0.736-0.196 0.118-0.442 0.362 0.096c-0.097-0.171-0.131-0.373-0.078-0.57 0.113-0.424 0.577-0.668 1.038-0.545" fill="#003f98"/>
  </g>
  <g transform="matrix(3.2416 0 0 3.2416 738.02 612.93)">
   <path d="m0 0c-0.098-0.153-0.347-0.182-0.577-0.034-0.23 0.149-0.306 0.387-0.207 0.54s0.346 0.182 0.577 0.034c0.23-0.149 0.306-0.387 0.207-0.54m-1.064 1.866 1.014-0.654-0.119-0.184c-0.429 0.177-0.86 0.07-1.058-0.237-0.229-0.356-0.085-0.889 0.405-1.205s1.035-0.227 1.265 0.129c0.191 0.297 0.122 0.716-0.191 1.031l0.123 0.192 1.015-0.654 0.242 0.374-2.455 1.582z" fill="#003f98"/>
  </g>
  <g transform="matrix(3.2416 0 0 3.2416 742.95 621.73)">
   <path d="m0 0-0.425 0.274-0.202-0.313-0.913 0.588-0.241-0.374 0.766-0.493c-0.215-0.063-0.512-0.02-0.925 0.246l-0.238-0.37c0.611-0.394 1.076-0.42 1.405-0.29 0.018-0.354 0.233-0.766 0.845-1.16l0.238 0.37c-0.413 0.266-0.574 0.518-0.606 0.739l0.765-0.493 0.241 0.374-0.912 0.589z" fill="#003f98"/>
  </g>
  <g transform="matrix(3.2416 0 0 3.2416 754.74 669.41)">
   <path d="m0 0c-8e-3 -0.043-0.012-0.088-0.012-0.133v-3.628c0-0.381 0.303-0.689 0.678-0.689 0.373 0 0.678 0.308 0.678 0.689v3.249l-2e-3 4e-3c0 0.262 0.207 0.476 0.463 0.476s0.463-0.214 0.463-0.476l1e-3 -4e-3v-3.249c0-0.381 0.303-0.689 0.679-0.689 0.375 0 0.679 0.308 0.679 0.689v3.249l2e-3 -6e-3c0 0.273 0.215 0.495 0.482 0.495 0.266 0 0.481-0.222 0.481-0.495l-1e-3 6e-3v-3.249c0-0.381 0.304-0.689 0.679-0.689 0.374 0 0.678 0.308 0.678 0.689v3.249l-2e-3 -2e-3c0 0.268 0.212 0.487 0.474 0.487 0.26 0 0.472-0.219 0.472-0.487l1e-3 2e-3v-3.249c0-0.381 0.304-0.689 0.679-0.689 0.376 0 0.678 0.308 0.678 0.689v3.628h4e-3c0 0.783-0.62 1.418-1.383 1.418h-2.068v0.628c0 0.381-0.304 0.689-0.679 0.689s-0.677-0.308-0.677-0.689v-0.628h-2.069c-0.72 0-1.313-0.564-1.378-1.285" fill="#003f98"/>
  </g>
  <g transform="matrix(3.2416 0 0 3.2416 756.49 693.51)">
   <path d="m 0,0 c 0.426,0.259 0.979,0.154 0.979,0.154 0,0 -0.783,-0.056 -0.929,-0.264 -0.099,-0.142 0.174,-0.303 0.81,-0.151 0.683,0.163 1.157,0.728 1.157,0.728 C 1.428,0.331 0.769,0.55 0.253,0.309 -0.103,0.143 0,0 0,0" fill="#003f98"/>
  </g>
  <g transform="matrix(3.2416 0 0 3.2416 757.62 633.17)">
   <path d="m0 0c-0.791-0.678-1.935-0.363-1.935-0.363s1.37 0.085 1.771 0.502c0.426-0.155 0.866-0.283 1.318-0.38l-6e-3 0.019-0.104 0.411c-0.864 0.201-1.681 0.519-2.439 0.934-0.53 0.873-0.21 1.806-0.21 1.806s0.025-1.459 0.47-1.726c0.304-0.182 0.598 0.296 0.374 1.406-0.245 1.212-1.128 2.133-1.128 2.133 0.036-0.793-0.611-2.235-0.145-3.16 0.021-0.043 0.043-0.082 0.064-0.119-0.645 0.415-1.239 0.904-1.767 1.457-0.209 0.917 0.361 1.655 0.361 1.655s-0.421-1.295-0.105-1.653c0.215-0.244 0.624 0.099 0.762 1.14 0.151 1.137-0.358 2.193-0.358 2.193-0.209-0.711-1.226-1.808-1.092-2.752 6e-3 -0.045 0.013-0.086 0.021-0.123-0.473 0.561-0.883 1.176-1.219 1.836 7e-3 0 0.012 2e-3 0.012 2e-3 -0.043 0.84 0.549 1.422 0.549 1.422s-0.546-1.093-0.333-1.45c0.146-0.243 0.625-0.091 0.895 0.813 0.295 0.987-0.061 2.084-0.061 2.084-0.281-0.601-1.301-1.442-1.328-2.295v-3e-3c-0.266 0.622-0.469 1.277-0.599 1.957h3e-3c0.072 0.854 0.749 1.36 0.749 1.36s-0.701-1.027-0.535-1.416c0.114-0.266 0.547-0.067 0.943 0.808 0.433 0.956 0.295 2.001 0.295 2.001-0.33-0.513-1.291-1.14-1.582-1.887-0.032 0.318-0.05 0.64-0.05 0.966 0 0.452 0.033 0.896 0.093 1.332 0.183 0.811 0.898 1.21 0.898 1.21s-0.81-0.902-0.7-1.3c0.075-0.271 0.519-0.135 1.016 0.659 0.542 0.867 0.544 1.895 0.544 1.895-0.315-0.37-1.046-0.759-1.51-1.261 0.189 0.696 0.45 1.361 0.781 1.985 0.446 0.575 1.16 0.629 1.16 0.629s-0.98-0.42-1.039-0.778c-0.04-0.244 0.364-0.3 1.054 0.15 0.753 0.491 1.136 1.31 1.136 1.31-0.432-0.198-1.278-0.229-1.846-0.535 0.358 0.544 0.769 1.048 1.227 1.507 0.569 0.387 1.227 0.238 1.227 0.238s-1.02-0.109-1.176-0.421c-0.106-0.213 0.25-0.379 1.012-0.16 0.832 0.238 1.414 0.883 1.414 0.883-0.452-0.06-1.24 0.156-1.849 0.036 0.444 0.371 0.92 0.703 1.427 0.989 0.497 0.166 0.951-0.072 0.951-0.072s-0.782 0.125-0.961-0.076c-0.122-0.137 0.109-0.333 0.721-0.324 0.667 9e-3 1.232 0.371 1.232 0.371-0.354 0.047-0.909 0.373-1.392 0.398 0.185 0.096 0.423 0.224 0.423 0.254 0 0.05-0.43-0.137-0.578-0.202 0.102 0.067 0.216 0.161 0.342 0.292 0.492 0.513 0.639 1.212 0.639 1.212-0.362-0.281-1.246-0.481-1.538-0.992-0.202-0.354 4e-3 -0.449 4e-3 -0.449 0.173 0.542 0.796 0.723 0.796 0.723s-0.695-0.489-0.686-0.799c3e-3 -0.09 0.076-0.129 0.196-0.102-0.081-0.034-0.13-0.068-0.159-0.102-0.434-0.24-0.85-0.511-1.241-0.812 0.097 0.104 0.202 0.249 0.307 0.451 0.356 0.684 0.297 1.457 0.297 1.457-0.291-0.403-1.15-0.879-1.3-1.5-0.104-0.431 0.14-0.467 0.14-0.467 0.017 0.617 0.61 0.995 0.61 0.995s-0.575-0.721-0.472-1.041c0.028-0.086 0.107-0.107 0.21-0.059-0.106-0.087-0.212-0.177-0.316-0.268-9e-3 -5e-3 -0.018-9e-3 -0.027-0.014-0.202-0.121-0.278-0.22-0.304-0.296-0.279-0.27-0.543-0.554-0.788-0.855 0.109 0.164 0.214 0.422 0.286 0.792 0.187 0.958-0.162 1.876-0.162 1.876-0.21-0.595-1.082-1.481-1.041-2.289 0.03-0.56 0.339-0.517 0.339-0.517-0.203 0.756 0.382 1.428 0.382 1.428s-0.439-1.082-0.198-1.433c0.07-0.103 0.185-0.093 0.305 0.03-0.26-0.329-0.501-0.674-0.719-1.036-0.051-0.068-0.085-0.128-0.103-0.177-0.126-0.22-0.245-0.444-0.355-0.674 0.05 0.216 0.063 0.526 2e-3 0.941-0.162 1.088-0.86 1.929-0.86 1.929 3e-3 -0.71-0.568-1.983-0.227-2.824 0.236-0.583 0.538-0.42 0.538-0.42-0.487 0.725-0.131 1.661-0.131 1.661s-0.054-1.316 0.323-1.597c0.076-0.057 0.154-0.045 0.223 0.023-0.266-0.608-0.474-1.246-0.614-1.911-0.028-0.102-0.042-0.186-0.045-0.255-0.026-0.139-0.053-0.278-0.073-0.419-9e-3 0.231-0.084 0.547-0.265 0.945-0.475 1.045-1.434 1.686-1.434 1.686 0.204-0.712-0.027-2.155 0.564-2.901 0.409-0.516 0.675-0.264 0.675-0.264-0.708 0.586-0.606 1.628-0.606 1.628s0.317-1.336 0.787-1.508c0.112-0.042 0.204 8e-3 0.25 0.136-0.04-0.371-0.067-0.747-0.065-1.13 2e-3 -0.361 0.025-0.716 0.063-1.067-0.085 0.157-0.201 0.332-0.356 0.524-0.721 0.894-1.81 1.275-1.81 1.275 0.376-0.639 0.513-2.094 1.272-2.668 0.525-0.398 0.72-0.087 0.72-0.087-0.833 0.39-0.994 1.425-0.994 1.425s0.64-1.215 1.138-1.264c0.059-6e-3 0.107 8e-3 0.143 0.04 0.1-0.524 0.239-1.034 0.418-1.525-0.136 0.124-0.311 0.255-0.529 0.389-0.995 0.609-2.168 0.602-2.168 0.602 0.578-0.483 1.206-1.829 2.128-2.12 0.638-0.201 0.719 0.162 0.719 0.162-0.931 0.09-1.438 1.025-1.438 1.025s1.028-0.944 1.521-0.821c0.026 6e-3 0.048 0.018 0.068 0.03 0.218-0.475 0.472-0.928 0.759-1.359-0.201 0.105-0.474 0.203-0.825 0.278-1.206 0.262-2.375-0.155-2.375-0.155 0.745-0.281 1.843-1.406 2.865-1.375 0.709 0.021 0.662 0.413 0.662 0.413-0.961-0.235-1.794 0.522-1.794 0.522s1.356-0.584 1.806-0.289c0.024 0.015 0.043 0.033 0.057 0.053 0.319-0.414 0.67-0.803 1.049-1.162-0.139 0.015-0.293 0.024-0.463 0.024-1.276 0-2.365-0.678-2.365-0.678 0.814-0.12 2.17-1.016 3.196-0.76 0.71 0.177 0.577 0.562 0.577 0.562-0.918-0.448-1.926 0.134-1.926 0.134s1.301-0.254 1.793 0.032c0.48-0.364 0.994-0.687 1.537-0.96-0.124-0.021-0.259-0.049-0.404-0.087-1.259-0.329-2.158-1.277-2.158-1.277 0.834 0.091 2.401-0.444 3.347 0.072 0.655 0.357 0.425 0.703 0.425 0.703" fill="#003f98"/>
  </g>
  <g transform="matrix(3.2416 0 0 3.2416 776.92 692.66)">
   <path d="m0 0c0.637-0.152 0.91 9e-3 0.81 0.151-0.146 0.208-0.929 0.264-0.929 0.264s0.554 0.105 0.98-0.154c0 0 0.103 0.143-0.253 0.309-0.517 0.241-1.175 0.022-1.765 0.158 0 0 0.475-0.565 1.157-0.728" fill="#003f98"/>
  </g>
  <g transform="matrix(3.2416 0 0 3.2416 798.23 652.76)">
   <path d="m0 0c0.178 0.49 0.318 0.999 0.417 1.522 0.036-0.031 0.084-0.045 0.142-0.039 0.498 0.049 1.138 1.264 1.138 1.264s-0.16-1.035-0.993-1.425c0 0 0.194-0.311 0.72 0.087 0.758 0.574 0.895 2.03 1.271 2.668 0 0-1.09-0.381-1.81-1.274-0.154-0.191-0.27-0.366-0.355-0.522 0.039 0.349 0.062 0.704 0.063 1.064 2e-3 0.38-0.024 0.754-0.064 1.123 0.047-0.124 0.138-0.17 0.249-0.129 0.469 0.172 0.786 1.509 0.786 1.509s0.103-1.043-0.606-1.629c0 0 0.266-0.252 0.675 0.265 0.591 0.745 0.36 2.188 0.564 2.9 0 0-0.959-0.64-1.434-1.686-0.178-0.393-0.254-0.706-0.265-0.936-0.02 0.142-0.048 0.281-0.074 0.421-4e-3 0.063-0.017 0.14-0.041 0.23-0.139 0.669-0.348 1.312-0.615 1.924 0.068-0.066 0.145-0.079 0.221-0.022 0.378 0.281 0.324 1.597 0.324 1.597s0.355-0.935-0.132-1.661c0 0 0.303-0.163 0.538 0.42 0.341 0.841-0.23 2.114-0.227 2.824 0 0-0.698-0.841-0.859-1.929-0.061-0.412-0.049-0.721 0-0.937-0.11 0.23-0.228 0.454-0.354 0.673-0.019 0.048-0.051 0.105-0.1 0.171-0.217 0.361-0.458 0.707-0.719 1.036 0.119-0.119 0.233-0.129 0.302-0.027 0.241 0.351-0.198 1.433-0.198 1.433s0.585-0.672 0.383-1.427c0 0 0.309-0.044 0.338 0.516 0.041 0.808-0.831 1.695-1.04 2.289 0 0-0.349-0.917-0.163-1.876 0.071-0.362 0.173-0.617 0.28-0.782-0.244 0.298-0.506 0.579-0.782 0.846-0.026 0.076-0.103 0.175-0.304 0.295-8e-3 5e-3 -0.017 8e-3 -0.025 0.013-0.103 0.092-0.209 0.181-0.316 0.268 0.102-0.047 0.181-0.025 0.208 0.06 0.104 0.32-0.472 1.041-0.472 1.041s0.594-0.377 0.61-0.995c0 0 0.244 0.037 0.141 0.467-0.15 0.621-1.009 1.097-1.301 1.5 0 0-0.059-0.773 0.297-1.457 0.105-0.2 0.209-0.345 0.306-0.449-0.392 0.301-0.807 0.571-1.241 0.811-0.028 0.033-0.078 0.068-0.157 0.101 0.119-0.026 0.192 0.013 0.195 0.103 9e-3 0.309-0.686 0.799-0.686 0.799s0.623-0.181 0.796-0.723c0 0 0.206 0.094 4e-3 0.448-0.292 0.512-1.175 0.712-1.538 0.993 0 0 0.148-0.699 0.639-1.213 0.125-0.13 0.239-0.223 0.34-0.291-0.152 0.067-0.578 0.251-0.578 0.201 0-0.03 0.24-0.158 0.426-0.253-0.484-0.025-1.038-0.351-1.393-0.399 0 0 0.565-0.362 1.232-0.371 0.612-8e-3 0.844 0.187 0.721 0.324-0.179 0.202-0.961 0.076-0.961 0.076s0.455 0.239 0.953 0.072c0.507-0.286 0.983-0.618 1.426-0.989-0.609 0.12-1.398-0.096-1.85-0.035 0 0 0.583-0.645 1.414-0.884 0.762-0.219 1.118-0.053 1.012 0.16-0.156 0.313-1.176 0.421-1.176 0.421s0.659 0.149 1.228-0.238c0.457-0.459 0.868-0.963 1.225-1.507-0.568 0.306-1.413 0.337-1.845 0.535 0 0 0.383-0.819 1.136-1.31 0.69-0.45 1.094-0.394 1.054-0.15-0.059 0.358-1.039 0.778-1.039 0.778s0.712-0.054 1.158-0.627c0.331-0.623 0.593-1.289 0.781-1.984-0.464 0.501-1.194 0.889-1.508 1.258 0 0 3e-3 -1.028 0.544-1.895 0.497-0.794 0.941-0.93 1.016-0.658 0.111 0.397-0.7 1.299-0.7 1.299s0.708-0.396 0.895-1.199c0.061-0.439 0.094-0.887 0.094-1.343 0-0.325-0.018-0.645-0.049-0.962-0.293 0.745-1.251 1.371-1.581 1.884 0 0-0.138-1.046 0.295-2.001 0.396-0.876 0.83-1.075 0.943-0.809 0.166 0.389-0.534 1.417-0.534 1.417s0.676-0.506 0.748-1.36l2e-3 -1e-3c-0.131-0.679-0.333-1.333-0.598-1.954v1e-3c-0.027 0.853-1.046 1.693-1.328 2.295 0 0-0.355-1.098-0.061-2.085 0.271-0.904 0.749-1.056 0.895-0.812 0.214 0.356-0.333 1.449-0.333 1.449s0.592-0.582 0.549-1.422c0 0 4e-3 -1e-3 0.011-2e-3 -0.336-0.659-0.746-1.274-1.218-1.836 8e-3 0.038 0.015 0.079 0.021 0.123 0.135 0.945-0.883 2.042-1.092 2.752 0 0-0.508-1.055-0.358-2.193 0.138-1.041 0.547-1.383 0.762-1.139 0.317 0.357-0.105 1.653-0.105 1.653s0.571-0.738 0.362-1.656c-0.529-0.553-1.122-1.042-1.768-1.457 0.021 0.037 0.043 0.076 0.065 0.12 0.465 0.925-0.182 2.366-0.146 3.159 0 0-0.883-0.921-1.128-2.133-0.224-1.109 0.071-1.588 0.374-1.406 0.445 0.268 0.471 1.726 0.471 1.726s0.319-0.933-0.211-1.806c-0.757-0.415-1.575-0.733-2.438-0.933l-0.104-0.412-5e-3 -0.018c0.451 0.096 0.89 0.224 1.317 0.379 0.4-0.417 1.77-0.502 1.77-0.502s-1.144-0.315-1.935 0.363c0 0-0.23-0.345 0.425-0.703 0.946-0.516 2.514 0.019 3.348-0.072 0 0-0.9 0.949-2.159 1.277-0.144 0.038-0.278 0.066-0.402 0.087 0.543 0.273 1.056 0.596 1.536 0.96 0.493-0.286 1.792-0.032 1.792-0.032s-1.008-0.582-1.926-0.134c0 0-0.133-0.385 0.577-0.562 1.026-0.256 2.382 0.64 3.196 0.761 0 0-1.089 0.677-2.365 0.677-0.169 0-0.322-8e-3 -0.461-0.023 0.38 0.358 0.729 0.746 1.048 1.16 0.015-0.019 0.033-0.037 0.056-0.052 0.45-0.295 1.807 0.289 1.807 0.289s-0.834-0.757-1.794-0.522c0 0-0.047-0.391 0.661-0.413 1.022-0.031 2.12 1.094 2.865 1.375 0 0-1.168 0.417-2.375 0.156-0.349-0.076-0.621-0.173-0.822-0.277 0.286 0.43 0.54 0.883 0.757 1.357 0.019-0.013 0.041-0.023 0.068-0.03 0.493-0.123 1.52 0.822 1.52 0.822s-0.507-0.936-1.437-1.025c0 0 0.08-0.364 0.719-0.163 0.921 0.291 1.55 1.637 2.127 2.12 0 0-1.173 8e-3 -2.167-0.602-0.218-0.133-0.392-0.264-0.528-0.387" fill="#003f98"/>
  </g>
  <g transform="matrix(3.2416 0 0 3.2416 768.1 616.57)">
   <path d="m0 0c-7.776 0-14.103 6.327-14.103 14.103 0 7.777 6.327 14.103 14.103 14.103s14.103-6.326 14.103-14.103c0-7.776-6.327-14.103-14.103-14.103m0 28.471c-7.922 0-14.367-6.446-14.367-14.368s6.445-14.367 14.367-14.367 14.367 6.445 14.367 14.367-6.445 14.368-14.367 14.368" fill="#003f98"/>
  </g>
  <g transform="matrix(3.2416 0 0 3.2416 721.05 642.25)">
   <path d="m0 0c-0.225 0.081-0.48 0.081-0.712-0.014l0.277-0.559c0.23 0.083 0.469-4e-3 0.592-0.253 0.166-0.335-0.031-0.691-0.445-0.896-0.41-0.203-0.802-0.181-0.983 0.186-0.119 0.239-0.042 0.474 0.146 0.602l-0.277 0.559c-0.238-0.153-0.403-0.376-0.455-0.646-0.043-0.221-9e-3 -0.48 0.12-0.742 0.333-0.672 1.058-0.86 1.731-0.527 0.675 0.334 0.948 1.031 0.619 1.694-0.157 0.319-0.36 0.505-0.613 0.596" fill="#003f98"/>
  </g>
  <g transform="matrix(3.2416 0 0 3.2416 720.36 646.3)">
   <path d="m0 0-1.005-0.304-0.256 0.846 1.004 0.304-0.181 0.597-2.41-0.73 0.181-0.597 0.913 0.277 0.257-0.847-0.914-0.276 0.181-0.597 2.411 0.73z" fill="#003f98"/>
  </g>
  <g transform="matrix(3.2416 0 0 3.2416 718.36 655.7)">
   <path d="m0 0c-0.092 0.695-0.486 0.995-1.062 0.92l-1.618-0.213 0.081-0.618 1.628 0.213c0.245 0.033 0.437-0.081 0.475-0.367 0.04-0.304-0.108-0.452-0.352-0.483l-1.639-0.216 0.082-0.618 1.617 0.212c0.583 0.077 0.88 0.471 0.788 1.17" fill="#003f98"/>
  </g>
  <g transform="matrix(3.2416 0 0 3.2416 717.76 662.56)">
   <path d="m0 0-1.173 0.045c-0.088 4e-3 -0.412 9e-3 -0.412 9e-3v7e-3s0.277 0.127 0.345 0.167l1.275 0.691 0.025 0.627-2.518 0.097-0.024-0.609 1.194-0.046c0.088-4e-3 0.391-8e-3 0.391-8e-3v-7e-3s-0.255-0.124-0.327-0.161l-1.294-0.697-0.024-0.627 2.518-0.097z" fill="#003f98"/>
  </g>
  <g transform="matrix(3.2416 0 0 3.2416 714.06 669.45)">
   <path d="m0 0c0.376-0.078 0.725-0.028 1.004 0.138 0.262 0.158 0.446 0.418 0.519 0.77 0.061 0.297 0.011 0.559-0.207 0.773l1e-3 7e-3 0.303-0.026 0.089 0.427-1.325 0.274-0.212-1.028 0.448-0.093 0.096 0.463 7e-3 -2e-3c0.212-0.069 0.387-0.303 0.321-0.624-0.08-0.386-0.464-0.551-0.915-0.458-0.449 0.093-0.745 0.366-0.661 0.773 0.056 0.269 0.242 0.404 0.451 0.407l0.123 0.593c-0.534 0.028-0.95-0.281-1.082-0.916-0.073-0.356-0.012-0.667 0.153-0.913 0.186-0.283 0.501-0.485 0.887-0.565" fill="#003f98"/>
  </g>
  <g transform="matrix(3.2416 0 0 3.2416 720.77 679.45)">
   <path d="m0 0-1.091 0.433c-0.082 0.033-0.386 0.146-0.386 0.146l3e-3 7e-3s0.303 0.027 0.38 0.042l1.433 0.227 0.232 0.583-2.342 0.93-0.225-0.566 1.111-0.441c0.081-0.033 0.365-0.138 0.365-0.138l-2e-3 -7e-3s-0.282-0.032-0.362-0.042l-1.452-0.227-0.231-0.583 2.342-0.93z" fill="#003f98"/>
  </g>
  <g transform="matrix(3.2416 0 0 3.2416 720.62 690.47)">
   <path d="m0 0c-0.089 0.104-0.251 0.271-0.251 0.271l3e-3 6e-3s0.222-0.068 0.356-0.099l0.62-0.153-0.307-0.506zm1.044-1.195-0.315 0.359 0.456 0.753 0.466-0.108 0.339 0.56-2.626 0.526-0.332-0.548 1.687-2.079z" fill="#003f98"/>
  </g>
  <g transform="matrix(3.2416 0 0 3.2416 728.86 693.86)">
   <path d="m0 0-0.946 0.839c-0.077 0.068-0.387 0.329-0.387 0.329l5e-3 5e-3s0.343-0.186 0.431-0.226l1.21-0.594 0.341 0.385-0.734 1.136c-0.05 0.082-0.273 0.398-0.273 0.398l5e-3 6e-3s0.293-0.275 0.369-0.343l0.949-0.841 0.379 0.427-1.885 1.671-0.561-0.632 0.619-0.964c0.091-0.137 0.337-0.486 0.337-0.486l-5e-3 -6e-3s-0.376 0.202-0.525 0.273l-1.029 0.503-0.556-0.628 1.884-1.671z" fill="#003f98"/>
  </g>
  <g transform="matrix(3.2416 0 0 3.2416 742.32 705.52)">
   <path d="m0 0-0.571 1.025c-0.043 0.077-0.207 0.356-0.207 0.356l7e-3 4e-3s0.251-0.17 0.321-0.208l1.253-0.73 0.548 0.306-1.226 2.2-0.532-0.297 0.581-1.043c0.043-0.077 0.196-0.338 0.196-0.338l-6e-3 -3e-3s-0.239 0.153-0.307 0.196l-1.268 0.741-0.547-0.306 1.226-2.2z" fill="#003f98"/>
  </g>
  <g transform="matrix(3.2416 0 0 3.2416 749.38 714.24)">
   <path d="m0 0c-4e-3 0.137-0.022 0.37-0.022 0.37l6e-3 2e-3s0.129-0.194 0.212-0.303l0.382-0.512-0.559-0.196zm0.032-1.109 0.831 0.292 0.291-0.379 0.618 0.218-1.695 2.074-0.605-0.213-0.017-2.678 0.592 0.209z" fill="#003f98"/>
  </g>
  <g transform="matrix(3.2416 0 0 3.2416 755.79 717.71)">
   <path d="m0 0 0.395-1.951 0.611 0.124-0.395 1.951 0.725 0.147-0.105 0.517-2.054-0.416 0.105-0.518z" fill="#003f98"/>
  </g>
  <g transform="matrix(3.2416 0 0 3.2416 764.33 712.46)">
   <path d="m0 0-0.235 2.508-0.621-0.058 0.235-2.508z" fill="#003f98"/>
  </g>
  <g transform="matrix(3.2416 0 0 3.2416 769.95 719.26)">
   <path d="m0 0c0.408-0.016 0.596-0.376 0.578-0.834-0.018-0.457-0.232-0.798-0.641-0.783-0.404 0.016-0.599 0.373-0.581 0.831 0.017 0.458 0.238 0.802 0.644 0.786m-0.086-2.123c0.765-0.03 1.268 0.512 1.297 1.265 0.029 0.754-0.431 1.332-1.195 1.362-0.761 0.029-1.265-0.512-1.294-1.266-0.029-0.753 0.432-1.332 1.192-1.361" fill="#003f98"/>
  </g>
  <g transform="matrix(3.2416 0 0 3.2416 777.69 715.56)">
   <path d="m0 0c0.018 0.086 0.077 0.405 0.077 0.405l7e-3 -1e-3s0.079-0.294 0.107-0.368l0.47-1.372 0.614-0.128 0.514 2.466-0.597 0.125-0.243-1.17c-0.018-0.086-0.073-0.384-0.073-0.384l-7e-3 1e-3s-0.08 0.272-0.104 0.349l-0.474 1.391-0.614 0.128-0.513-2.466 0.597-0.125z" fill="#003f98"/>
  </g>
  <g transform="matrix(3.2416 0 0 3.2416 787.97 713.8)">
   <path d="m0 0c0.087 0.106 0.225 0.294 0.225 0.294l7e-3 -3e-3s-0.03-0.23-0.039-0.367l-0.046-0.637-0.551 0.217zm-1.003-1.229 0.301 0.37 0.82-0.323-0.029-0.477 0.609-0.241 0.078 2.677-0.597 0.235-1.765-2.011z" fill="#003f98"/>
  </g>
  <g transform="matrix(3.2416 0 0 3.2416 797.13 705.56)">
   <path d="m0 0-0.973 0.575 1.012 1.713-0.537 0.317-1.281-2.168 1.51-0.892z" fill="#003f98"/>
  </g>
  <g transform="matrix(3.2416 0 0 3.2416 808.6 696.91)">
   <path d="m0 0 1.17 1.137-0.435 0.447-1.177-1.144c-0.177-0.172-0.399-0.196-0.601 0.011-0.213 0.22-0.183 0.426-6e-3 0.598l1.185 1.152-0.435 0.447-1.169-1.137c-0.423-0.41-0.424-0.903 0.067-1.409 0.489-0.503 0.984-0.507 1.401-0.102" fill="#003f98"/>
  </g>
  <g transform="matrix(3.2416 0 0 3.2416 808.66 692.08)">
   <path d="m0 0 0.965 0.667c0.073 0.05 0.336 0.24 0.336 0.24l4e-3 -6e-3s-0.145-0.267-0.176-0.34l-0.606-1.318 0.356-0.516 2.074 1.432-0.347 0.501-0.983-0.678c-0.072-0.051-0.317-0.229-0.317-0.229l-5e-3 6e-3s0.131 0.253 0.166 0.325l0.617 1.333-0.356 0.517-2.075-1.432z" fill="#003f98"/>
  </g>
  <g transform="matrix(3.2416 0 0 3.2416 813.18 684.65)">
   <path d="m0 0 2.232 1.166-0.289 0.553-2.232-1.167z" fill="#003f98"/>
  </g>
  <g transform="matrix(3.2416 0 0 3.2416 815.42 679.43)">
   <path d="m0 0 2.649 0.136-0.227 0.588-1.374-0.112c-0.193-0.018-0.456-0.051-0.456-0.051l-2e-3 7e-3s0.215 0.147 0.371 0.268l1.091 0.844-0.234 0.605-2.05-1.684z" fill="#003f98"/>
  </g>
  <g transform="matrix(3.2416 0 0 3.2416 817.88 670.22)">
   <path d="m0 0 0.516 0.116-0.287 1.275 0.526 0.118 0.242-1.076 0.474 0.107-0.242 1.076 0.44 0.099 0.282-1.255 0.502 0.113-0.419 1.863-2.457-0.553z" fill="#003f98"/>
  </g>
  <g transform="matrix(3.2416 0 0 3.2416 824.77 667.23)">
   <path d="m0 0 0.03-0.482c0.016-0.239-0.106-0.366-0.289-0.378-0.19-0.012-0.314 0.107-0.33 0.353l-0.03 0.467zm-2.021-0.13 0.941 0.061 0.025-0.377c0.017-0.267-0.102-0.394-0.332-0.441-0.247-0.055-0.543-0.063-0.577-0.132l0.039-0.605 0.031 2e-3c0.027 0.09 0.345 0.075 0.672 0.149 0.247 0.051 0.377 0.173 0.437 0.395l0.011 1e-3c0.12-0.285 0.344-0.415 0.636-0.397 0.467 0.03 0.699 0.427 0.667 0.926l-0.077 1.202-2.513-0.162z" fill="#003f98"/>
  </g>
  <g transform="matrix(3.2416 0 0 3.2416 824.26 660.27)">
   <path d="m0 0c-0.526 0.049-0.703-0.398-0.845-0.823-0.116-0.336-0.177-0.536-0.377-0.517-0.19 0.018-0.245 0.225-0.225 0.428 0.027 0.298 0.148 0.454 0.403 0.458l0.059 0.624c-0.556 0.038-0.892-0.373-0.954-1.039-0.054-0.579 0.195-1.055 0.721-1.105 0.537-0.05 0.72 0.358 0.872 0.814 0.12 0.367 0.18 0.556 0.355 0.54 0.14-0.013 0.222-0.166 0.202-0.384-0.023-0.231-0.145-0.368-0.34-0.374l-0.057-0.607c0.529-0.025 0.814 0.373 0.865 0.917 0.052 0.561-0.142 1.018-0.679 1.068" fill="#003f98"/>
  </g>
  <g transform="matrix(3.2416 0 0 3.2416 817.03 650.54)">
   <path d="m0 0 2.461-0.536 0.133 0.609-2.461 0.536z" fill="#003f98"/>
  </g>
  <g transform="matrix(3.2416 0 0 3.2416 822.29 645.36)">
   <path d="m0 0-1.889 0.627-0.196-0.592 1.888-0.627-0.232-0.702 0.501-0.166 0.661 1.989-0.502 0.166z" fill="#003f98"/>
  </g>
  <g transform="matrix(3.2416 0 0 3.2416 813.73 641.07)">
   <path d="m0 0-0.275-0.56 0.835-0.409 1.051-1.464 0.29 0.591-0.444 0.574c-0.117 0.152-0.268 0.325-0.268 0.325l3e-3 6e-3s0.225-0.02 0.417-0.021l0.727 4e-3 0.3 0.611-1.801-0.066z" fill="#003f98"/>
  </g>
  <g transform="matrix(3.2416 0 0 3.2416 768.1 599.58)">
   <path d="m0 0c-10.666 0-19.343 8.677-19.343 19.343s8.677 19.343 19.343 19.343 19.343-8.677 19.343-19.343-8.677-19.343-19.343-19.343m0 38.951c-10.812 0-19.608-8.796-19.608-19.608 0-10.811 8.796-19.607 19.608-19.607s19.608 8.796 19.608 19.607c0 10.812-8.796 19.608-19.608 19.608" fill="#003f98"/>
  </g>
  <g transform="matrix(3.2416 0 0 3.2416 772.28 630.44)">
   <path d="m0 0 0.151-0.178c1.159-0.387 1.351-0.686 1.351-0.686l0.891 0.458c-0.608 0.299-1.285 0.518-1.99 0.697z" fill="#003f98"/>
  </g>
  <g transform="matrix(3.2416 0 0 3.2416 762.6 631.37)">
   <path d="m0 0c-0.705-0.175-1.379-0.398-1.988-0.694l0.891-0.458s0.192 0.297 1.349 0.683l0.151 0.181z" fill="#003f98"/>
  </g>
  <g transform="matrix(3.2416 0 0 3.2416 766.04 403.44)">
   <path d="m0 0-1.558 0.275 1.114-1.036c0.018 8e-3 0.038 0.013 0.058 0.014 0.05 1e-3 0.095-0.015 0.13-0.048 0.074-0.068 0.078-0.184 0.01-0.257-0.033-0.036-0.078-0.057-0.126-0.058-6e-3 -1e-3 -0.013 0-0.019 0-0.041 2e-3 -0.081 0.019-0.112 0.048-0.035 0.033-0.056 0.078-0.057 0.126-2e-3 0.021 3e-3 0.041 9e-3 0.06l-1.114 1.035 0.389-1.535 2.542-1.816c0.092-0.066 0.213-0.072 0.311-0.015 0.074 0.043 0.165 0.11 0.263 0.216s0.159 0.201 0.196 0.278c0.049 0.102 0.034 0.222-0.038 0.309z" fill="#003f98"/>
  </g>
  <g transform="matrix(3.2416 0 0 3.2416 763.68 395.65)">
   <path d="m0 0c-0.072-0.085-0.088-0.206-0.038-0.307 0.038-0.077 0.098-0.173 0.197-0.28 0.096-0.104 0.186-0.173 0.26-0.216 0.022-0.011 0.05-0.022 0.075-0.028 0.082-0.022 0.167-5e-3 0.238 0.044l0.477 0.34-0.992 0.707z" fill="#003f98"/>
  </g>
  <g transform="matrix(3.2416 0 0 3.2416 771.4 401.02)">
   <path d="m0 0c0.022-3e-3 0.041-8e-3 0.06-0.014l1.113 1.034-1.557-0.274-0.521-0.628 1.061-1.275 0.735 0.526 0.389 1.536-1.113-1.034c5e-3 -0.019 8e-3 -0.041 8e-3 -0.06-3e-3 -0.05-0.021-0.093-0.057-0.126-0.031-0.031-0.071-0.047-0.113-0.05h-0.019c-0.047 3e-3 -0.093 0.022-0.126 0.058-0.069 0.074-0.063 0.189 0.011 0.258 0.035 0.033 0.079 0.049 0.129 0.049" fill="#003f98"/>
  </g>
  <g transform="matrix(3.2416 0 0 3.2416 762.29 374.25)">
   <path d="m0 0c0-0.252 0.204-0.456 0.456-0.456h0.92v0.457h-0.87v1.238h0.87v0.457h-1.376z" fill="#003f98"/>
  </g>
  <g transform="matrix(3.2416 0 0 3.2416 770.12 376.07)">
   <path d="m0 0h-0.275v1.134h-0.506v-3.402h0.506v1.811h0.275v-1.811h0.506v3.402h-0.506z" fill="#003f98"/>
  </g>
  <g transform="matrix(3.2416 0 0 3.2416 749.5 383.18)">
   <path d="m0 0-0.359-1.192c-0.072-0.241 0.065-0.496 0.306-0.568l1.259-0.379 0.132 0.437-1.212 0.365 0.358 1.191z" fill="#003f98"/>
  </g>
  <g transform="matrix(3.2416 0 0 3.2416 757.34 380.82)">
   <path d="m0 0-0.484 0.146-0.491-1.629 0.485-0.146 0.195 0.648 0.432-0.13 0.132 0.438-0.433 0.13z" fill="#003f98"/>
  </g>
  <g transform="matrix(3.2416 0 0 3.2416 749.62 374.9)">
   <path d="m0 0 1.194-0.359-0.147-0.487-1.194 0.359zm-0.631-0.341c-0.073-0.242 0.064-0.497 0.306-0.569l1.725-0.52 0.41 1.362-2.163 0.652z" fill="#003f98"/>
  </g>
  <g transform="matrix(3.2416 0 0 3.2416 798.5 379.98)">
   <path d="m0 0-0.682 1.139-0.434-0.26 0.682-1.139-0.334-0.2-0.682 1.139-0.435-0.261 0.683-1.138-0.423-0.253 0.236-0.393 2.566 1.538-0.235 0.393z" fill="#003f98"/>
  </g>
  <g transform="matrix(3.2416 0 0 3.2416 798.79 382.27)">
   <path d="m0 0 0.434 0.26-0.791 1.32c-0.13 0.216-0.41 0.287-0.627 0.157l-1.937-1.161 0.234-0.393 1.897 1.136z" fill="#003f98"/>
  </g>
  <g transform="matrix(3.2416 0 0 3.2416 786.54 381.06)">
   <path d="m0 0-0.437-0.116-0.146 0.548-0.489-0.131 0.438-1.643 0.49 0.13-0.175 0.654 0.437 0.116z" fill="#003f98"/>
  </g>
  <g transform="matrix(3.2416 0 0 3.2416 784.88 375.87)">
   <path d="m 0,0 -1.742,-0.464 0.118,-0.442 1.694,0.451 0.247,-0.929 0.489,0.13 -0.247,0.93 C 0.494,-0.08 0.243,0.065 0,0" fill="#003f98"/>
  </g>
  <g transform="matrix(3.2416 0 0 3.2416 779 377.63)">
   <path d="m0 0c-0.048 0.178 0.068 0.363 0.259 0.414 0.19 0.05 0.383-0.053 0.43-0.231 0.047-0.177-0.069-0.362-0.259-0.413s-0.383 0.052-0.43 0.23m0.549-0.675c0.46 0.123 0.742 0.566 0.629 0.989-0.052 0.198-0.182 0.355-0.352 0.456l0.362 0.096-0.117 0.442-0.737-0.196-0.096 0.36-0.489-0.13 0.096-0.36-0.736-0.197 0.118-0.441 0.362 0.096c-0.097-0.171-0.131-0.373-0.078-0.57 0.113-0.424 0.577-0.668 1.038-0.545" fill="#003f98"/>
  </g>
  <g transform="matrix(3.2416 0 0 3.2416 738.02 379.32)">
   <path d="m0 0c-0.098-0.153-0.347-0.182-0.577-0.034-0.23 0.149-0.306 0.387-0.207 0.54s0.346 0.182 0.577 0.034c0.23-0.149 0.306-0.387 0.207-0.54m-1.064 1.866 1.014-0.654-0.119-0.184c-0.429 0.177-0.86 0.07-1.058-0.237-0.229-0.356-0.085-0.889 0.405-1.205s1.035-0.227 1.265 0.129c0.191 0.296 0.122 0.717-0.191 1.031l0.123 0.192 1.015-0.654 0.242 0.373-2.455 1.583z" fill="#003f98"/>
  </g>
  <g transform="matrix(3.2416 0 0 3.2416 742.95 388.12)">
   <path d="m0 0-0.425 0.274-0.202-0.313-0.913 0.588-0.241-0.374 0.766-0.493c-0.215-0.063-0.512-0.02-0.925 0.246l-0.238-0.37c0.611-0.394 1.076-0.42 1.405-0.29 0.018-0.354 0.233-0.766 0.845-1.161l0.238 0.371c-0.413 0.266-0.574 0.518-0.606 0.739l0.765-0.493 0.241 0.374-0.912 0.589z" fill="#003f98"/>
  </g>
  <g transform="matrix(3.2416 0 0 3.2416 754.74 435.8)">
   <path d="m0 0c-8e-3 -0.043-0.012-0.088-0.012-0.133v-3.628c0-0.381 0.303-0.689 0.678-0.689 0.373 0 0.678 0.308 0.678 0.689v3.249l-2e-3 4e-3c0 0.262 0.207 0.476 0.463 0.476s0.463-0.214 0.463-0.476l1e-3 -4e-3v-3.249c0-0.381 0.303-0.689 0.679-0.689 0.375 0 0.679 0.308 0.679 0.689v3.249l2e-3 -6e-3c0 0.273 0.215 0.495 0.482 0.495 0.266 0 0.481-0.222 0.481-0.495l-1e-3 6e-3v-3.249c0-0.381 0.304-0.689 0.679-0.689 0.374 0 0.678 0.308 0.678 0.689v3.249l-2e-3 -2e-3c0 0.268 0.212 0.487 0.474 0.487 0.26 0 0.472-0.219 0.472-0.487l1e-3 2e-3v-3.249c0-0.381 0.304-0.689 0.679-0.689 0.376 0 0.678 0.308 0.678 0.689v3.628h4e-3c0 0.783-0.62 1.418-1.383 1.418h-2.068v0.628c0 0.381-0.304 0.69-0.679 0.69s-0.677-0.309-0.677-0.69v-0.628h-2.069c-0.72 0-1.313-0.564-1.378-1.285" fill="#003f98"/>
  </g>
  <g transform="matrix(3.2416 0 0 3.2416 756.49 459.9)">
   <path d="m 0,0 c 0.426,0.259 0.979,0.154 0.979,0.154 0,0 -0.783,-0.056 -0.929,-0.264 -0.099,-0.142 0.174,-0.303 0.81,-0.151 0.683,0.163 1.157,0.728 1.157,0.728 C 1.428,0.331 0.769,0.55 0.253,0.309 -0.103,0.143 0,0 0,0" fill="#003f98"/>
  </g>
  <g transform="matrix(3.2416 0 0 3.2416 757.62 399.56)">
   <path d="m0 0c-0.791-0.678-1.935-0.363-1.935-0.363s1.37 0.085 1.771 0.503c0.426-0.156 0.866-0.285 1.318-0.381l-6e-3 0.019-0.104 0.412c-0.864 0.2-1.681 0.518-2.439 0.933-0.53 0.873-0.21 1.806-0.21 1.806s0.025-1.459 0.47-1.726c0.304-0.182 0.598 0.296 0.374 1.406-0.245 1.211-1.128 2.133-1.128 2.133 0.036-0.793-0.611-2.234-0.145-3.16 0.021-0.043 0.043-0.082 0.064-0.119-0.645 0.415-1.239 0.904-1.767 1.457-0.209 0.917 0.361 1.655 0.361 1.655s-0.421-1.295-0.105-1.653c0.215-0.243 0.624 0.099 0.762 1.14 0.151 1.137-0.358 2.193-0.358 2.193-0.209-0.711-1.226-1.808-1.092-2.752 6e-3 -0.044 0.013-0.085 0.021-0.123-0.473 0.561-0.883 1.176-1.219 1.836 7e-3 0 0.012 1e-3 0.012 1e-3 -0.043 0.841 0.549 1.423 0.549 1.423s-0.546-1.093-0.333-1.449c0.146-0.244 0.625-0.092 0.895 0.812 0.295 0.987-0.061 2.084-0.061 2.084-0.281-0.601-1.301-1.442-1.328-2.295v-3e-3c-0.266 0.621-0.469 1.277-0.599 1.957h3e-3c0.072 0.854 0.749 1.361 0.749 1.361s-0.701-1.028-0.535-1.417c0.114-0.266 0.547-0.067 0.943 0.808 0.433 0.956 0.295 2.001 0.295 2.001-0.33-0.513-1.291-1.14-1.582-1.887-0.032 0.318-0.05 0.64-0.05 0.966 0 0.452 0.033 0.896 0.093 1.332 0.183 0.811 0.898 1.21 0.898 1.21s-0.81-0.902-0.7-1.3c0.075-0.271 0.519-0.135 1.016 0.659 0.542 0.867 0.544 1.894 0.544 1.894-0.315-0.369-1.046-0.758-1.51-1.26 0.189 0.696 0.45 1.361 0.781 1.985 0.446 0.575 1.16 0.629 1.16 0.629s-0.98-0.42-1.039-0.778c-0.04-0.244 0.364-0.3 1.054 0.15 0.753 0.491 1.136 1.31 1.136 1.31-0.432-0.198-1.278-0.229-1.846-0.535 0.358 0.544 0.769 1.048 1.227 1.507 0.569 0.387 1.227 0.238 1.227 0.238s-1.02-0.108-1.176-0.421c-0.106-0.213 0.25-0.379 1.012-0.16 0.832 0.239 1.414 0.884 1.414 0.884-0.452-0.061-1.24 0.155-1.849 0.035 0.444 0.371 0.92 0.703 1.427 0.99 0.497 0.165 0.951-0.074 0.951-0.074s-0.782 0.126-0.961-0.075c-0.122-0.137 0.109-0.333 0.721-0.324 0.667 9e-3 1.232 0.371 1.232 0.371-0.354 0.047-0.909 0.374-1.392 0.398 0.185 0.096 0.423 0.224 0.423 0.254 0 0.05-0.43-0.137-0.578-0.202 0.102 0.067 0.216 0.161 0.342 0.292 0.492 0.513 0.639 1.212 0.639 1.212-0.362-0.281-1.246-0.481-1.538-0.992-0.202-0.354 4e-3 -0.449 4e-3 -0.449 0.173 0.542 0.796 0.724 0.796 0.724s-0.695-0.49-0.686-0.8c3e-3 -0.09 0.076-0.129 0.196-0.103-0.081-0.032-0.13-0.068-0.159-0.101-0.434-0.24-0.85-0.511-1.241-0.812 0.097 0.104 0.202 0.249 0.307 0.451 0.356 0.684 0.297 1.457 0.297 1.457-0.291-0.403-1.15-0.879-1.3-1.5-0.104-0.431 0.14-0.467 0.14-0.467 0.017 0.617 0.61 0.995 0.61 0.995s-0.575-0.721-0.472-1.041c0.028-0.086 0.107-0.107 0.21-0.059-0.106-0.087-0.212-0.177-0.316-0.268-9e-3 -5e-3 -0.018-9e-3 -0.027-0.014-0.202-0.121-0.278-0.22-0.304-0.296-0.279-0.27-0.543-0.555-0.788-0.855 0.109 0.164 0.214 0.422 0.286 0.792 0.187 0.958-0.162 1.876-0.162 1.876-0.21-0.594-1.082-1.481-1.041-2.289 0.03-0.56 0.339-0.516 0.339-0.516-0.203 0.755 0.382 1.427 0.382 1.427s-0.439-1.082-0.198-1.433c0.07-0.103 0.185-0.093 0.305 0.029-0.26-0.329-0.501-0.673-0.719-1.035-0.051-0.068-0.085-0.128-0.103-0.178-0.126-0.219-0.245-0.443-0.355-0.673 0.05 0.216 0.063 0.526 2e-3 0.941-0.162 1.088-0.86 1.929-0.86 1.929 3e-3 -0.71-0.568-1.983-0.227-2.824 0.236-0.583 0.538-0.42 0.538-0.42-0.487 0.725-0.131 1.661-0.131 1.661s-0.054-1.316 0.323-1.597c0.076-0.057 0.154-0.044 0.223 0.023-0.266-0.608-0.474-1.246-0.614-1.911-0.028-0.102-0.042-0.186-0.045-0.255-0.026-0.139-0.053-0.278-0.073-0.419-9e-3 0.231-0.084 0.547-0.265 0.945-0.475 1.046-1.434 1.686-1.434 1.686 0.204-0.712-0.027-2.155 0.564-2.901 0.409-0.516 0.675-0.264 0.675-0.264-0.708 0.586-0.606 1.628-0.606 1.628s0.317-1.336 0.787-1.508c0.112-0.042 0.204 8e-3 0.25 0.136-0.04-0.371-0.067-0.748-0.065-1.13 2e-3 -0.361 0.025-0.716 0.063-1.067-0.085 0.157-0.201 0.332-0.356 0.524-0.721 0.894-1.81 1.275-1.81 1.275 0.376-0.639 0.513-2.094 1.272-2.668 0.525-0.398 0.72-0.087 0.72-0.087-0.833 0.39-0.994 1.425-0.994 1.425s0.64-1.215 1.138-1.264c0.059-6e-3 0.107 8e-3 0.143 0.04 0.1-0.524 0.239-1.034 0.418-1.525-0.136 0.124-0.311 0.255-0.529 0.389-0.995 0.61-2.168 0.602-2.168 0.602 0.578-0.483 1.206-1.829 2.128-2.12 0.638-0.201 0.719 0.162 0.719 0.162-0.931 0.09-1.438 1.026-1.438 1.026s1.028-0.945 1.521-0.822c0.026 7e-3 0.048 0.017 0.068 0.03 0.218-0.474 0.472-0.928 0.759-1.359-0.201 0.105-0.474 0.203-0.825 0.278-1.206 0.262-2.375-0.155-2.375-0.155 0.745-0.281 1.843-1.407 2.865-1.375 0.709 0.021 0.662 0.413 0.662 0.413-0.961-0.235-1.794 0.522-1.794 0.522s1.356-0.584 1.806-0.29c0.024 0.016 0.043 0.035 0.057 0.054 0.319-0.414 0.67-0.803 1.049-1.162-0.139 0.015-0.293 0.024-0.463 0.024-1.276-1e-3 -2.365-0.678-2.365-0.678 0.814-0.12 2.17-1.016 3.196-0.76 0.71 0.177 0.577 0.562 0.577 0.562-0.918-0.448-1.926 0.134-1.926 0.134s1.301-0.254 1.793 0.033c0.48-0.365 0.994-0.688 1.537-0.961-0.124-0.021-0.259-0.049-0.404-0.087-1.259-0.329-2.158-1.277-2.158-1.277 0.834 0.091 2.401-0.444 3.347 0.072 0.655 0.357 0.425 0.703 0.425 0.703" fill="#003f98"/>
  </g>
  <g transform="matrix(3.2416 0 0 3.2416 776.92 459.05)">
   <path d="m0 0c0.637-0.152 0.91 9e-3 0.81 0.151-0.146 0.208-0.929 0.264-0.929 0.264s0.554 0.105 0.98-0.154c0 0 0.103 0.143-0.253 0.309-0.517 0.241-1.175 0.022-1.765 0.158 0 0 0.475-0.565 1.157-0.728" fill="#003f98"/>
  </g>
  <g transform="matrix(3.2416 0 0 3.2416 798.23 419.15)">
   <path d="m0 0c0.178 0.49 0.318 0.999 0.417 1.523 0.036-0.032 0.084-0.046 0.142-0.04 0.498 0.049 1.138 1.264 1.138 1.264s-0.16-1.034-0.993-1.425c0 0 0.194-0.311 0.72 0.087 0.758 0.574 0.895 2.03 1.271 2.668 0 0-1.09-0.381-1.81-1.274-0.154-0.191-0.27-0.366-0.355-0.522 0.039 0.35 0.062 0.704 0.063 1.064 2e-3 0.38-0.024 0.754-0.064 1.123 0.047-0.123 0.138-0.17 0.249-0.129 0.469 0.172 0.786 1.509 0.786 1.509s0.103-1.043-0.606-1.629c0 0 0.266-0.252 0.675 0.265 0.591 0.745 0.36 2.188 0.564 2.9 0 0-0.959-0.64-1.434-1.686-0.178-0.393-0.254-0.706-0.265-0.936-0.02 0.142-0.048 0.281-0.074 0.421-4e-3 0.063-0.017 0.14-0.041 0.231-0.139 0.668-0.348 1.311-0.615 1.923 0.068-0.066 0.145-0.078 0.221-0.022 0.378 0.281 0.324 1.597 0.324 1.597s0.355-0.935-0.132-1.661c0 0 0.303-0.163 0.538 0.42 0.341 0.842-0.23 2.114-0.227 2.824 0 0-0.698-0.841-0.859-1.929-0.061-0.412-0.049-0.721 0-0.937-0.11 0.23-0.228 0.454-0.354 0.673-0.019 0.048-0.051 0.105-0.1 0.171-0.217 0.361-0.458 0.707-0.719 1.036 0.119-0.119 0.233-0.129 0.302-0.027 0.241 0.351-0.198 1.433-0.198 1.433s0.585-0.672 0.383-1.427c0 0 0.309-0.044 0.338 0.516 0.041 0.808-0.831 1.695-1.04 2.289 0 0-0.349-0.917-0.163-1.876 0.071-0.362 0.173-0.617 0.28-0.782-0.244 0.298-0.506 0.579-0.782 0.846-0.026 0.076-0.103 0.176-0.304 0.295-8e-3 5e-3 -0.017 8e-3 -0.025 0.013-0.103 0.092-0.209 0.181-0.316 0.268 0.102-0.046 0.181-0.025 0.208 0.061 0.104 0.319-0.472 1.041-0.472 1.041s0.594-0.378 0.61-0.996c0 0 0.244 0.037 0.141 0.467-0.15 0.621-1.009 1.098-1.301 1.5 0 0-0.059-0.773 0.297-1.457 0.105-0.2 0.209-0.345 0.306-0.449-0.392 0.301-0.807 0.571-1.241 0.811-0.028 0.033-0.078 0.068-0.157 0.101 0.119-0.026 0.192 0.013 0.195 0.103 9e-3 0.309-0.686 0.799-0.686 0.799s0.623-0.181 0.796-0.723c0 0 0.206 0.094 4e-3 0.448-0.292 0.512-1.175 0.712-1.538 0.993 0 0 0.148-0.699 0.639-1.213 0.125-0.13 0.239-0.223 0.34-0.29-0.152 0.066-0.578 0.25-0.578 0.201 0-0.031 0.24-0.159 0.426-0.254-0.484-0.025-1.038-0.351-1.393-0.399 0 0 0.565-0.362 1.232-0.371 0.612-8e-3 0.844 0.187 0.721 0.324-0.179 0.202-0.961 0.076-0.961 0.076s0.455 0.239 0.953 0.072c0.507-0.286 0.983-0.618 1.426-0.989-0.609 0.12-1.398-0.095-1.85-0.035 0 0 0.583-0.645 1.414-0.884 0.762-0.219 1.118-0.053 1.012 0.161-0.156 0.312-1.176 0.421-1.176 0.421s0.659 0.149 1.228-0.239c0.457-0.459 0.868-0.963 1.225-1.506-0.568 0.305-1.413 0.336-1.845 0.534 0 0 0.383-0.819 1.136-1.31 0.69-0.45 1.094-0.394 1.054-0.149-0.059 0.357-1.039 0.777-1.039 0.777s0.712-0.054 1.158-0.627c0.331-0.623 0.593-1.289 0.781-1.984-0.464 0.501-1.194 0.889-1.508 1.258 0 0 3e-3 -1.028 0.544-1.895 0.497-0.794 0.941-0.929 1.016-0.658 0.111 0.397-0.7 1.299-0.7 1.299s0.708-0.396 0.895-1.199c0.061-0.439 0.094-0.887 0.094-1.343 0-0.325-0.018-0.645-0.049-0.962-0.293 0.745-1.251 1.371-1.581 1.884 0 0-0.138-1.046 0.295-2.001 0.396-0.876 0.83-1.075 0.943-0.809 0.166 0.389-0.534 1.417-0.534 1.417s0.676-0.506 0.748-1.36h2e-3c-0.131-0.68-0.333-1.334-0.598-1.954-0.027 0.853-1.046 1.693-1.328 2.295 0 0-0.355-1.098-0.061-2.084 0.271-0.904 0.749-1.057 0.895-0.813 0.214 0.357-0.333 1.449-0.333 1.449s0.592-0.582 0.549-1.422c0 0 4e-3 -1e-3 0.011-2e-3 -0.336-0.659-0.746-1.274-1.218-1.835 8e-3 0.037 0.015 0.078 0.021 0.122 0.135 0.945-0.883 2.042-1.092 2.752 0 0-0.508-1.055-0.358-2.193 0.138-1.041 0.547-1.383 0.762-1.139 0.317 0.357-0.105 1.653-0.105 1.653s0.571-0.738 0.362-1.656c-0.529-0.552-1.122-1.042-1.768-1.457 0.021 0.037 0.043 0.076 0.065 0.12 0.465 0.925-0.182 2.366-0.146 3.159 0 0-0.883-0.921-1.128-2.133-0.224-1.109 0.071-1.588 0.374-1.405 0.445 0.267 0.471 1.725 0.471 1.725s0.319-0.933-0.211-1.806c-0.757-0.415-1.575-0.733-2.438-0.933l-0.104-0.411-5e-3 -0.019c0.451 0.096 0.89 0.224 1.317 0.379 0.4-0.417 1.77-0.502 1.77-0.502s-1.144-0.315-1.935 0.363c0 0-0.23-0.345 0.425-0.703 0.946-0.516 2.514 0.019 3.348-0.072 0 0-0.9 0.949-2.159 1.277-0.144 0.038-0.278 0.067-0.402 0.087 0.543 0.273 1.056 0.596 1.536 0.96 0.493-0.285 1.792-0.032 1.792-0.032s-1.008-0.582-1.926-0.134c0 0-0.133-0.385 0.577-0.562 1.026-0.256 2.382 0.64 3.196 0.761 0 0-1.089 0.677-2.365 0.677-0.169 0-0.322-8e-3 -0.461-0.023 0.38 0.358 0.729 0.746 1.048 1.16 0.015-0.019 0.033-0.037 0.056-0.052 0.45-0.295 1.807 0.289 1.807 0.289s-0.834-0.757-1.794-0.521c0 0-0.047-0.392 0.661-0.414 1.022-0.031 2.12 1.094 2.865 1.375 0 0-1.168 0.417-2.375 0.156-0.349-0.076-0.621-0.173-0.822-0.277 0.286 0.43 0.54 0.883 0.757 1.357 0.019-0.012 0.041-0.023 0.068-0.03 0.493-0.123 1.52 0.822 1.52 0.822s-0.507-0.936-1.437-1.025c0 0 0.08-0.364 0.719-0.163 0.921 0.291 1.55 1.637 2.127 2.12 0 0-1.173 8e-3 -2.167-0.602-0.218-0.133-0.392-0.264-0.528-0.387" fill="#003f98"/>
  </g>
  <g transform="matrix(3.2416 0 0 3.2416 768.1 382.96)">
   <path d="m0 0c-7.776 0-14.103 6.327-14.103 14.103 0 7.777 6.327 14.103 14.103 14.103s14.103-6.326 14.103-14.103c0-7.776-6.327-14.103-14.103-14.103m0 28.47c-7.922 0-14.367-6.445-14.367-14.367s6.445-14.367 14.367-14.367 14.367 6.445 14.367 14.367-6.445 14.367-14.367 14.367" fill="#003f98"/>
  </g>
  <g transform="matrix(3.2416 0 0 3.2416 721.05 408.64)">
   <path d="m0 0c-0.225 0.081-0.48 0.081-0.712-0.014l0.277-0.559c0.23 0.082 0.469-4e-3 0.592-0.253 0.166-0.335-0.031-0.691-0.445-0.896-0.41-0.203-0.802-0.181-0.983 0.185-0.119 0.24-0.042 0.475 0.146 0.603l-0.277 0.559c-0.238-0.154-0.403-0.377-0.455-0.646-0.043-0.221-9e-3 -0.48 0.12-0.742 0.333-0.672 1.058-0.86 1.731-0.527 0.675 0.334 0.948 1.031 0.619 1.694-0.157 0.319-0.36 0.505-0.613 0.596" fill="#003f98"/>
  </g>
  <g transform="matrix(3.2416 0 0 3.2416 720.36 412.69)">
   <path d="m0 0-1.005-0.304-0.256 0.846 1.004 0.304-0.181 0.597-2.41-0.73 0.181-0.597 0.913 0.277 0.257-0.847-0.914-0.276 0.181-0.597 2.411 0.73z" fill="#003f98"/>
  </g>
  <g transform="matrix(3.2416 0 0 3.2416 718.36 422.09)">
   <path d="m0 0c-0.092 0.695-0.486 0.995-1.062 0.92l-1.618-0.213 0.081-0.618 1.628 0.214c0.245 0.032 0.437-0.082 0.475-0.368 0.04-0.304-0.108-0.451-0.352-0.483l-1.639-0.216 0.082-0.618 1.617 0.212c0.583 0.077 0.88 0.471 0.788 1.17" fill="#003f98"/>
  </g>
  <g transform="matrix(3.2416 0 0 3.2416 717.76 428.95)">
   <path d="m0 0-1.173 0.045c-0.088 4e-3 -0.412 9e-3 -0.412 9e-3v7e-3s0.277 0.127 0.345 0.167l1.275 0.691 0.025 0.627-2.518 0.097-0.024-0.609 1.194-0.046c0.088-4e-3 0.391-8e-3 0.391-8e-3v-7e-3s-0.255-0.124-0.327-0.161l-1.294-0.697-0.024-0.627 2.518-0.097z" fill="#003f98"/>
  </g>
  <g transform="matrix(3.2416 0 0 3.2416 714.06 435.84)">
   <path d="m0 0c0.376-0.078 0.725-0.028 1.004 0.138 0.262 0.158 0.446 0.418 0.519 0.77 0.061 0.297 0.011 0.559-0.207 0.773l1e-3 7e-3 0.303-0.026 0.089 0.427-1.325 0.274-0.212-1.028 0.448-0.093 0.096 0.463 7e-3 -2e-3c0.212-0.069 0.387-0.303 0.321-0.624-0.08-0.386-0.464-0.551-0.915-0.458-0.449 0.093-0.745 0.366-0.661 0.773 0.056 0.269 0.242 0.404 0.451 0.407l0.123 0.593c-0.534 0.028-0.95-0.281-1.082-0.916-0.073-0.356-0.012-0.667 0.153-0.913 0.186-0.283 0.501-0.485 0.887-0.565" fill="#003f98"/>
  </g>
  <g transform="matrix(3.2416 0 0 3.2416 720.77 445.84)">
   <path d="m0 0-1.091 0.433c-0.082 0.033-0.386 0.146-0.386 0.146l3e-3 6e-3s0.303 0.028 0.38 0.043l1.433 0.227 0.232 0.583-2.342 0.93-0.225-0.567 1.111-0.441c0.081-0.032 0.365-0.137 0.365-0.137l-2e-3 -7e-3s-0.282-0.032-0.362-0.042l-1.452-0.227-0.231-0.583 2.342-0.931z" fill="#003f98"/>
  </g>
  <g transform="matrix(3.2416 0 0 3.2416 720.62 456.86)">
   <path d="m0 0c-0.089 0.104-0.251 0.271-0.251 0.271l3e-3 7e-3s0.222-0.069 0.356-0.1l0.62-0.153-0.307-0.506zm1.044-1.195-0.315 0.359 0.456 0.753 0.466-0.108 0.339 0.56-2.626 0.526-0.332-0.548 1.687-2.079z" fill="#003f98"/>
  </g>
  <g transform="matrix(3.2416 0 0 3.2416 728.86 460.25)">
   <path d="m0 0-0.946 0.839c-0.077 0.068-0.387 0.329-0.387 0.329l5e-3 5e-3s0.343-0.186 0.431-0.226l1.21-0.594 0.341 0.385-0.734 1.137c-0.05 0.081-0.273 0.397-0.273 0.397l5e-3 6e-3s0.293-0.275 0.369-0.343l0.949-0.841 0.379 0.427-1.885 1.671-0.561-0.632 0.619-0.964c0.091-0.137 0.337-0.486 0.337-0.486l-5e-3 -6e-3s-0.376 0.203-0.525 0.273l-1.029 0.503-0.556-0.628 1.884-1.671z" fill="#003f98"/>
  </g>
  <g transform="matrix(3.2416 0 0 3.2416 742.32 471.91)">
   <path d="m0 0-0.571 1.025c-0.043 0.077-0.207 0.356-0.207 0.356l7e-3 4e-3s0.251-0.17 0.321-0.208l1.253-0.729 0.548 0.305-1.226 2.2-0.532-0.297 0.581-1.043c0.043-0.077 0.196-0.338 0.196-0.338l-6e-3 -4e-3s-0.239 0.154-0.307 0.196l-1.268 0.742-0.547-0.306 1.226-2.2z" fill="#003f98"/>
  </g>
  <g transform="matrix(3.2416 0 0 3.2416 749.38 480.63)">
   <path d="m0 0c-4e-3 0.137-0.022 0.37-0.022 0.37l6e-3 2e-3s0.129-0.194 0.212-0.303l0.382-0.512-0.559-0.196zm0.032-1.11 0.831 0.293 0.291-0.379 0.618 0.218-1.695 2.074-0.605-0.213-0.017-2.678 0.592 0.209z" fill="#003f98"/>
  </g>
  <g transform="matrix(3.2416 0 0 3.2416 755.79 484.1)">
   <path d="m0 0 0.395-1.951 0.611 0.124-0.395 1.951 0.725 0.147-0.105 0.517-2.054-0.416 0.105-0.518z" fill="#003f98"/>
  </g>
  <g transform="matrix(3.2416 0 0 3.2416 764.33 478.85)">
   <path d="m0 0-0.235 2.508-0.621-0.058 0.235-2.508z" fill="#003f98"/>
  </g>
  <g transform="matrix(3.2416 0 0 3.2416 769.95 485.65)">
   <path d="m0 0c0.408-0.016 0.596-0.376 0.578-0.833-0.018-0.458-0.232-0.799-0.641-0.784-0.404 0.016-0.599 0.373-0.581 0.831 0.017 0.458 0.238 0.802 0.644 0.786m-0.086-2.124c0.765-0.029 1.268 0.512 1.297 1.266s-0.431 1.332-1.195 1.362c-0.761 0.029-1.265-0.512-1.294-1.266-0.029-0.753 0.432-1.332 1.192-1.362" fill="#003f98"/>
  </g>
  <g transform="matrix(3.2416 0 0 3.2416 777.69 481.96)">
   <path d="m0 0c0.018 0.086 0.077 0.405 0.077 0.405l7e-3 -1e-3s0.079-0.294 0.107-0.368l0.47-1.372 0.614-0.128 0.514 2.467-0.597 0.124-0.243-1.17c-0.018-0.086-0.073-0.384-0.073-0.384l-7e-3 1e-3s-0.08 0.273-0.104 0.35l-0.474 1.39-0.614 0.128-0.513-2.466 0.597-0.125z" fill="#003f98"/>
  </g>
  <g transform="matrix(3.2416 0 0 3.2416 787.97 480.19)">
   <path d="m0 0c0.087 0.106 0.225 0.294 0.225 0.294l7e-3 -3e-3s-0.03-0.23-0.039-0.367l-0.046-0.637-0.551 0.217zm-1.003-1.229 0.301 0.37 0.82-0.323-0.029-0.477 0.609-0.241 0.078 2.677-0.597 0.235-1.765-2.012z" fill="#003f98"/>
  </g>
  <g transform="matrix(3.2416 0 0 3.2416 797.13 471.95)">
   <path d="m0 0-0.973 0.575 1.012 1.713-0.537 0.317-1.281-2.167 1.51-0.893z" fill="#003f98"/>
  </g>
  <g transform="matrix(3.2416 0 0 3.2416 808.6 463.3)">
   <path d="m0 0 1.17 1.137-0.435 0.447-1.177-1.144c-0.177-0.172-0.399-0.196-0.601 0.011-0.213 0.22-0.183 0.426-6e-3 0.598l1.185 1.152-0.435 0.447-1.169-1.137c-0.423-0.41-0.424-0.903 0.067-1.409 0.489-0.503 0.984-0.507 1.401-0.102" fill="#003f98"/>
  </g>
  <g transform="matrix(3.2416 0 0 3.2416 808.66 458.47)">
   <path d="m0 0 0.965 0.667c0.073 0.05 0.336 0.24 0.336 0.24l4e-3 -6e-3s-0.145-0.267-0.176-0.34l-0.606-1.318 0.356-0.516 2.074 1.431-0.347 0.502-0.983-0.679c-0.072-0.05-0.317-0.228-0.317-0.228l-5e-3 6e-3s0.131 0.252 0.166 0.325l0.617 1.333-0.356 0.517-2.075-1.432z" fill="#003f98"/>
  </g>
  <g transform="matrix(3.2416 0 0 3.2416 813.18 451.04)">
   <path d="m0 0 2.232 1.166-0.289 0.552-2.232-1.166z" fill="#003f98"/>
  </g>
  <g transform="matrix(3.2416 0 0 3.2416 815.42 445.82)">
   <path d="m0 0 2.649 0.136-0.227 0.588-1.374-0.111c-0.193-0.018-0.456-0.052-0.456-0.052l-2e-3 7e-3s0.215 0.147 0.371 0.268l1.091 0.844-0.234 0.605-2.05-1.683z" fill="#003f98"/>
  </g>
  <g transform="matrix(3.2416 0 0 3.2416 817.88 436.61)">
   <path d="m0 0 0.516 0.116-0.287 1.275 0.526 0.118 0.242-1.075 0.474 0.106-0.242 1.076 0.44 0.099 0.282-1.255 0.502 0.113-0.419 1.863-2.457-0.552z" fill="#003f98"/>
  </g>
  <g transform="matrix(3.2416 0 0 3.2416 824.77 433.62)">
   <path d="m0 0 0.03-0.481c0.016-0.24-0.106-0.368-0.289-0.379-0.19-0.012-0.314 0.107-0.33 0.352l-0.03 0.468zm-2.021-0.13 0.941 0.061 0.025-0.377c0.017-0.267-0.102-0.394-0.332-0.441-0.247-0.055-0.543-0.063-0.577-0.132l0.039-0.605 0.031 2e-3c0.027 0.09 0.345 0.075 0.672 0.149 0.247 0.051 0.377 0.173 0.437 0.395l0.011 1e-3c0.12-0.285 0.344-0.415 0.636-0.397 0.467 0.03 0.699 0.427 0.667 0.926l-0.077 1.202-2.513-0.162z" fill="#003f98"/>
  </g>
  <g transform="matrix(3.2416 0 0 3.2416 824.26 426.66)">
   <path d="m0 0c-0.526 0.049-0.703-0.398-0.845-0.823-0.116-0.336-0.177-0.535-0.377-0.517-0.19 0.018-0.245 0.225-0.225 0.428 0.027 0.298 0.148 0.454 0.403 0.458l0.059 0.624c-0.556 0.038-0.892-0.373-0.954-1.039-0.054-0.579 0.195-1.055 0.721-1.104 0.537-0.051 0.72 0.357 0.872 0.813 0.12 0.368 0.18 0.556 0.355 0.54 0.14-0.013 0.222-0.166 0.202-0.383-0.023-0.232-0.145-0.369-0.34-0.375l-0.057-0.607c0.529-0.025 0.814 0.373 0.865 0.917 0.052 0.561-0.142 1.018-0.679 1.068" fill="#003f98"/>
  </g>
  <g transform="matrix(3.2416 0 0 3.2416 817.03 416.93)">
   <path d="m0 0 2.461-0.536 0.133 0.609-2.461 0.536z" fill="#003f98"/>
  </g>
  <g transform="matrix(3.2416 0 0 3.2416 822.29 411.75)">
   <path d="m0 0-1.889 0.627-0.196-0.592 1.888-0.627-0.232-0.702 0.501-0.166 0.661 1.989-0.502 0.166z" fill="#003f98"/>
  </g>
  <g transform="matrix(3.2416 0 0 3.2416 813.73 407.46)">
   <path d="m0 0-0.275-0.56 0.835-0.409 1.051-1.464 0.29 0.591-0.444 0.574c-0.117 0.152-0.268 0.325-0.268 0.325l3e-3 6e-3s0.225-0.02 0.417-0.021l0.727 4e-3 0.3 0.611-1.801-0.066z" fill="#003f98"/>
  </g>
  <g transform="matrix(3.2416 0 0 3.2416 768.1 365.97)">
   <path d="m0 0c-10.666 0-19.343 8.677-19.343 19.343s8.677 19.343 19.343 19.343 19.343-8.677 19.343-19.343-8.677-19.343-19.343-19.343m0 38.951c-10.812 0-19.608-8.796-19.608-19.608 0-10.811 8.796-19.607 19.608-19.607s19.608 8.796 19.608 19.607c0 10.812-8.796 19.608-19.608 19.608" fill="#003f98"/>
  </g>
  <g transform="matrix(3.2416 0 0 3.2416 772.28 396.83)">
   <path d="m0 0 0.151-0.178c1.159-0.387 1.351-0.686 1.351-0.686l0.891 0.458c-0.608 0.299-1.285 0.518-1.99 0.697z" fill="#003f98"/>
  </g>
  <g transform="matrix(3.2416 0 0 3.2416 762.6 397.76)">
   <path d="m0 0c-0.705-0.175-1.379-0.398-1.988-0.694l0.891-0.458s0.192 0.297 1.349 0.683l0.151 0.181z" fill="#003f98"/>
  </g>
 </g>
</svg>
