<?xml version="1.0" encoding="utf-8"?>
<!-- Generator: Adobe Illustrator 25.0.0, SVG Export Plug-In . SVG Version: 6.00 Build 0)  -->
<svg version="1.1" id="图层_1" xmlns="http://www.w3.org/2000/svg" xmlns:xlink="http://www.w3.org/1999/xlink" x="0px" y="0px"
	 viewBox="0 0 1049.4 189.44" style="enable-background:new 0 0 1049.4 189.44;" xml:space="preserve">
<style type="text/css">
	.st0{fill:#ffffff;}
</style>
<path class="st0" d="M45.33,141.91c0,0-0.52-0.41-0.78-0.45c-0.3-0.08-0.34,0.11-0.61,0.14c-0.29-0.03-0.47,0.19-0.57,0.41
	c-0.25,0.59,0.37,1.31,1.39,1.79C46,144.39,46.31,142.59,45.33,141.91z M65.49,157.41c-0.2-0.37,0.5-1.25-0.54-1.25
	c-0.14,0-0.74-0.08-0.92,0.02c-0.18,0.1-0.49,0.79-0.56,0.76c-0.5-0.19-1.3-0.57-2.45-0.86c-1.09-0.27-1.7-1.06-2.57-0.79
	c-0.37,0.11-0.66,0.14-0.99,0.36c-0.56,0.39-0.43,1.24,0.21,1.63c0.28,0.17,2.17-0.12,2.9,0.04c0.86,0.19,1.73,0.43,1.81,0.79
	c0.04,0.18-0.17,0.48-0.52,0.72c-1.26,0.9-1.91,0.46-2.6,0.47c-0.15,0-0.1-0.29,0.14-0.42c0.33-0.18,0.95-0.24,0.97-0.36
	c0.03-0.15-0.97-0.5-1.89-0.56c-0.36-0.02-0.64,0.05-0.94,0.11c-0.9,0.18-2.21,1.64-2.73,3.21c-0.43,1.3-1.02,2.29-0.35,2.86
	c0.8,0.68,1.25-0.2,1.82-1.65c0.32-0.83,1.09-1.28,1.51-1.51c0.17-0.09,0.77-0.93,1.85-0.21c0.05,0.03-0.03,0.32-0.36,0.31
	c-0.42-0.01-0.97,0.23-1.08,0.47c-0.13,0.3,0.03,0.69-0.02,1.1c-0.05,0.41-0.85,0.32-0.3,1.14c0.04,0.06-0.48,0.26-0.67,0.14
	c-0.09-0.06-0.04-0.24-0.14-0.28c-0.3-0.12-0.79,0.58-0.87,0.65c-0.44,0.4-1.1,0.55-1.8,0.73c-1.18,0.31-2.79,0.87-3.7,1.26
	c-1.07,0.47-0.9,1.27,0.26,1.81c0.52,0.24,1.97-0.38,2.68-0.65c0.51-0.19,1.58-0.56,2.04-0.43c0.5,0.13-1.61,2.59-1.57,2.97
	c0.07,0.66,1.02,1.39,1.46,0.59c0.2-0.37,0.38-0.86,0.66-1.42c0.22-0.44,0.6-0.89,0.82-1.27c0.32-0.55,0.62-1.09,0.78-1.03
	c0.35,0.12,0.29,0.7,0.6,1.51c0.73,1.89,2.77,3.95,4.5,4.8c1.04,0.5,1.85,0.05,1.41-1.31c-0.1-0.31-0.18-0.52-0.24-0.67
	c-0.21-0.51-0.21,0.04-1.2-0.69c-0.28-0.21-1.42-1.41-2.04-1.94c-0.3-0.26-0.76-0.93-1.04-1.57c-0.18-0.42-0.69-0.63,0.19-1.05
	c0.53-0.25,0.16-0.87,0.61-0.95c0.38-0.07,1.1-0.04,1.59-0.15c0.59-0.13,1.34-0.56,2.26-0.89c0.86-0.31,2.08-1.98,1.6-2.66
	c-0.33-0.47-0.99-0.68-1.82-1.19c-0.42-0.26-1.34,0.26-0.88-0.39c0.31-0.45,0.36-0.66,0.85-0.68c0.76-0.03,2.99,1.19,3.28-0.09
	C67.76,157.87,65.93,158.19,65.49,157.41z M63.69,162.07c-0.1,0.78-1.23,1.32-2.03,1.51c-0.3,0.07-0.65,0.33-0.83,0.38
	c-0.48,0.11-0.43-0.12,0.03-0.59c0.26-0.26,0.82-0.84,0.46-1.26c-0.35-0.4,0.25-1.42,0.58-1.12
	C62.52,161.54,63.71,161.87,63.69,162.07z M88.14,25.22l-0.32-5.64l2.17-0.12l3.97,5.43l2.99-0.17l-4.21-5.74
	c0.8-0.32,1.41-0.84,1.83-1.55c0.42-0.71,0.61-1.53,0.55-2.46c-0.07-1.22-0.51-2.19-1.33-2.9c-0.81-0.73-1.88-1.05-3.22-0.98
	l-5.81,0.33l0.78,13.95L88.14,25.22z M90.58,13.61c0.59-0.03,1.05,0.09,1.4,0.37c0.35,0.28,0.53,0.69,0.56,1.22
	c0.03,0.54-0.11,0.97-0.42,1.28c-0.31,0.31-0.76,0.48-1.35,0.51l-3.08,0.17l-0.19-3.39L90.58,13.61z M46.66,144.89
	c-0.61,0.15-0.04,0.78,0.09,0.91c0.13,0.12,0.28,0.09,0.4,0.18c0.47,0.34,0.78,0.93,1.09,0.97c1.21,0.17,1.51-0.73,0.72-1.51
	C48.49,144.97,47.6,144.66,46.66,144.89z M90.2,167.89c-0.91-0.41-2.42,0.46-2.81-0.07c-0.16-0.22,0.22-0.65,0.28-0.96
	c0.1-0.5-0.19-0.95-0.59-1.05c-0.26-0.07-0.25-0.4,0.05-0.43c0.44-0.04,0.65,0.01,1.1,0.06c0.84,0.08,1.33,0.04,1.85-0.71
	c0.16-0.23,0.09-0.73-0.25-0.98c-0.44-0.33-1.83-0.38-3.28-0.35c-1.57,0.03-3.23-0.02-3.56,0.54c-0.16,0.28-0.49,0.59-0.67,0.95
	c-0.26,0.51-0.41,0.98-0.71,1.19c-0.93,0.64-1.2,1.97-1.38,1.52c-0.12-0.31-0.58-0.29-0.85-0.35c-0.13-0.03-0.11-0.38,0.04-0.51
	c0.15-0.13,0.17-0.01,0.37-0.09c0.57-0.23,1.27-0.84,1.39-1.27c0.29-1.08,0.73-1.9,0.25-2.53c-0.41-0.54-1.13-0.78-1.87-0.83
	c-0.39-0.03-1.02,0.03-1.43,0.2c-0.7,0.29-0.94,1.16-1.36,2.2c-0.17,0.43-0.57,0.96-0.76,1.63c-0.23,0.85-0.53,2.03-0.67,2.64
	c-0.31,1.37-0.37,2.34-0.05,3.31c0.17,0.51,0,1.22,0.72,1.27c0.6,0.03,0.32-2.18,0.51-3.19c0.08-0.41,0.18-0.81,0.5-0.98
	c0.1-0.05,0.2-0.25,0.38-0.16c0.18,0.09-0.13,0.69,0.17,0.69c0.52,0.01,0.8-0.63,1.21-0.39c0.32,0.19-0.16,0.74-0.57,1.1
	c-0.82,0.69-1.2,1.98-0.08,2.29c0.48,0.13,1.05-0.52,1.29-1.18c0.19-0.51,0.14-0.85,0.32-1.25c0.15-0.32,0.43-0.38,0.65-0.77
	c0.21-0.37,0.37-0.79,0.68-1.23c0.36-0.5,0.88-1.01,1.21-1.41c0.38-0.45,0.71-0.89,1.13-1.15c0.42-0.26,1.03-0.42,1.4-0.17
	c0.26,0.18-0.83,0.81-1.5,1.43c-0.93,0.86-1.47,1.95-1.68,3.36c-0.08,0.57-0.39,2.14-0.02,2.48c0.27,0.25,0.51,0.34,0.87,0.31
	c0.88-0.09,0.57-1.74,1.08-2.44c0.11-0.15,0.21-0.43,0.47-0.29c0.25,0.14-0.45,3.44-0.89,5.38c-0.31,1.33-0.36,2.43-0.45,3.48
	c-0.04,0.44-0.06,0.86,0.59,0.98c0.91,0.18,1.26-1.77,1.47-2.98c0.18-1,0.52-2.49,0.95-3c0.48-0.56,1.61-0.93,2.31-1.08
	c0.71-0.15,1.31-1,1.71-1.33c0.55-0.44,1.04-1.96,1.15-2.5C91.03,168.53,90.79,168.16,90.2,167.89z M78.79,167.05
	c-0.93,0.27-1.17,0.97-1.32,1.36c-0.07,0.18-0.3,0.12-0.33-0.06c-0.07-0.43-0.06-1.18,0.3-1.74c0.48-0.75,0.67-1.36,1.05-1.84
	c0.48-0.61,1.11-0.86,1.25-0.7c0.27,0.31-0.38,0.67-0.4,0.98c-0.07,0.87-0.22,0.87-0.47,1.28C78.7,166.62,79.27,166.91,78.79,167.05
	z M84.76,167.8c-0.37,0.57-0.84,0.81-1.09,0.54c-0.19-0.2,0.76-1.06,1.18-1.6c0.53-0.68,0.64-0.57,0.82-0.42
	C85.87,166.49,85.26,167.02,84.76,167.8z M87.96,171.34c-0.53,0.34-0.83,0.49-1.17,0.44c-0.18-0.03-0.54-0.45-0.44-0.65
	c0.25-0.51,0.08-0.71,0.21-0.99c0.2-0.46,0.88-0.29,1.3-0.29c0.57,0,0.92-0.21,0.97,0.2C88.83,170.04,88.66,170.89,87.96,171.34z
	 M48.14,147.46c-0.88-0.46-1.53-0.81-1.72-1.35c-0.01-0.04-0.19-0.6-0.38-0.68c-0.19-0.08-0.25,0.24-0.58-0.02
	c-0.33-0.26-1.45-1.42-2.41-1.78c-0.4-0.15-0.89-0.98-1.39-1.04c-0.48-0.06-1.73,0.35-1.25,1.39c0.21,0.46,1.52,0.33,2.51,1.12
	c0.48,0.38,1,0.14,1.16,0.82c0.07,0.27-0.07,0.24-0.22,0.25c-0.08,0.01-1.85-0.82-3.45-1.14c-1.12-0.23-2.11-0.41-2.49,0.62
	c-0.08,0.22,0.14,1.06-0.51,0.85c-0.62-0.2-1.63-0.32-2.01-0.01c-0.14,0.12-0.6,0.6-0.71,0.74c-0.48,0.66,0.39,1.23,0.14,1.44
	c-0.11,0.09-0.74-0.34-1.31-0.45c-0.39-0.07-0.81,0.34-0.97,0.55c-0.24,0.33,0.01,0.4,0.61,0.96c0.95,0.89,1.37,1.04,2.84,1.73
	c0.3,0.14,0.87,0.5,1.07,0.82c0.22,0.35-0.25,0.65-0.69,0.43c-0.9-0.45-4.72-2.3-4.21-0.15c0.12,0.52,0.89,1.2,1.17,1.34
	c0.31,0.15,1.25,0.26,1.32,0.74c0.07,0.54-1.39,1.01-1.12,1.89c0.18,0.58,0.5,1.01,0.88,0.82c0.6-0.31,1.68-1.64,2.01-1.61
	c0.96,0.07,2.38,2.32,3.36,1.76c1.15-0.65,1-1.51,0.64-1.75c-0.65-0.43-1.75-0.97-2.24-1.47c-0.19-0.2,0.18-0.48,0.49-0.66
	c0.75-0.44,1.87,1.31,2.99,2.25c0.83,0.7,0.65,0.78,1.15,1.27c0.7,0.7,1.83,0.49,2.18-0.73c0.13-0.46-2.08-2.13-2.93-2.7
	c-1.07-0.71-1.69-0.89-1.71-1.44c-0.02-0.61,0.73-0.18,0.74-0.17c0.95,0.86,5.34,1.3,5.12-1.5c-0.08-0.95,0.72-1.05-0.19-1.73
	c-0.08-0.06-1.09-0.6-1.15-0.88c-0.06-0.27,0.37-0.73,0.83-0.41c0.64,0.43,1.57,1.32,1.71,1.38
	C48.74,149.59,49.7,148.27,48.14,147.46z M42.82,146.83c0.18,0.3-0.14,0.52-0.81,0.45c-0.99-0.1-2.42-0.25-2.28-0.83
	C39.87,145.84,42.56,146.38,42.82,146.83z M35.99,148.06c-0.11-0.75,1.39-0.59,1.63-0.36C38.05,148.12,36.11,148.87,35.99,148.06z
	 M40.29,149.47c-0.73,0.55-1.01,1.27-1.28,1.24c-0.41-0.04-0.74-0.38-1.11-0.54c-0.66-0.28-1.26-0.43-1.33-0.59
	c-0.14-0.34,0.31-0.07,0.64-0.31c1.14-0.86,1.64-1.39,2.13-1.29c0.51,0.1,0.73,0.32,1.03,0.36c0.6,0.09,0.99-0.03,0.96,0.09
	C41.32,148.53,40.87,149.04,40.29,149.47z M43.98,151.02c0.21,0.14-0.07,0.33-0.46,0.44c-0.29,0.09-2.13,0.26-2.19-0.24
	c-0.04-0.36,0.75-1.33,1.64-1.65c0.27-0.19,0.44-0.71,0.7-0.82c0.42-0.19,1.11,0.42,1.02,0.54c-0.08,0.13-0.71,0.3-0.84,0.7
	C43.73,150.4,43.63,150.77,43.98,151.02z M29.93,68.56l-5.58-2.53l2.34-5.17l5.58,2.53l1.06-2.34l-12.73-5.76l-1.06,2.34l4.76,2.16
	l-2.34,5.17l-4.76-2.16l-1.07,2.36l12.73,5.76L29.93,68.56z M19.02,80.85c2.04,0.51,3.89,0.31,5.54-0.6
	c1.63-0.92,2.69-2.33,3.16-4.22c0.33-1.32,0.3-2.56-0.11-3.71l-2.81-0.71c0.56,1.09,0.67,2.31,0.34,3.64
	c-0.3,1.21-0.97,2.1-1.99,2.67c-1.04,0.58-2.2,0.7-3.49,0.38c-1.29-0.33-2.25-0.98-2.88-1.95c-0.64-1-0.81-2.08-0.52-3.23
	c0.3-1.2,0.92-2.18,1.85-2.94l-2.81-0.71c-0.81,0.82-1.37,1.82-1.66,3.01c-0.48,1.9-0.22,3.65,0.78,5.24
	C15.42,79.28,16.95,80.33,19.02,80.85z M36.25,56.58l-11.83-7.43l-1.37,2.18l11.83,7.43L36.25,56.58z M39.26,52.24l-6.88-5.77
	l10.99,0.87l1.37-1.64l-10.71-8.97l-1.62,1.93l6.85,5.74l-10.93-0.88l-1.42,1.69l10.71,8.97L39.26,52.24z M72.71,26.4
	c1.54,1.07,3.22,1.37,5.04,0.92c1.81-0.45,3.15-1.51,4-3.18c0.86-1.68,1.05-3.5,0.56-5.45c-0.49-1.96-1.51-3.48-3.06-4.54
	c-1.54-1.07-3.21-1.38-5.03-0.92c-1.82,0.46-3.16,1.52-4.02,3.19c-0.86,1.64-1.04,3.46-0.54,5.44
	C70.16,23.82,71.17,25.33,72.71,26.4z M72.5,17.77c0.51-1.02,1.3-1.66,2.39-1.93c1.07-0.27,2.07-0.07,3,0.59
	c0.93,0.66,1.56,1.63,1.88,2.9c0.32,1.28,0.23,2.43-0.28,3.45c-0.51,1.02-1.3,1.66-2.37,1.93c-1.08,0.27-2.09,0.08-3.02-0.58
	c-0.92-0.65-1.53-1.62-1.86-2.91C71.91,19.92,71.99,18.78,72.5,17.77z M13.52,93.94l11.39,0.3l0.07-2.59l-11.39-0.3l0.11-3.99
	l-2.57-0.07l-0.28,10.54l2.57,0.07L13.52,93.94z M17.72,108.58c0.31-0.21,0.66-0.65,1.06-1.32c0.1-0.18,0.21-0.46,0.32-0.85
	c0.13-0.45,0.21-0.74,0.23-0.88l0.22-0.97l0.22-1.04l0.11-0.45c0.08-0.31,0.17-0.56,0.27-0.76c0.17-0.46,0.53-0.72,1.07-0.78
	c0.5-0.06,0.92,0.12,1.26,0.53c0.34,0.42,0.55,0.98,0.64,1.68c0.1,0.84,0.03,1.72-0.22,2.63c-0.26,0.9-0.62,1.64-1.05,2.23
	l2.97-0.36c0.83-1.4,1.14-3.05,0.91-4.92c-0.17-1.43-0.7-2.56-1.58-3.41c-0.88-0.85-1.99-1.19-3.32-1.02
	c-1.28,0.16-2.19,0.69-2.74,1.6c-0.51,0.85-0.89,1.81-1.12,2.89c-0.08,0.36-0.17,0.83-0.27,1.41c-0.07,0.43-0.17,0.79-0.29,1.07
	c-0.18,0.47-0.47,0.73-0.87,0.78c-0.91,0.11-1.45-0.54-1.63-1.95c-0.17-1.43,0.1-2.83,0.81-4.21l-2.77,0.34
	c-0.61,1.35-0.83,2.76-0.65,4.22c0.18,1.45,0.67,2.55,1.49,3.31c0.8,0.76,1.82,1.06,3.05,0.91
	C16.49,109.17,17.12,108.95,17.72,108.58z M62.2,32.9l-3.84-8.12l9.62,5.39l1.93-0.91l-5.97-12.63l-2.27,1.07l3.82,8.08l-9.55-5.37
	l-2,0.94l5.97,12.63L62.2,32.9z M30.06,121.54l-2.3,1.16l3.08,6.11l-3.21,1.62l-2.41-4.78l-2.26,1.14l2.41,4.78l-2.41,1.21
	l-2.99-5.94l-2.3,1.16l4.15,8.25l12.48-6.28L30.06,121.54z M28.98,118.56l-3.45-0.26L24,113.21l2.74-2.12l-0.79-2.63l-11.91,9.2
	l0.71,2.37l15.01,1.12L28.98,118.56z M17.85,117.84l4.12-3.15l1.06,3.53L17.85,117.84z M47.28,43.39l-1.1-3.28l4.1-3.38l3.01,1.7
	l2.12-1.75l-13.1-7.4l-1.91,1.58l4.79,14.26L47.28,43.39z M48.13,35.42l-2.84,2.34l-1.66-4.92L48.13,35.42z M98.49,95.9l18.69,14.02
	v-5.9L98.49,89.99V95.9z M163.58,82.52l2.5-0.63l-1.67-6.64l3.48-0.88l1.31,5.19l2.46-0.62l-1.31-5.19l2.61-0.66l1.63,6.44l2.5-0.63
	l-2.26-8.95l-13.54,3.42L163.58,82.52z M159.14,68.15l14.99-0.74l-1.11-2.57l-10.69,0.62l7.77-7.36l-1.14-2.62l-10.79,10.43
	L159.14,68.15z M155.42,60.33l12.02-7.12L166.13,51l-12.02,7.12L155.42,60.33z M174.82,97.04c-0.66-0.06-1.32,0.03-1.99,0.26
	c-0.35,0.14-0.79,0.5-1.32,1.07c-0.13,0.16-0.3,0.41-0.49,0.77c-0.22,0.41-0.36,0.68-0.41,0.81l-0.42,0.9l-0.43,0.97l-0.2,0.42
	c-0.15,0.29-0.29,0.52-0.42,0.68c-0.26,0.41-0.67,0.59-1.21,0.54c-0.5-0.04-0.88-0.31-1.12-0.78c-0.25-0.48-0.34-1.07-0.28-1.77
	c0.07-0.85,0.33-1.69,0.76-2.53c0.45-0.83,0.94-1.48,1.49-1.96l-2.98-0.26c-1.11,1.2-1.74,2.74-1.91,4.63
	c-0.13,1.43,0.15,2.65,0.84,3.66c0.69,1.01,1.7,1.57,3.04,1.69c1.29,0.11,2.29-0.22,3.01-1c0.68-0.72,1.24-1.59,1.69-2.59
	c0.15-0.34,0.34-0.78,0.56-1.32c0.16-0.41,0.33-0.73,0.51-0.98c0.28-0.42,0.61-0.61,1.01-0.58c0.91,0.08,1.31,0.83,1.18,2.25
	c-0.13,1.43-0.68,2.75-1.67,3.95l2.78,0.24c0.88-1.2,1.38-2.53,1.51-4c0.13-1.45-0.13-2.64-0.77-3.55
	C176.99,97.66,176.06,97.15,174.82,97.04z M164.05,86.67l5.63-0.44l0.17,2.17l-5.35,4.09l0.23,2.99l5.65-4.33
	c0.34,0.79,0.87,1.39,1.59,1.8c0.72,0.41,1.54,0.57,2.47,0.5c1.22-0.09,2.18-0.56,2.87-1.39c0.71-0.82,1.01-1.9,0.91-3.24l-0.45-5.8
	l-13.93,1.08L164.05,86.67z M175.47,85.78l0.24,3.08c0.04,0.58-0.07,1.05-0.34,1.4c-0.27,0.35-0.68,0.55-1.21,0.59
	c-0.54,0.04-0.97-0.09-1.29-0.4c-0.32-0.31-0.5-0.75-0.54-1.34l-0.24-3.08L175.47,85.78z M158.22,40.07l-1.37-1.73l-10.94,8.69
	l1.58,1.98l7.03-5.59l-3.06,10.59l1.33,1.67L163.72,47l-1.56-1.97l-7,5.56L158.22,40.07z M113.38,27.38l2.21-2.66l5.04,1.71
	l0.14,3.46l2.6,0.88l-0.6-15.04l-2.35-0.8l-9.61,11.58L113.38,27.38z M120.43,18.72l0.18,5.18l-3.49-1.18L120.43,18.72z M94.72,0
	C42.41,0.09,0.09,42.41,0,94.72c0.09,52.32,42.41,94.62,94.72,94.72c52.31-0.1,94.62-42.4,94.72-94.72
	C189.34,42.41,147.03,0.09,94.72,0z M94.72,185.8c-50.3-0.09-90.99-40.77-91.08-91.08C3.74,44.42,44.43,3.73,94.72,3.64
	c50.3,0.09,90.98,40.78,91.08,91.08C185.7,145.03,145.02,185.7,94.72,185.8z M133.12,33.23l-5.62-3.01l5.38-10.05l-2.28-1.22
	L124,31.27l7.9,4.23L133.12,33.23z M144.2,43.54c1.48-0.15,2.85-0.95,4.12-2.42l5.31-6.12l-1.95-1.7l-5.38,6.19
	c-0.71,0.81-1.44,1.27-2.2,1.38c-0.76,0.1-1.47-0.13-2.12-0.69c-0.64-0.56-0.97-1.22-0.97-1.99c0-0.77,0.35-1.56,1.05-2.38
	l5.38-6.19l-1.94-1.68l-5.31,6.12c-1.27,1.47-1.88,2.94-1.83,4.41c0.05,1.47,0.67,2.72,1.86,3.75
	C141.4,43.26,142.73,43.7,144.2,43.54z M101.65,15.62l2.33,4.84l1.42,0.19l3.46-4.07l-1.26,9.48l2.53,0.34l1.84-13.85l-2.53-0.34
	l-4.38,5.26l-2.85-6.22l-2.55-0.34l-1.84,13.85l2.56,0.34L101.65,15.62z M115.26,171.57c-0.61,0.02-0.68,0.77-0.74,1.37l-0.06,0.46
	c-0.18,0.9-1.74,1.83-3.12,2.25l-0.37,0.12c-0.66,0.22-1.19,0.39-1.94,0.02c-0.33-0.16-0.6-0.83-0.6-1.5c0-0.53,0.17-0.91,0.47-1.06
	c0.13-0.06,0.16-0.02,0.22,0.06c0.13,0.18,0.3,0.29,1-0.15c0.06-0.04,0.09-0.2,0.14-0.5c0.04-0.25,0.09-0.53,0.17-0.7l0.27-0.5
	l0.18-0.35c0.13-0.57-0.03-1.12-0.43-1.51c-0.45-0.43-1.13-0.58-1.82-0.39c-1.01,0.28-1.97,1-2.82,1.63
	c-0.86,0.65-1.61,1.21-2.24,1.21c-0.22,0-0.39-0.11-0.53-0.21c-0.14-0.1-0.26-0.19-0.41-0.14c-0.21,0.06-0.42,0.38-0.71,1.08
	c-0.06,0.14-0.08,0.41-0.11,0.71c-0.04,0.49-0.09,1.11-0.33,1.28c-0.07,0.05-0.14,0.06-0.23,0.03c-0.09-0.02-0.16-0.08-0.2-0.17
	c-0.17-0.38,0.24-1.19,0.24-1.2c0-0.01,0.12-0.71,0.12-0.71c0.02-0.22,0.04-0.42,0.1-0.59c0.37-0.97,1.26-1.17,2.19-1.39
	c0.48-0.11,1.19-0.71,1.31-0.87c0.23-0.32-0.11-0.68-0.38-0.96l-0.05-0.05c-0.45-0.47-0.9-0.59-1.36-0.35
	c-0.39,0.2-0.87,0.7-1.42,1.28c-0.42,0.44-0.85,0.9-1.3,1.28l-0.16,0.13c-0.93,0.76-1.99,1.69-1.94,2.16
	c0.01,0.09,0.06,0.16,0.15,0.21c0.38,0.19,0.75-0.21,1.08-0.58c0.25-0.27,0.49-0.54,0.65-0.42c0.06,0.04,0.09,0.08,0.09,0.14
	c0.02,0.11-0.05,0.25-0.2,0.45l-0.07,0.09c-0.18,0.23-0.35,0.45-0.44,1.1c-0.12,0.91,0.07,1.12,0.37,1.46l0.31,0.38
	c0.14,0.19,0.15,0.5,0.15,0.7l0.03,0.23c0.21,0.24,0.38,0.23,0.5,0.21c0.1-0.01,0.15-0.02,0.22,0.09c0.15,0.25,0.07,0.87-0.06,0.94
	c-0.01,0-0.03,0.02-0.08-0.05c-0.11-0.18-0.44-0.12-0.56-0.1c-0.34,0.05-0.44,0.33-0.54,0.57l-0.07,0.18
	c-0.42,0.88,0.04,1.33,0.54,1.65c0.3,0.19,0.56,0.36,1.11,0.08c0.47-0.24,0.55-1.02,0.63-1.85l0.03-0.27
	c0.08-0.77,0.21-1.43,0.36-1.81c0.18-0.46,0.14-0.81,0.11-1.1l-0.01-0.41c0.1-0.51,0.39-0.7,0.75-0.95c0.19-0.13,0.4-0.28,0.62-0.49
	l0.49-0.5c0.59-0.62,1.06-1.11,1.88-1.55c0.27-0.15,0.55-0.38,0.82-0.6c0.37-0.31,0.75-0.62,1.13-0.75l0.08-0.03
	c0.34-0.11,0.97-0.32,1.19-0.1c0.07,0.07,0.27,0.62,0.16,0.88c-0.04,0.09-0.11,0.14-0.23,0.13c-0.19-0.01-0.21-0.12-0.24-0.29
	c-0.01-0.12-0.03-0.24-0.13-0.3c-0.19-0.11-0.79-0.02-0.8-0.01c-0.23,0.04-0.4,0.3-0.61,0.61c-0.15,0.22-0.31,0.47-0.52,0.66
	c-0.77,0.71-0.94,1.99-0.7,2.9c0.27,1.04,0.82,1.43,1.15,1.67l0.2,0.16c0.78,0.83,1.86,1.47,4.47,0.58
	c1.72-0.58,3.05-1.57,3.65-2.72c0.28-0.53,0.24-1.89-0.18-2.56C115.72,171.7,115.51,171.57,115.26,171.57z M162.7,110.4l13.67,2.87
	l0.53-2.51l-13.67-2.87L162.7,110.4z M132.41,160.35c0.45-0.78,0.54-1.69-0.32-1.84c-0.32-0.05-0.45-0.11-0.99,0.19
	c-0.92,0.51-0.56,0.94-1.17,1.3c-0.27,0.16-0.52-1.01-0.06-1.41c0.98-0.83,1.95-2.08,1.62-3.16c-0.27-0.89-0.75-1.62-1.93-0.58
	c-0.61,0.55-1.39,1.35-1.85,2.64c-0.58,1.66-0.92,3.51-1.73,4.62c-0.52,0.72-0.6,0.29-1.22,0.81c-1.72,1.48-2.66,2.84-1.83,3.72
	c0.57,0.61,1.39,0.44,1.83,0.31c0.54-0.16,0.86-0.6,0.96-0.3c0.09,0.3-0.37,1.59-0.6,2.62c-0.09,0.41-0.51,1.36-1.09,2.09
	c-0.98,1.22-1.26,1.64-0.97,2.03c0.35,0.47,0.98,0.42,1.51,0.06c0.59-0.4,2.66-3.48,3.32-6.9c0.12-0.61,0.54-1.31,0.72-1.81
	c0.24-0.67,0.09-1.11,0.47-1.57C130.21,161.81,131.83,161.34,132.41,160.35z M136.17,163.58c-0.8,0.46-1.79,0.57-2.39,0.69
	c-1.82,0.38-3.25-0.28-3.71-0.17c-0.46,0.1-0.26,1.24,0.09,1.79c1,1.57,4.11,1.09,5.95,0.57c0.71-0.2,1.48-0.9,2.1-1.27
	c0.66-0.4,1.31-0.51,1.27-0.96c-0.03-0.45,0.19-0.54-0.07-0.89C138.83,162.52,137.56,162.78,136.17,163.58z M72.26,109.92
	L90.95,95.9v-5.91l-18.69,14.03V109.92z M172.17,119.01l-10.82-3.58l-0.81,2.46l10.82,3.58l-1.25,3.79l2.44,0.81l3.31-10.01
	l-2.44-0.81L172.17,119.01z M102.96,165.21c0.21-0.48,0.53-0.77,0.81-1.04c0.17-0.16,0.31-0.3,0.41-0.45
	c0.16-0.27,0.16-0.56-0.02-0.8c-0.2-0.26-0.54-0.38-0.85-0.3c-0.56,0.15-1.38,1.17-1.76,1.78c-0.23,0.37-0.39,0.75-0.54,1.13
	c-0.17,0.41-0.32,0.8-0.56,1.15c-0.26,0.37-0.08,0.9,0.21,1.26c0.26,0.33,0.74,0.65,1.2,0.47c0.1-0.04,0.15-0.15,0.2-0.28
	c0.1-0.22,0.22-0.5,0.65-0.57c0.21-0.03,0.35,0.11,0.53,0.27c0.21,0.19,0.44,0.41,0.83,0.32c0.39-0.1,0.67-0.6,0.92-1.04l0.19-0.32
	c0.33-0.52,1.91-2.39,2.52-2.62c0.29-0.11,0.47-0.13,0.57-0.07c0.11,0.07,0.14,0.24,0.17,0.49l0.03,0.21
	c0.03,0.21,0.19,0.31,0.33,0.4c0.12,0.08,0.23,0.14,0.23,0.27c0,0.3-0.24,0.47-0.49,0.66c-0.25,0.18-0.5,0.37-0.53,0.69
	c-0.03,0.39,0.08,0.73,0.29,0.91c0.17,0.13,0.38,0.17,0.64,0.09c0.35-0.1,0.51-0.48,0.68-0.89c0.11-0.25,0.21-0.51,0.38-0.73
	c0.24-0.32,0.48-0.39,0.74-0.46c0.22-0.06,0.45-0.13,0.66-0.37c0.19-0.22,0.27-0.47,0.22-0.72c-0.06-0.3-0.3-0.56-0.68-0.74
	c-0.52-0.25-0.77,0.08-0.94,0.3c-0.06,0.08-0.11,0.15-0.15,0.15l-0.04-0.02c-0.29-0.3-0.14-0.64,0.03-1
	c0.08-0.17,0.16-0.35,0.2-0.53c0.04-0.24,0-0.43-0.13-0.54c-0.19-0.16-0.56-0.15-1.08,0.05c-0.22,0.08-0.4,0.28-0.59,0.49
	c-0.18,0.2-0.37,0.41-0.62,0.54c-0.66,0.33-1.1,0.72-1.46,1.03c-0.26,0.23-0.46,0.41-0.66,0.48c-0.14,0.05-0.4,0.07-0.68,0.1
	c-0.49,0.04-1.04,0.09-1.24,0.3l-0.31,0.46c-0.13,0.23-0.27,0.46-0.39,0.49l-0.08-0.02c-0.2-0.14-0.04-0.5,0.12-0.84L102.96,165.21z
	 M72.26,94.94l18.69-14.02v-5.91L72.26,89.03V94.94z M153.7,153.83c-0.37-0.52-0.21-0.58-0.41-0.76c-0.39-0.35-0.74-0.31-0.73-0.5
	c0.03-0.6,0.77-1.07,0.89-1.23c0.19-0.24,0.74-0.72,0.84-1.21c0.2-0.93-1.2-1.06-1.55-0.85c-0.3,0.18-1.18,1.93-1.83,2.67
	c-0.25,0.28-0.46,0.23-0.62,0.08c-0.54-0.49,1.11-2.07,0.54-2.59c-0.85-0.77-1.71-0.47-2.39,0.49c0,0-0.79,1.24-1.6,2.25
	c-0.68,0.85-1.03,2.47-0.27,2.77c0.8,0.32,1.45-0.43,1.61-1.3c0.05-0.3-0.04-0.33-0.1-0.59c-0.07-0.31,0.17-0.44,0.17-0.62
	c-0.01-0.53-0.06-0.83,0.34-0.8c0.15,0.02,0.5,0.63,0.57,0.81c0.14,0.33,0.29,0.9,0.14,1.3c-0.52,1.33-1.27,2.63-0.72,3.34
	c0.13,0.16,0.92,0.23,1.22,0.08c0.34-0.18,0.27-0.5,0.48-1.2c0.08-0.27,0.64-0.6,0.72-0.83c0.16-0.42,0.17-1.16,0.39-1.11
	c0.46,0.1,1.09,1.01,1.22,2.01c0.08,0.61,0,1.29-0.31,1.53c-0.11,0.09-0.64,0.8-0.22,1.3c0.48,0.57,1.03,0.48,1.32,0.32
	c1.26-0.68,0.94-2.06,0.85-3.5C154.21,154.93,153.92,154.14,153.7,153.83z M157.38,125.41l-1.17,2.28l5.63,2.89l4.59,7.8l1.35-2.64
	l-2.99-5.06l5.85-0.51l1.39-2.72l-9.08,0.81L157.38,125.41z M147.12,150.24c0.93-1.1,1.56-2.31,2.11-3.01
	c0.3-0.38,0.74-0.67,1.01-1.08c0.31-0.48,0.66,0.14,0.95,0.08c0.76-0.15,1.44-0.74,1.41-1.32c0.02-0.37-0.27-0.96-0.98-1.3
	c-1.34-0.64-2.32,2.36-3.1,2.12c-0.16-0.05-0.19-1.06-0.19-1.08c-0.05-0.71-0.22-1.59-0.68-2.31c-0.38-0.6-0.69-0.53-1.05-0.76
	c-0.29-0.18-0.49-0.46-0.9-0.5c-1-0.1-1.46,0.67-1.43,1.35c0.03,0.72,0.62,1.97,0.23,2.43c-0.43,0.51-0.88,0.49-1.06,0.15
	c-0.25-0.49-0.3-1.49-0.62-1.67c-0.18-0.1-0.58,0.18-0.81,0.62c-0.23,0.44,0.25,1.5-0.29,1.71c-0.25,0.1-0.56-0.42-0.78-0.36
	c-0.62,0.15,0.1,1.81-0.27,2.28c-0.65,0.83-0.55,1.36-0.16,2.15c0.29,0.57,0.95,1.38,1.31,2.04c0.41,0.76,1.16,1.22,1.1,1.59
	c-0.07,0.4-0.25,0.16-0.49,0.48c-0.34,0.46,0.74,2.98,2.17,3.8c0.27,0.16,1.01,0.21,1.23-0.2c0.39-0.76-1.18-1.2-1.49-2.02
	c-0.2-0.55,1.01-2.06,1.62-3.21C146.26,151.69,146.56,150.9,147.12,150.24z M144.09,152.3c-0.24,0.11-0.54-0.47-0.97-0.88
	c-0.62-0.59-1.42-1.34-1.36-1.47c0.1-0.22-0.01-1.15,0.23-1.11c0.41,0.07,0.82,1.15,1.07,1.49c0.41,0.72,0.62,0.26,0.83,1.11
	C144,151.91,144.41,152.16,144.09,152.3z M144.52,149.52c-0.28,0.08-0.38,0.23-0.64-0.11c-0.57-0.75-0.66-1.73-0.39-2.1
	c0.57-0.79,0.55,0.53,0.6,0.7C144.2,148.38,144.8,149.44,144.52,149.52z M145.38,144.05c0.2-0.69-0.02-0.85,0.17-1.15
	c0.24-0.39,0.79-0.29,1.2,0.06c0.39,0.33,0.66,0.91,0.39,1.24c-0.3,0.37-0.76-0.07-0.96,0.13c-0.24,0.24-0.15,0.84,0.25,0.8
	c0.34-0.03,0.57,0.35,0.66,0.74c0.04,0.16-0.12,0.53-0.06,0.68c0.09,0.21,0.51,0.27,0.61,0.48c0.1,0.2-0.22,0.81-0.58,0.78
	c-0.56-0.05-0.46-1.14-0.69-1.37C145.16,145.21,145.29,144.35,145.38,144.05z M145.65,148.96c0,0-0.17-0.17-0.18-0.18
	c-0.4-0.14-0.34-1.27-0.3-1.31C145.74,146.98,146.62,149.11,145.65,148.96z M98.49,80.92l18.69,14.02v-5.91L98.49,75.01V80.92z
	 M94.72,30.6C59.31,30.67,30.67,59.31,30.6,94.72c0.06,35.42,28.71,64.05,64.12,64.12c35.41-0.07,64.05-28.7,64.12-64.12
	C158.77,59.31,130.13,30.67,94.72,30.6z M94.72,156.65c-34.2-0.06-61.87-27.72-61.93-61.93c0.06-34.2,27.73-61.87,61.93-61.93
	c34.2,0.06,61.87,27.73,61.93,61.93C156.59,128.93,128.92,156.59,94.72,156.65z M94.72,36.43c-32.19,0.06-58.23,26.1-58.29,58.29
	c0.06,32.19,26.1,58.23,58.29,58.29c32.19-0.06,58.23-26.09,58.29-58.29C152.95,62.53,126.91,36.49,94.72,36.43z M131.53,90.7
	c0.91,0.69,1.45,1.76,1.45,2.91c0,2.99-3.42,4.7-5.81,2.91l-2.44-1.83v5.91l6.8,5.1c0.91,0.69,1.45,1.76,1.45,2.91
	c0,2.99-3.42,4.7-5.81,2.91l-2.44-1.83v5.91l6.8,5.1c0.91,0.69,1.45,1.76,1.45,2.91c0,2.99-3.42,4.7-5.81,2.91l-28.68-21.51v5.9
	l29.39,22.05c0.91,0.69,1.45,1.76,1.45,2.91c0,2.99-3.42,4.7-5.81,2.91l-25.03-18.78v20.05c0,2.08-1.69,3.77-3.77,3.77
	c-2.08,0-3.77-1.69-3.77-3.77v-20.05l-25.03,18.78c-2.39,1.8-5.81,0.09-5.81-2.91c0-1.14,0.54-2.22,1.45-2.91l29.39-22.05v-5.9
	l-28.67,21.51c-2.4,1.8-5.82,0.09-5.82-2.91c0-1.14,0.54-2.22,1.45-2.91l6.8-5.1v-5.91l-2.44,1.83c-2.4,1.8-5.81,0.09-5.81-2.91
	c0-1.14,0.54-2.22,1.45-2.91l6.8-5.1v-5.9l-2.44,1.83c-2.4,1.8-5.81,0.09-5.81-2.91c0-1.14,0.54-2.22,1.45-2.91l33.03-24.77v-5.9
	L62.28,81.54c-2.4,1.8-5.81,0.09-5.81-2.91c0-1.14,0.54-2.22,1.45-2.91l6.8-5.1v-8.47c0-2.08,1.69-3.77,3.77-3.77
	c2.08,0,3.77,1.69,3.77,3.77v2.81l18.69-14.02v-7.11c0-2.08,1.69-3.77,3.77-3.77c2.08,0,3.77,1.69,3.77,3.77v7.11l18.69,14.02v-2.81
	c0-2.08,1.69-3.77,3.77-3.77c2.08,0,3.77,1.69,3.77,3.77v8.46l6.8,5.1c0.91,0.69,1.45,1.76,1.45,2.91c0,2.99-3.42,4.7-5.81,2.91
	L98.49,60.03v5.9L131.53,90.7z M661.96,75.62c0.81-0.19,1.31-0.97,1.89-1.88c1.01-1.57,2.27-3.53,5.71-3.52
	c1.62,0,2.58,1.26,3.68,2.7c1.34,1.75,2.86,3.74,5.91,3.48c3.09-0.26,5.89-3.74,8.36-6.8l1.87-2.24
	c3.19-3.57,17.66-15.86,22.57-16.81c2.35-0.46,3.77-0.41,4.45,0.17c0.76,0.65,0.73,2.03,0.68,3.94l-0.03,1.64
	c0,1.68,1.07,2.64,2.02,3.47c0.84,0.74,1.56,1.39,1.38,2.37c-0.4,2.29-2.44,3.32-4.6,4.41c-2.14,1.07-4.32,2.19-4.93,4.61
	c-0.74,2.96-0.34,5.7,1.08,7.31c1.1,1.23,2.73,1.76,4.74,1.52c2.82-0.35,4.52-3.06,6.33-5.93c1.12-1.79,2.29-3.64,3.8-5.1
	c2.22-2.15,4.17-2.37,6.23-2.61c1.76-0.2,3.6-0.4,5.51-1.95c1.75-1.42,2.67-3.27,2.6-5.21c-0.1-2.35-1.6-4.66-4.25-6.48
	c-3.69-2.54-6.01-0.38-7.53,1.07c-0.55,0.52-1.07,1.01-1.38,0.97l-0.31-0.23c-1.87-2.66-0.23-5.05,1.51-7.6
	c0.84-1.22,1.71-2.49,2.19-3.8c0.65-1.8,0.53-3.28-0.34-4.27c-1.27-1.5-4.07-1.84-8.29-1.02c-1.82,0.34-3.43,1.64-5.12,3.01
	c-1.65,1.34-3.35,2.71-5.39,3.33c-5.47,1.68-9.33,4.11-12.44,6.06c-2.26,1.44-4.04,2.56-5.64,2.84c-1.13,0.2-3.17,0.04-5.31-0.13
	c-3.78-0.29-8.07-0.64-9.84,0.75l-2.95,3.13c-1.32,1.57-2.68,3.2-3.64,3.25l-0.61-0.26c-1.34-1.34,0.35-3.83,2-6.26l0.63-0.94
	c2.24-3.39,5.02-5.26,7.48-6.9c1.49-1.01,2.79-1.88,3.69-2.93c1.59-1.86,1.91-4.1,0.84-6.13c-1.15-2.22-3.67-3.61-6.1-3.34
	c-4.51,0.46-12.02,7.2-15.7,11.35c-2.22,2.5-3.91,5.26-5.53,7.92c-1.79,2.92-3.47,5.69-5.76,8.04c-2.43,2.5-1.75,6.77-0.01,9.91
	C654.98,73.38,658.19,76.44,661.96,75.62z M294.79,41.67c1.36,0.01,2.01-0.91,3.11-1.04c4.28-0.53,8.9,1.1,10.83-0.25
	c7.41-5.2,4.51-11.58-3.67-11.84c-4.98-0.17-11.42,2.65-15.34,8.66C287.16,41.09,293.43,41.67,294.79,41.67z M273.91,40.89
	c9.68-3.09,2.29-14.44-6.46-13.16c0,0-4.9,0.41-6.49,1.49c-2.04,1.1-1.28,2.3-2.63,3.82c-1.71,1.27-1.64,3.41-1.02,5.13
	C258.93,42.64,265.93,43.41,273.91,40.89z M1025.16,115.56c-2.42-0.69-15.76,3.56-22.82,3.95c-2.69,0.16-3.47-1.21-3.53-2.74
	c-0.19-5.25,16.18-4.65,15.97-10.17c-0.31-8.17-6.12-11.14-14.45-9.79c0,0-10.27,2.15-19.51,3.05c-7.77,0.75-17.76,7.07-15.54,12.41
	c2.39,5.71,9.42,5.26,14.71,1.73c1.79-1.19,1.5-1.85,2.51-3.42c1.26-1.93,3.15-1.32,4.04-2.23c2.64-2.71,3.96-4.48,5.78-2.2
	c0.68,0.85-0.77,5.68-1.26,6.96c-0.95,2.37-3.14,5.98-5.94,7.18c-9.36,3.98-19.82,6.62-20.66,12.97c-0.19,1.45,3.42,5.88,5.7,6.62
	c2.58,0.83,3.88-1.13,8.55-3.52c1.82-0.93,6.22,0.28,7.87-0.45c2.96-1.3,6.75-4.94,7.61-3.52c1.74,2.86,0.29,10.59-4.22,16.3
	c-2.7,3.42-6.62,6.45-9.35,6.03c-1.02-0.16-7.34,0.73-7.77,5.35c-0.48,5.3,2.68,7.67,4.91,8.35c9.76,3.05,15.23-5.51,22.16-13.14
	c3.65-4.01,6.24-9.39,6.74-12.14c0.82-4.52,1.96-3.97,1.88-5.88c-0.15-3.77-2.11-5.35-1.1-6.22c3.25-2.82,9.35-1.43,10.72-1.58
	c2.21-0.25,7.41,0.17,10.39-1.69C1034.33,124.14,1027.96,116.37,1025.16,115.56z M884.16,89.34c5.53-3.51,9.1-9.06,4.07-12.85
	c-1.85-1.39-2.51-2.24-6.99-2.1c-7.61,0.22-6.71,4.13-11.89,4.45c-2.24,0.14,0.01-8.25,4.34-9.21c9.07-2.04,19.45-6.82,20.96-14.88
	c1.24-6.61,0.58-12.95-10.45-10.15c-5.76,1.45-13.46,3.97-20.65,10.75c-9.26,8.72-17.62,19.44-26.55,23.87
	c-5.76,2.87-4.82-0.16-10.55,1.16c-15.96,3.73-26.53,9.34-24.18,17.78c1.63,5.87,7.43,7.48,10.68,8.14c4,0.78,7.57-0.98,7.15,1.26
	c-0.42,2.23-7.7,8.93-12.6,14.79c-1.95,2.35-7.8,7.01-13.99,9.77c-10.36,4.59-13.54,6.32-13.01,9.76c0.64,4.2,4.89,6,9.49,5.46
	c5.16-0.58,28.71-13.44,44.36-33.2c2.79-3.52,7.87-6.63,10.65-9.21c3.78-3.51,4.3-6.85,8.25-8.51
	C865.14,91.41,877.14,93.79,884.16,89.34z M309.24,108.17c-9.41,1.49-13.68,3.68-16.57,0.8c-3.19-3.23,3.04-4.66,3.21-4.66
	c9.49-0.1,35.57-19.92,20.27-33.99c-5.21-4.8-1.36-9.34-9.75-8.5c-0.74,0.08-8.96,2.24-10.73,1.04c-1.69-1.13-1.71-5.82,2.43-6.44
	c5.65-0.84,15.19-0.79,16.25-1.13c10.42-3.06,8.96-15.08-3.63-11.61c-7.12,1.95-12.42,3.31-16.1,1.34c-0.3-0.16-4.02-2.31-5.48-1.81
	c-1.46,0.51-0.17,2.57-3.25,2.82c-3.09,0.26-15.05-0.45-22.11,2.45c-2.97,1.22-9.79-0.85-12.77,1.34
	c-2.91,2.14-7.63,10.61,0.24,13.88c3.44,1.43,9.96-5.88,19.28-6.57c4.54-0.33,6.18-4.27,10.45-1.44c1.71,1.13,0.81,1.66,0.1,2.46
	c-0.41,0.47-14.17,4.88-24.53,11.21c-7.23,4.41-13.54,8.46-10.39,15.91c0.67,1.6,6.13,5.05,1.53,7.19
	c-4.37,2.04-10.47,6.48-10.98,10.09c-0.18,1.34-0.24,6.31-0.09,7.62c0.67,6,8.3,4.73,8.04,7.12c-0.12,1.07-5.74,1.88-9.43,4.18
	c-2.47,1.56-2.72,5.93-2.49,7.88c0.33,3,2.09,2.15,8.13,2.15c9.68,0.02,12.71-1.25,24.17-4.93c2.33-0.74,7.24-1.65,9.93-0.93
	c2.98,0.82,1.96,4.81-1.55,5.83c-7.14,2.08-37.28,11.33-23.67,20.43c3.28,2.2,10.91,2.02,13.09,1.36c2.43-0.76,8.15-4.89,10.9-2.6
	c3.07,2.57-2.46,12.47,3.49,15.93c3.86,2.24,7.83,2.94,8.91,0.02c1.71-4.71,0.89-17.41,2.77-18.93c5.56-4.45,24.64,0.58,27.16-7.41
	c2.96-9.3-2.21-13.28-5.38-12.77c-5.67,0.91-14.4,3.57-19.62,3.31c-2.06-0.1-1.45-3.54-0.67-6.08c1.86-6.19,16.82-2.31,27.59-2.86
	c8.06-0.43,7.45,0.94,12.67,1.12c7.38,0.25,12.43-6.61,8.16-14.98C337.17,104.87,316.69,106.98,309.24,108.17z M247.7,108.32
	c-4.36-3.55,4.6-10.25,7.03-10.21C259.21,98.2,252.42,112.1,247.7,108.32z M278.26,94.25c-1.22,6.68,0.92,11.96-0.71,13.19
	c-2.44,1.83-5.94,1.62-8.75,2.64c-4.97,1.81-9.03,4.01-10.19,3.49c-2.48-1.12,1.36-1.95,1.89-4.88c1.9-10.45,1.91-15.85,5.09-17.81
	c3.29-2.04,5.59-1.98,7.45-3.25c3.74-2.52,5.21-5.16,5.65-4.37C279.07,83.96,279.21,89.02,278.26,94.25z M276.49,73.61
	c-5.92,4.43-14.45,10.88-16.63,6.98c-2.25-3.99,15.08-14.58,18.78-13.49C281.13,67.82,280.51,70.59,276.49,73.61z M293.26,81.17
	c0.5-2.42-1.19-6.07-0.33-7.97c1.29-3.16,8.11-3.33,8.32-2.21c0.19,1.11-2.36,5.24-1.05,8.04c1.36,2.92,2.73,5.41,5.9,4.98
	c1.85-0.25,1.27,2.14-0.27,4.7c-1.15,1.94-10.29,12.18-13.16,9.73C290.65,96.75,290.08,87.42,293.26,81.17z M1048.59,81.5
	c-3.39-10.04-23.66-0.1-26.33-5.29c-0.55-1.08,4.88-6.7,4.59-6.32c3.38-3.77,7.04-9.05,8.45-15c1.17-4.95-0.72-6.2-1.36-9.12
	c-0.51-2.37-0.13-4.81-1.92-7.08c-4.47-5.62-10.72-4.09-14.03-0.59c-3.54,3.77-7.01,13.02-11.31,13.34
	c-4.78,0.34-6.9-2.07-6.04-4.69c1.23-3.73,6.13-8.99,5.44-11.49c-0.39-1.4-3.81-2.08-7.24-1.05c-3.43,1.02-6.4,8.77-10.16,7.05
	c-1.72-0.79-0.65-4.95-2.05-5.82c-3.89-2.43-8.79,9.56-13.02,10.03c-7.47,0.79-9.71,4-11.76,9.9c-1.49,4.32-2.3,11.74-3.9,16.86
	c-1.84,5.91-0.46,12.03-2.65,13.58c-2.4,1.67-2.06-0.5-4.9-0.13c-4.1,0.55-11.55,18.69-8.61,30.1c0.56,2.16,4,6.23,7.18,5.26
	c5.84-1.77,0.23-12.04,2.88-17.68c1.77-3.77,15.6-5.11,24.53-7.72c4.09-1.17,9.65-3.59,15.85-4.02c10.28-0.73,19.61-3.52,25.91-4.24
	c3.43-0.37,7.12,0.48,10.61-0.21c3.99-0.79,2.58,4.05,4.33,5.25c4.55,3.12,10.95,3.69,13.8,0.58
	C1048.87,91.23,1050.41,86.85,1048.59,81.5z M971.49,71.28c-1.65,5.7,1.75,4.47-1.54,9.74c-1.87,3.01-1.11,6.33-3.4,5.4
	c-1.76-0.71-0.28-5.13-0.34-9.4c-0.09-6.13-0.24-13.97,0.72-14.31c1.66-0.59,5.83-5.76,6.83-4.33
	C975.44,60.83,971.96,68.31,971.49,71.28z M982.94,74.71c-1.79-1.03-3.08-0.8-2.63-3.79c0.98-6.64,5.56-12.05,8.8-12.51
	c6.91-1.03,0.02,5.45-0.59,6.57C987.16,67.37,984.7,75.73,982.94,74.71z M991.39,77.69c0,0,0.05-1.69,0-1.81
	c-1.29-2.77,4.82-8.1,5.25-8.08C1001.98,68.29,995.49,83.38,991.39,77.69z M1017.78,57.24c-2.43-0.06-5.05,3.43-2.85,5.28
	c1.88,1.57,1.08,4.63-0.49,7.08c-0.65,1.02-3.31,2.06-3.76,3.11c-0.65,1.53,1.17,3.95,0.63,5.52c-0.52,1.52-5.26,2.9-6.88,0.91
	c-2.55-3.08,3.55-8.05,3.57-10.39c0.14-12.29,5.19-15.88,7.23-16.96c4.54-2.39,4.22-4.35,6.72-4.91c3.16-0.71,5.43,2.62,5.68,6.49
	c0.23,3.63-1.36,7.89-4.37,8.15C1019.85,61.84,1019.81,57.3,1017.78,57.24z M897.51,122.66c-6.72,0.3-13.38-2.33-17.64-3.53
	c-12.95-3.63-19.94-12.68-23.24-13.53c-3.29-0.86-5.84,7.09-5.44,11.79c1.13,13.42,22.7,20.74,36.3,23.54
	c5.25,1.07,12.51-0.8,17.75-1.15c5.53-0.37,10.1,1.09,11.37-1.89c1.28-2.98,3.02-2.86,2.55-5.96
	C918.1,124.74,909.09,122.15,897.51,122.66z M469.01,131.83c-3.01-2.42-1.17,0.96-9.71-0.22c-2.43-0.34-13.49-3.88-19.09-5.04
	c-2.68-0.58-7.75-3.15-11.68-6.17c-2.5-1.95-6.35-1.54-2.39-7.08c2.39-3.34-1.94-5.89,0.55-7.89c2.11-1.71,6.64-3.97,9.29-6.28
	c3.17-2.79,6.33-7.98,10.9-13.11c4.27-4.8,6.11-19.2,0.88-21.77c-3.58-1.75-8.43-0.86-15.25-1.2c-3.46-0.17-7.36,6.11-6.72,0.59
	c0.43-3.8,0.01-5.27,2.92-7.01c4.6-2.72,22.38-2.74,19.87-11.64c-2.02-7.16-12.17,1.02-17.5-2.36c-2.49-1.56-1.15-9.33-7.53-5.89
	c-0.88,0.47-4.81,1.99-5.57,3.22c-0.76,1.24-0.32,6.5-0.89,6.57c-3.72,0.48-9.92,0.86-17.99,2.94c-7.64,1.99-14.02-0.76-18.48,3.83
	c-1.88,1.91-3.61,3.09-4.85,5.58c-2.14,4.25,1.53,9.04,6.8,9.31c2.28,0.11,12.91-8.04,18.01-9.52c5.89-1.71,12.08-3.19,13.77-1.22
	c0.82,0.96,0.54,3.52-0.75,6.2c-4.73,9.75-10.21,9.29-14.39,11.63c-0.92,0.52-1.6-1.44-0.54-3.1c1.41-2.19,5.05-4.65,4.77-5.48
	c-0.36-1.05-7.61,0.18-13.52,2.91c-2.27,1.05-3.8,2.43-5.44,3.83c-4.9,4.15-8.07,17.56-5.97,28.96c1.75,9.44,1.45,17.49,7.49,18.74
	c7.21,1.48,7.05-5.43,5.63-16.31c-0.81-6.21,2.41-11.57,4.18-14.41c0.7-1.14,1.59-8.28,10.69-7.55c0.38,0.04,0.85,2.05-1.17,3.08
	c-2.62,1.34-5.23,4.67-5.04,6.53c0.23,2.27,2.48,4.16,3.57,6.87c1.09,2.72-4.19,4.82,2.02,8.04c0.48,0.25-2.08,3.21-3.69,3.11
	c-0.75-0.05-1.04-1.31-1.76-1.24c-2.26,0.27-2.93,6.23-3.17,6.92c-1.36,3.95-4.94,7.08-8.62,10.55
	c-6.25,5.9-14.24,14.74-18.47,20.22c-5.03,6.53-1.27,10.81,7.64,10.24c3.99-0.26,10.8-8.98,14.32-13.04
	c2.47-2.87,7.81-8.75,11.08-9.55c3.5-0.84-1.18,21.37,0.34,23.57c2.66,3.79,10.98,5.13,10.98-1.32c0.01-2.92-0.54-6.58-0.74-10.97
	c-0.14-3.41,0.69-7.5,0.78-10.6c0.12-4.45,0.17-8.78,1.31-8.97c2.56-0.42,4.11,3.37,8.75,7.26c10.87,9.15,30.34,15.01,43.82,14.37
	c8.07-0.38,11.54-5.96,4.29-12.8C471.1,133.59,469.9,132.54,469.01,131.83z M422.66,94.84c0.7-2.46,2.23-7.94-1.38-9.29
	c-3.53-1.3-3.25-9.6-0.2-8.85c5.63,1.38,14.12-0.58,14.61,0.67c2.03,5.12-3.11,12.26-7.38,16.11c-1.6,1.43-2.88,4.24-3.85,5.1
	C421.89,100.9,421.41,99.26,422.66,94.84z M603.04,71.77c-6.97-1.67-16.41,6.54-19.88,3.34c-1.44-1.33,0.68-4.91,0.69-7.17
	c0.01-3.66-2.65-6.41-5.6-6.6c-1.91-0.13-2.31-2.5-0.18-3.08c3.04-0.85,4.61-0.79,7.8-1.07c6.03-0.56,9.4-1.55,12.05-7.51
	c0.82-1.81-0.39-5.27-3.13-6.6c-3.52-1.7-13.36-0.15-23.6,2c-11.05,2.32-22.76,4.22-24.33,8.68c-0.78,2.17-2.68,4.86-3.45,7.6
	c-1.14,3.97-1.56,7.47-3.37,9.3c-5.68,5.77-5.8,15.49-7.66,12.56c-1.27-2.01-4.46-1.24-6.48-1.31c-0.95-0.04-1.3-2.55-0.44-3.67
	c0.84-1.12,1.15-0.28,2.52-1.16c3.72-2.39,7.8-7.61,8.04-10.8c0.58-8.02,2.56-14.39-1.69-18.16c-3.64-3.25-9.02-3.93-14.29-3.27
	c-2.76,0.34-7.14,1.58-9.76,3.35c-4.51,3-5.05,9.44-6.62,17.37c-0.64,3.24-2.73,7.54-3.12,12.49c-0.5,6.3-0.96,15.04-1.08,19.53
	c-0.29,10.1,0.58,16.96,4.13,23.39c1.85,3.36,1.63,8.63,6.77,7.94c4.25-0.57-0.73-15.75-0.78-23.13c-0.02-3.01,0.15-5.92,2.21-7.6
	c0.66-0.52,1.04-2.03,2.45-1.63c1.42,0.39,0.04,5.04,2.12,4.66c3.7-0.65,4.79-5.55,8.02-4.4c2.54,0.91-0.09,5.44-2.54,8.51
	c-4.81,5.98-5.75,15.6,2.58,16.26c3.54,0.28,6.66-5.08,7.46-10.04c0.62-3.88-0.2-6.14,0.58-9.24c0.64-2.44,2.52-3.29,3.53-6.29
	c0.97-2.86,1.52-6.08,3.13-9.55c1.84-4.03,4.79-8.3,6.63-11.61c2.08-3.7,3.78-7.25,6.4-9.63c2.6-2.39,6.7-4.39,9.65-3.1
	c2.11,0.92-4.77,6.87-8.61,12.1c-5.38,7.31-7.66,15.75-7.22,25.98c0.17,4.14,0.12,15.62,3.24,17.5c2.26,1.39,4.06,1.73,6.54,0.99
	c6.07-1.82,1.61-13.04,4.26-18.64c0.57-1.21,0.91-3.34,2.91-2.69c1.99,0.65,1.52,24.85,1.02,39.11c-0.34,9.76,0.78,17.61,1.56,25.13
	c0.34,3.15,0.78,6.12,5.47,6.13c6.65,0.01,6.47-14.19,6.34-22.99c-0.1-7.3,0.25-18.26,2.61-22.43c2.6-4.62,10.1-8.73,14.78-10.76
	c4.81-2.07,7.86-8.79,10.26-11.67c3.26-3.88,4.65-15.22,4.72-19.21C609.74,75.18,607.57,72.85,603.04,71.77z M522.68,66.54
	c0.68,6.24-0.39,6.46-1.53,9.67c-0.82,2.27,3.57,3.56,0.37,5.17c-6.21,3.15-6.94,8.46-7.44,11.41c-0.23,1.4-1.95,1.27-2.43,0
	c-1.11-2.9-2.02-8.22-0.25-12.64c2.37-5.93,2.88-10.48,4.92-14.4c2.55-4.95,6.68-7.58,7.88-6.62
	C526.5,60.97,522.45,64.37,522.68,66.54z M564.57,78.56c-1.79,4.53-4.8,6.86-6.94,5.27c-1.58-1.16,3.9-8.47,6.11-12.89
	c2.77-5.51,3.7-4.84,5.2-4.03C570.6,67.84,567.02,72.39,564.57,78.56z M591.96,99.13c-3.25,3.1-5.18,4.57-7.65,4.67
	c-1.3,0.06-4.42-2.46-3.99-4.01c1.09-3.91-0.37-5.11,0.13-7.27c0.8-3.53,5.78-3.26,8.76-3.83c4.01-0.76,6.22-2.75,7.08,0.08
	C596.3,88.77,596.26,95.03,591.96,99.13z M760.46,116.89c-4.67-0.65-6.18,5.01-7.38,9.57l-1.02,3.44
	c-2.51,6.66-15.61,11.78-26.67,13.23l-3,0.44c-5.35,0.84-9.57,1.5-14.89-2.28c-2.32-1.65-3.52-7.13-2.67-12.2
	c0.67-4.02,2.48-6.74,4.95-7.48c1.07-0.32,1.27,0.07,1.6,0.71c0.79,1.51,1.91,2.56,7.81,0.11c0.51-0.21,0.95-1.38,1.73-3.61
	c0.65-1.85,1.38-3.94,2.21-5.15l2.72-3.49l1.83-2.44c1.74-4.2,1.22-8.61-1.4-12.11c-2.93-3.89-7.93-5.88-13.42-5.29
	c-8.11,0.86-16.36,5.14-23.66,8.92c-7.42,3.84-13.84,7.18-18.68,6.43c-1.72-0.27-2.84-1.36-3.81-2.32
	c-0.91-0.89-1.78-1.76-2.95-1.61c-1.65,0.2-3.69,2.41-6.81,7.38c-0.62,1.01-1.12,3-1.7,5.3c-0.95,3.72-2.11,8.34-4.16,9.34
	c-0.56,0.26-1.15,0.25-1.82-0.04c-0.68-0.31-1.12-0.81-1.29-1.52c-0.79-3.1,3.33-8.8,3.38-8.85c0.03-0.05,1.78-5.26,1.78-5.26
	c0.43-1.63,0.84-3.17,1.55-4.37c4.09-6.97,11.09-7.39,18.48-7.84c3.83-0.23,10.02-3.88,11.11-4.99c2.17-2.18,0.03-5.31-1.69-7.8
	l-0.32-0.46c-2.86-4.19-6.12-5.62-9.98-4.41c-3.22,1.03-7.51,4.25-12.48,7.99c-3.77,2.85-7.66,5.78-11.58,8.11l-1.38,0.8
	c-8.06,4.62-17.33,10.39-17.54,14.04c-0.04,0.71,0.26,1.31,0.89,1.78c2.64,1.94,5.99-0.69,8.95-3.03c2.27-1.79,4.41-3.47,5.48-2.39
	c0.37,0.37,0.54,0.73,0.54,1.15c-0.01,0.82-0.68,1.86-2.08,3.17l-0.62,0.6c-1.69,1.54-3.25,2.98-4.73,7.85
	c-2.08,6.82-0.92,8.62,0.99,11.61l1.93,3.28c0.82,1.65,0.5,3.99,0.28,5.54l-0.03,1.77c1.29,2.14,2.57,2.2,3.51,2.24
	c0.76,0.04,1.21,0.06,1.57,0.97c0.84,2.12-0.59,6.7-1.62,7.12c-0.07,0.02-0.28,0.1-0.53-0.48c-0.61-1.48-3.21-1.51-4.19-1.51
	c-2.64-0.04-3.81,1.94-4.84,3.69l-0.77,1.26c-4.33,6.18-1.41,10.19,2.02,13.29c2.05,1.85,3.82,3.44,8.36,2.04
	c3.89-1.2,5.49-7.08,7.16-13.31l0.56-2.01c1.6-5.82,3.46-10.68,5.08-13.36c1.98-3.27,2.14-6.03,2.25-8.23l0.45-3.12
	c1.41-3.77,3.85-4.9,6.93-6.32c1.61-0.75,3.43-1.59,5.33-2.94l4.35-3.21c5.3-3.97,9.5-7.11,16.37-9.47c2.27-0.79,4.7-2.2,7.04-3.56
	c3.2-1.87,6.51-3.8,9.61-4.28l0.62-0.1c2.74-0.44,7.82-1.26,9.2,0.7c0.43,0.59,1.27,5.08,0.08,6.96c-0.43,0.66-1.05,0.91-1.92,0.74
	c-1.46-0.28-1.5-1.14-1.44-2.54c0.04-0.93,0.09-1.89-0.64-2.51c-1.28-1.09-6.02-1.11-6.07-1.11c-1.8,0.01-3.46,1.79-5.41,3.87
	c-1.4,1.48-2.99,3.18-4.82,4.38c-6.77,4.43-9.7,14.06-9.06,21.3c0.73,8.32,4.46,11.99,6.69,14.2l1.32,1.44
	c4.92,7.31,12.38,13.58,33.46,10.13c13.86-2.28,25.28-8.17,31.34-16.15c2.77-3.65,4.2-14.12,1.86-19.81
	C763.82,118.46,762.38,117.17,760.46,116.89z"/>
</svg>
