<svg xmlns="http://www.w3.org/2000/svg" width="122" height="64" viewBox="0 0 119.1 63.2">
  <path d="M4.4 48.2H.8v-2.6H0v6.1h.8v-2.8h3.6v2.8h.8v-6.1h-.8zM8.3 47.4c-1.2 0-2.2.9-2.2 2.2 0 1.3.9 2.2 2.2 2.2 1.3 0 2.2-.9 2.2-2.2 0-1.3-.9-2.2-2.2-2.2zm0 3.8c-.9 0-1.3-.7-1.3-1.6 0-1 .5-1.6 1.3-1.6.9 0 1.3.7 1.3 1.6.1 1-.4 1.6-1.3 1.6zM13.4 48c.8 0 1.2.5 1.3 1.3h.7c-.1-1-.8-1.9-2-1.9-1.3 0-2.2.9-2.2 2.2 0 1.4.9 2.2 2.2 2.2 1.2 0 1.9-.8 2-1.9l-.7-.1c-.1.7-.5 1.3-1.3 1.3s-1.3-.6-1.3-1.6c-.1-.9.5-1.5 1.3-1.5zM18.3 48c.7 0 1 .4 1 1.2v2.6h.8v-2.6c0-1-.4-1.7-1.6-1.7-.6 0-1.2.4-1.4.9v-2.6h-.8v6.1h.8v-2.4c0-1 .5-1.5 1.2-1.5zM22.9 51.3c-.7 0-1.2-.3-1.3-1h-.7c.1 1 .9 1.5 1.9 1.5 1 0 1.7-.5 1.7-1.3s-.5-1.1-1.4-1.2l-.8-.1c-.4-.1-.7-.3-.7-.6 0-.4.3-.6.9-.6.7 0 1.1.3 1.2 1h.7c-.1-1-.7-1.5-1.9-1.5-1 0-1.6.5-1.6 1.3 0 .7.5 1.1 1.3 1.2h.8c.5.1.8.2.8.6 0 .5-.4.7-.9.7zM27.4 48c.8 0 1.2.5 1.3 1.3h.7c-.1-1-.8-1.9-2-1.9-1.3 0-2.2.9-2.2 2.2 0 1.4.9 2.2 2.2 2.2 1.2 0 1.9-.8 2-1.9l-.7-.1c-.1.7-.5 1.3-1.3 1.3s-1.3-.6-1.3-1.6c0-.9.5-1.5 1.3-1.5zM32.3 48c.7 0 1 .4 1 1.2v2.6h.8v-2.6c0-1-.4-1.7-1.6-1.7-.6 0-1.2.4-1.4.9v-2.6h-.8v6.1h.8v-2.4c.1-1 .6-1.5 1.2-1.5zM38.2 49.9c0 .8-.5 1.3-1.1 1.3-.7 0-1-.5-1-1.2v-2.6h-.8V50c0 1 .4 1.7 1.5 1.7.6 0 1.2-.4 1.4-.9v.7h.8v-4.2h-.8v2.6zM40.2 45.6h.8v6.1h-.8zM44.1 51.9c1.1 0 1.8-.6 2-1.5l-.7-.1c-.2.7-.6 1-1.3 1-.8 0-1.3-.6-1.4-1.4h3.4v-.3c0-1.2-.7-2.1-2-2.1-1.2 0-2.1 1-2.1 2.3-.1 1.2.8 2.1 2.1 2.1zM44 48c.8 0 1.2.6 1.2 1.3h-2.5c.1-.7.6-1.3 1.3-1.3zM53.9 51.7v-6.1h-.8v4.7l-3.3-4.7h-.9v6.1h.8v-4.9l3.5 4.9zM59.1 50.3l-.7-.1c-.2.7-.6 1-1.3 1-.8 0-1.4-.6-1.4-1.4h3.4v-.3c0-1.2-.7-2.1-2-2.1-1.2 0-2.1 1-2.1 2.3 0 1.3.9 2.2 2.2 2.2.9 0 1.6-.6 1.9-1.6zM57 48c.8 0 1.2.6 1.2 1.3h-2.5c.1-.7.6-1.3 1.3-1.3zM60 47.5v2.6c0 1 .4 1.7 1.5 1.7.6 0 1.2-.4 1.4-.9v.7h.8v-4.2h-.8v2.4c0 .8-.5 1.3-1.1 1.3-.7 0-1-.5-1-1.2v-2.6H60zM64.9 48.9h2.2v.7h-2.2zM73.2 49.4v-3.8h-.8v3.8c0 1.2-.6 1.7-1.7 1.7s-1.6-.6-1.6-1.7v-3.8h-.8v3.8c0 1.8 1.1 2.5 2.5 2.5s2.4-.7 2.4-2.5zM74.4 45.6h.8v6.1h-.8zM81.4 47.4c-.7 0-1.2.4-1.4.9-.2-.6-.6-.9-1.4-.9-.7 0-1.1.4-1.3.9v-.8h-.8v4.2h.8v-2.4c0-.8.5-1.3 1.1-1.3.7 0 .9.4.9 1.2v2.6h.7v-2.4c0-.8.5-1.3 1.1-1.3.7 0 .9.4.9 1.2v2.6h.8v-2.6c.1-1.1-.3-1.9-1.4-1.9zM4.1 59.2c0 1.2-.6 1.7-1.7 1.7S.8 60.3.8 59.2v-3.8H0v3.8c0 1.8 1.1 2.5 2.5 2.5S5 61 5 59.2v-3.8h-.9v3.8zM8.3 57.2c-.6 0-1.2.4-1.4.9v-.8h-.8v4.2h.8v-2.4c0-.8.5-1.3 1.1-1.3.7 0 1 .4 1 1.2v2.6h.8V59c.1-1.1-.4-1.8-1.5-1.8zM11 57.3h.8v4.2H11zM11 55.4h.8v.9H11zM14.8 60.6h-.1l-1.3-3.3h-.8l1.7 4.2h.8l1.7-4.2h-.7zM19.4 57.2c-1.2 0-2.1 1-2.1 2.3 0 1.3.9 2.2 2.2 2.2 1.1 0 1.8-.6 2-1.5l-.8-.2c-.2.7-.6 1-1.3 1-.8 0-1.4-.6-1.4-1.4h3.4v-.3c0-1.2-.7-2.1-2-2.1zM18 59.1c.1-.7.6-1.3 1.3-1.3.8 0 1.2.6 1.2 1.3H18zM23.1 58.2v-.9h-.8v4.2h.8v-2.2c0-.8.5-1.4 1.1-1.4.3 0 .4 0 .7.2l.1-.7c-.1-.1-.3-.2-.6-.2-.7 0-1.1.5-1.3 1zM27.6 59.1l-.8-.1c-.4-.1-.7-.3-.7-.6 0-.4.3-.6.9-.6.7 0 1.1.3 1.2 1h.7c-.1-1-.7-1.5-1.9-1.5-1 0-1.6.5-1.6 1.3 0 .7.5 1.1 1.3 1.2l.7.1c.5.1.8.2.8.6 0 .4-.4.6-1 .6-.7 0-1.2-.3-1.3-1h-.7c.1 1 .9 1.5 1.9 1.5 1 0 1.7-.5 1.7-1.3.2-.7-.3-1-1.2-1.2zM29.9 55.4h.8v.9h-.8zM29.9 57.3h.8v4.2h-.8zM32.9 60.5v-2.6h1.2v-.6h-1.2v-1.2h-.5l-.1.6c-.1.4-.2.6-.6.7h-.3v.4h.6v2.7c0 .8.4 1.1 1 1.1.5 0 .8-.1 1.1-.4v-.5c-.2.1-.5.3-.8.3-.3 0-.4-.2-.4-.5zM36.7 60.6l-1.4-3.3h-.8l1.8 4.2-.7 1.7h.8l2.4-5.9H38zM43.3 57.2c-1.2 0-2.2.9-2.2 2.2 0 1.3.9 2.2 2.2 2.2 1.3 0 2.2-.9 2.2-2.2 0-1.3-1-2.2-2.2-2.2zm0 3.8c-.9 0-1.3-.7-1.3-1.6 0-1 .5-1.6 1.3-1.6.9 0 1.3.7 1.3 1.6 0 1-.5 1.6-1.3 1.6zM48 55.3c-.9 0-1.4.6-1.4 1.5v.5h-.7v.6h.7v3.7h.8v-3.7h1.2v-.6h-1.2v-.6c0-.5.2-.8.7-.8.4 0 .6.3.7.6l.6-.2c-.3-.7-.7-1-1.4-1zM53.2 55.4l-2.5 6.1h.8l.7-1.8H55l.7 1.8h.9l-2.5-6.1h-.9zm-.7 3.7l1.1-2.7 1.1 2.7h-2.2zM59.7 57.2c-.8 0-1.3.5-1.5 1v-.9h-.8v5.9h.8v-2.5c.2.5.7 1 1.5 1 1.3 0 1.9-1 1.9-2.2.1-1.3-.6-2.3-1.9-2.3zm-.1 3.8c-.8 0-1.4-.5-1.4-1.5v-.2c0-.9.6-1.5 1.4-1.5.8 0 1.3.6 1.3 1.6-.1 1-.5 1.6-1.3 1.6zM64.9 57.2c-.8 0-1.3.5-1.5 1v-.9h-.8v5.9h.8v-2.5c.2.5.7 1 1.5 1 1.3 0 1.9-1 1.9-2.2.1-1.3-.6-2.3-1.9-2.3zm-.1 3.8c-.8 0-1.4-.5-1.4-1.5v-.2c0-.9.6-1.5 1.4-1.5.8 0 1.3.6 1.3 1.6s-.5 1.6-1.3 1.6zM67.8 55.4h.8v6.1h-.8zM69.8 55.4h.8v.9h-.8zM69.8 57.3h.8v4.2h-.8zM73.7 57.2c-1.2 0-2.1 1-2.1 2.3 0 1.3.9 2.2 2.2 2.2 1.1 0 1.8-.6 2-1.5l-.7-.2c-.2.7-.6 1-1.3 1-.8 0-1.3-.6-1.4-1.4h3.4v-.3c-.1-1.2-.7-2.1-2.1-2.1zm-1.3 1.9c.1-.7.6-1.3 1.3-1.3.8 0 1.2.6 1.2 1.3h-2.5zM79.9 58.2c-.2-.5-.7-1-1.5-1-1.3 0-1.9 1-1.9 2.2 0 1.3.7 2.2 1.9 2.2.8 0 1.3-.5 1.5-1v.9h.8v-6.1h-.8v2.8zm0 1.3c0 .9-.6 1.5-1.3 1.5-.8 0-1.3-.6-1.3-1.6s.5-1.6 1.3-1.6 1.3.5 1.3 1.5v.2zM86.6 58.2l-1.1-.2c-.7-.1-1.1-.3-1.1-.9 0-.7.5-1.1 1.4-1.1 1 0 1.6.6 1.7 1.6h.8c0-1.4-.9-2.2-2.4-2.2-1.3 0-2.2.7-2.2 1.8 0 1 .6 1.4 1.5 1.6l1.2.2c.8.2 1.2.4 1.2 1 0 .7-.6 1.1-1.5 1.1-1 0-1.8-.6-1.8-1.7h-.8c0 1.5 1.1 2.3 2.6 2.3 1.3 0 2.3-.7 2.3-1.8-.1-1-.7-1.5-1.8-1.7zM91.2 57.8c.8 0 1.2.5 1.3 1.3h.7c-.1-1-.8-1.9-2-1.9-1.3 0-2.2.9-2.2 2.2 0 1.4.9 2.2 2.2 2.2 1.2 0 1.9-.8 2-1.9l-.7-.1c0 .9-.5 1.4-1.3 1.4s-1.3-.6-1.3-1.6.5-1.6 1.3-1.6zM94.1 55.4h.8v.9h-.8zM94.2 57.3h.8v4.2h-.8zM98 57.2c-1.2 0-2.1 1-2.1 2.3 0 1.3.9 2.2 2.2 2.2 1.1 0 1.8-.6 2-1.5l-.7-.2c-.2.7-.6 1-1.3 1-.8 0-1.4-.6-1.4-1.4h3.4v-.3c0-1.2-.7-2.1-2.1-2.1zm-1.3 1.9c.1-.7.6-1.3 1.3-1.3.8 0 1.2.6 1.2 1.3h-2.5zM103.2 57.2c-.6 0-1.2.4-1.4.9v-.8h-.8v4.2h.8v-2.4c0-.8.5-1.3 1.1-1.3.7 0 1 .4 1 1.2v2.6h.8V59c.1-1.1-.4-1.8-1.5-1.8zM107.8 57.8c.8 0 1.2.5 1.3 1.3h.7c-.1-1-.8-1.9-2-1.9-1.3 0-2.2.9-2.2 2.2 0 1.4.9 2.2 2.2 2.2 1.2 0 1.9-.8 2-1.9l-.7-.1c-.1.7-.5 1.3-1.3 1.3s-1.3-.6-1.3-1.6c0-.9.5-1.5 1.3-1.5zM112.7 57.2c-1.2 0-2.1 1-2.1 2.3 0 1.3.9 2.2 2.2 2.2 1.1 0 1.8-.6 2-1.5l-.8-.2c-.2.7-.6 1-1.3 1-.8 0-1.4-.6-1.4-1.4h3.4v-.3c0-1.2-.7-2.1-2-2.1zm-1.4 1.9c.1-.7.6-1.3 1.3-1.3.8 0 1.2.6 1.2 1.3h-2.5zM117.7 59.1l-.8-.1c-.4-.1-.7-.3-.7-.6 0-.4.3-.6.9-.6.7 0 1.1.3 1.2 1h.7c-.1-1-.7-1.5-1.9-1.5-1 0-1.6.5-1.6 1.3 0 .7.5 1.1 1.3 1.2l.7.1c.5.1.8.2.8.6 0 .4-.4.6-1 .6-.7 0-1.2-.3-1.3-1h-.7c.1 1 .9 1.5 1.9 1.5 1 0 1.7-.5 1.7-1.3.2-.7-.4-1-1.2-1.2zM3.9 0h7.4v12.5H3.9zM11.2 23.8h6.4v-3H3.9V36H0v2.3h11.2zM34.9 0h-7.3v36h-3.9v2.3h11.2zM94.3 28c1.1 0 2.1-.1 2.9-.4-1.3-1.2-1.9-3.2-1.9-6.3V0H88v19.1c0 5.8 1.5 8.9 6.3 8.9z"/>
  <path d="M91 36.5c2.8 1.6 6.3 2.5 10.5 2.5 11.1 0 17.5-5.9 17.5-16.1V0h-7.3v20.8c0 11.2-7.6 15.9-17.4 15.9-1.2 0-2.3-.1-3.3-.2zM60.5 9.9l-7-9.9h-7.2l14.2 20.1zM77.3 38.3V0h-7.4v36h-3.5l1.7 2.3zM53.6 23.7L45.7 13v23h-2.9v2.3h10.8z"/>
  <path fill="none" d="M-12.5-12.5h144v88.1h-144z"/>
</svg>
