<svg xmlns="http://www.w3.org/2000/svg" xmlns:xlink="http://www.w3.org/1999/xlink" viewBox="0 0 206.79 90.25"><defs><linearGradient id="a" x1="-288.36" y1="316.96" x2="-231.96" y2="316.96" gradientUnits="userSpaceOnUse"><stop offset="0" stop-color="#fff" stop-opacity="0"></stop><stop offset="0.25" stop-color="#fff" stop-opacity="0.51"></stop><stop offset="0.42" stop-color="#fff" stop-opacity="0.86"></stop><stop offset="0.51" stop-color="#fff"></stop><stop offset="1" stop-color="#fff" stop-opacity="0"></stop></linearGradient><clipPath id="c" transform="translate(297.57 -234.4)"><path d="M-260.16,320.53a40.86,40.86,0,0,1-28.2-11.25v4.11a40.85,40.85,0,0,0,28.2,11.25A40.85,40.85,0,0,0-232,313.4v-4.11a40.86,40.86,0,0,1-28.2,11.25" style="fill:url(#a)"></path></clipPath><linearGradient id="d" x1="-10.54" y1="592.76" x2="-9.54" y2="592.76" gradientTransform="translate(603.43 -33348.64) scale(56.4)" xlink:href="#a"></linearGradient><clipPath id="e" transform="translate(297.57 -234.4)"><path d="M-288.36,245.65v4.11a40.86,40.86,0,0,1,28.2-11.25A40.86,40.86,0,0,1-232,249.76v-4.11a40.85,40.85,0,0,0-28.2-11.25,40.85,40.85,0,0,0-28.2,11.25" style="fill:none"></path></clipPath><linearGradient id="f" x1="-10.54" y1="598.07" x2="-9.54" y2="598.07" gradientTransform="matrix(56.4, 0, 0, -56.4, 603.43, 33738.38)" xlink:href="#a"></linearGradient></defs><title>logo</title><path d="M-169.79,294.7h-0.34l-0.62,1.21h-1.73V290.4l0.82-.35v-0.24h-2.58v0.24l0.83,0.35v5.36l-0.83.35v0.24h4.29Zm-6.81-1.56c0,1.79-.77,2.93-2,2.93s-2-1.16-2-3c0-1.28.41-2.91,2-2.91s2,1.68,2,3m1-.15c0-1.83-1-3.27-3-3.27s-3.1,1.68-3.1,3.57a2.89,2.89,0,0,0,2.92,3.21c1.85,0,3.13-1.44,3.13-3.51m-8.75.15c0,1.79-.77,2.93-2,2.93s-2-1.16-2-3c0-1.28.41-2.91,2-2.91s2,1.68,2,3m1-.15c0-1.83-1-3.27-3-3.27s-3.1,1.68-3.1,3.57a2.89,2.89,0,0,0,2.92,3.21c1.85,0,3.13-1.44,3.13-3.51m-7.41,3.36v-0.24l-0.82-.35v-5.37l0.82-.34v-0.24h-2.58v0.24l0.83,0.34v2.29h-3v-2.29l0.82-.34v-0.24h-2.58v0.24l0.83,0.34v5.37l-0.83.35v0.24h2.58v-0.24l-0.82-.35v-2.58h3v2.58l-0.83.35v0.24h2.58Zm-8.09-1.7h-0.34l-0.61,1.22c-0.46,0-.57,0-0.85,0a2.37,2.37,0,0,1-2.09-.81,3.1,3.1,0,0,1-.57-2,3.19,3.19,0,0,1,.75-2.24,2.64,2.64,0,0,1,2.06-.75,5.83,5.83,0,0,1,.77,0l0.46,1.22h0.35v-1.48a7.05,7.05,0,0,0-1.8-.22,3.4,3.4,0,0,0-2.53.88,3.74,3.74,0,0,0-1,2.7,3.28,3.28,0,0,0,.79,2.28,3,3,0,0,0,2.43.87,6.31,6.31,0,0,0,1.12-.09c0.28-.06.59-0.13,1-0.24Zm-7.12,0a1.84,1.84,0,0,0-.29-1,2.4,2.4,0,0,0-.89-0.76l-1-.67a1.34,1.34,0,0,1-.82-1.11c0-.82.79-1,1.43-1a5,5,0,0,1,.58,0l0.47,1.18h0.36V290l-0.72-.15a5.28,5.28,0,0,0-1.07-.11,1.71,1.71,0,0,0-1.88,1.72,1.65,1.65,0,0,0,.22.88,2.43,2.43,0,0,0,.87.78l1,0.64a1.34,1.34,0,0,1,.85,1.19,1,1,0,0,1-.4.81,1.57,1.57,0,0,1-1,.23,5.65,5.65,0,0,1-.72-0.06l-0.48-1.21h-0.35v1.44c0.27,0.07.35,0.1,0.64,0.17a6,6,0,0,0,1.18.14,2.34,2.34,0,0,0,1.5-.47,1.64,1.64,0,0,0,.59-1.31" transform="translate(297.57 -234.4)" style="fill:#fff"></path><path d="M-107.33,277.6v-0.24h-2.19v0.24l0.82,0.35v4.14l-3.56-4.73h-1.61v0.24l0.83,0.35v5.36l-0.83.35v0.24h2.18v-0.24l-0.82-.35v-4.77l4,5.46h0.3v-6Zm-8.91,3.08c0,1.79-.78,2.93-2,2.93s-2-1.16-2-3c0-1.28.41-2.91,2-2.91s2,1.68,2,3m1-.15c0-1.83-1-3.27-3-3.27s-3.1,1.68-3.1,3.57a2.89,2.89,0,0,0,2.92,3.21c1.85,0,3.13-1.44,3.13-3.51m-7.4,3.36v-0.24l-0.82-.35v-5.36l0.82-.35v-0.24h-2.58v0.24l0.83,0.35v5.36l-0.83.35v0.24h2.58Zm-4-4.93v-1.61H-132V279h0.35l0.45-1.17h1.47v5.51l-1,.35v0.24h3v-0.24l-1-.35V277.8h1.43L-127,279h0.35Zm-8.63,1.92H-137l0.94-2.49c0.1,0.37.13,0.43,0.28,0.88Zm2.59,3v-0.24l-0.74-.36-2.14-6h-0.55l-2.46,6-0.75.36v0.24h2.14v-0.24l-0.75-.36,0.75-2h2.07l0.7,2-0.75.36v0.24h2.48Zm-7.93-1.7h-0.34l-0.61,1.22c-0.46,0-.57,0-0.85,0a2.37,2.37,0,0,1-2.09-.81,3.09,3.09,0,0,1-.57-2,3.19,3.19,0,0,1,.75-2.24,2.64,2.64,0,0,1,2.05-.75,5.85,5.85,0,0,1,.78,0L-141,279h0.36v-1.48a7.05,7.05,0,0,0-1.8-.22,3.39,3.39,0,0,0-2.53.88,3.74,3.74,0,0,0-1,2.7,3.28,3.28,0,0,0,.79,2.28,3,3,0,0,0,2.43.87,6.29,6.29,0,0,0,1.12-.09c0.28-.06.59-0.13,1-0.24Zm-6.77,1.7v-0.24l-0.82-.35v-5.36l0.82-.35v-0.24h-2.58v0.24l0.83,0.35v5.36l-0.83.35v0.24h2.58Zm-4.05-6.3v-0.24h-2.18v0.24l0.82,0.35v4.14l-3.56-4.73h-1.61v0.24l0.83,0.35v5.36l-0.83.35v0.24h2.18v-0.24l-0.82-.35v-4.77l4,5.46h0.3v-6Zm-7.94,0v-0.24h-2.29v0.24l0.82,0.35v3.92a1.46,1.46,0,0,1-1.73,1.64,1.45,1.45,0,0,1-1.65-1.69v-3.88l0.83-.35v-0.24h-2.58v0.24l0.82,0.35v4c0,1.44.76,2.09,2.41,2.09s2.52-.65,2.52-2.34v-3.7Zm-8,6.3v-0.24l-0.83-.35v-5.36l0.83-.35v-0.24h-1.86l-2,4.92-2-4.92h-1.92v0.24l0.82,0.35v5.36l-0.82.35v0.24h2.19v-0.24l-0.83-.35v-4.84l2.19,5.52h0.2l2.21-5.52v4.84l-0.82.35v0.24h2.58Zm-9.26,0v-0.24l-0.83-.35v-5.36l0.83-.35v-0.24h-1.86l-2,4.92-2-4.92h-1.92v0.24l0.82,0.35v5.36l-0.82.35v0.24h2.18v-0.24l-0.83-.35v-4.84l2.19,5.52h0.2l2.22-5.52v4.84l-0.82.35v0.24h2.58Zm-10.08-3.21c0,1.79-.78,2.93-2,2.93s-2-1.16-2-3c0-1.28.41-2.91,2-2.91s2,1.68,2,3m1-.15c0-1.83-1-3.27-3-3.27s-3.1,1.68-3.1,3.57A2.89,2.89,0,0,0-188.8,284c1.85,0,3.13-1.44,3.13-3.51m-7.63,1.66h-0.34l-0.61,1.22c-0.46,0-.57,0-0.85,0a2.37,2.37,0,0,1-2.09-.81,3.09,3.09,0,0,1-.57-2,3.19,3.19,0,0,1,.75-2.24,2.64,2.64,0,0,1,2.06-.75,5.84,5.84,0,0,1,.78,0l0.46,1.22h0.36v-1.48a7.05,7.05,0,0,0-1.8-.22,3.39,3.39,0,0,0-2.53.88,3.74,3.74,0,0,0-1,2.7,3.28,3.28,0,0,0,.79,2.28,3,3,0,0,0,2.43.87,6.29,6.29,0,0,0,1.12-.09c0.28-.06.59-0.13,1-0.24Zm-12.87,1a2.14,2.14,0,0,1-1.21.31,1.36,1.36,0,0,1-1.55-1.37,1.5,1.5,0,0,1,.65-1.25Zm-0.8-4.38a1.68,1.68,0,0,1-.3.93,2.39,2.39,0,0,1-.44.45l-0.2-.21a1.74,1.74,0,0,1-.58-1.17,0.74,0.74,0,0,1,.8-0.8,0.73,0.73,0,0,1,.73.8m3.19,1.63V280.2h-2.14v0.25l0.73,0.3v0.51a2.27,2.27,0,0,1-.35,1.35l-2-2.16a1.79,1.79,0,0,0,1.28-1.61,1.28,1.28,0,0,0-1.45-1.22,1.45,1.45,0,0,0-1.61,1.46,1.66,1.66,0,0,0,.33,1c0.11,0.15.17,0.21,0.43,0.51a1.83,1.83,0,0,0-1.35,1.6c0,1,.92,1.71,2.33,1.71a3.12,3.12,0,0,0,1.65-.43l0.32,0.38h1.44v-0.24l-0.75-.33-0.35-.38a2.48,2.48,0,0,0,.67-1.87v-0.33Z" transform="translate(297.57 -234.4)" style="fill:#fff"></path><path d="M-90.78,269v-0.24h-2.58V269l0.82,0.33V271a7.65,7.65,0,0,1-.88,0,2.28,2.28,0,0,1-2.09-1,3.08,3.08,0,0,1-.49-1.84,3.11,3.11,0,0,1,.77-2.24,2.63,2.63,0,0,1,2.12-.74,3.15,3.15,0,0,1,.79.07l0.44,1.21h0.37V265a9.85,9.85,0,0,0-1.9-.23,3.43,3.43,0,0,0-2.51.84,3.51,3.51,0,0,0-1,2.65,3.43,3.43,0,0,0,.82,2.35,3.23,3.23,0,0,0,2.35.89,6.29,6.29,0,0,0,1.23-.12c0.28-.06.6-0.13,1-0.23v-1.84Zm-7.45-3.87V264.9h-2.18v0.24l0.82,0.35v4.14l-3.56-4.73h-1.62v0.24l0.83,0.35v5.36l-0.83.35v0.24h2.19V271.2l-0.82-.35v-4.77l4,5.46h0.3v-6Zm-8.07,6.29V271.2l-0.82-.35v-5.36l0.82-.35V264.9h-2.58v0.24l0.83,0.35v5.36l-0.83.35v0.24h2.58Zm-4-4.93V264.9h-5.42v1.61h0.35l0.45-1.17h1.47v5.51l-1,.35v0.24h3V271.2l-1-.35v-5.51h1.43l0.45,1.17h0.35Zm-6.84,3.43h-0.33l-0.59,1.07h-2.15v-2.68h1.77l0.33,0.87h0.3V267h-0.3l-0.33.88h-1.77v-2.64h2.09l0.46,1.06h0.33V264.9H-122v0.24l0.83,0.35v5.36l-0.83.35v0.24h4.67Zm-9.43,1.5V271.2l-0.82-.35v-5.36l0.82-.35V264.9h-2.58v0.24l0.83,0.35v5.36l-0.83.35v0.24h2.58Zm3.21,0V271.2l-0.75-.35-2.29-3.19,2.16-2.18,0.73-.35V264.9h-2.18v0.24l0.66,0.29-2.25,2.55,2.38,3.46h1.54Zm-9.33-4.88a1.25,1.25,0,0,1-1.21,1.37h-0.65v-2.64h0.67a1.13,1.13,0,0,1,1.2,1.27m2.18,4.88V271.2l-0.76-.35-2-2.68a1.7,1.7,0,0,0,1.56-1.68,1.52,1.52,0,0,0-.55-1.21,2,2,0,0,0-1.45-.36h-2.64v0.24l0.83,0.35v5.37l-0.83.34v0.24h2.58V271.2l-0.82-.34v-2.53h0.35l2.14,3.11h1.57Zm-9.76-3H-142l0.94-2.49c0.1,0.36.13,0.43,0.28,0.88Zm2.59,3V271.2l-0.74-.36-2.14-6h-0.55l-2.46,6-0.75.36v0.24h2.14V271.2l-0.75-.36,0.75-2h2.06l0.7,2-0.75.36v0.24h2.47Zm-7.94,0V271.2l-0.83-.35v-5.36l0.83-.35V264.9h-1.86l-2,4.91-2-4.91h-1.92v0.24l0.82,0.35v5.36l-0.82.35v0.24h2.18V271.2l-0.83-.35V266l2.19,5.52h0.2l2.21-5.52v4.84l-0.82.35v0.24h2.58Zm-13-.34a0.68,0.68,0,0,0-.73-0.78,0.53,0.53,0,0,0-.59.53,0.49,0.49,0,0,0,.59.49h0.12a0.81,0.81,0,0,1-.62.84l0.12,0.31a1.86,1.86,0,0,0,.65-0.34,1.25,1.25,0,0,0,.45-1.06m-3.27-1.34a1.83,1.83,0,0,0-.29-1,2.37,2.37,0,0,0-.89-0.76l-1-.67a1.34,1.34,0,0,1-.82-1.11c0-.82.79-1,1.43-1a5.08,5.08,0,0,1,.58,0l0.47,1.18h0.36v-1.39l-0.72-.15a5.31,5.31,0,0,0-1.08-.11,1.71,1.71,0,0,0-1.88,1.72,1.64,1.64,0,0,0,.22.88,2.42,2.42,0,0,0,.87.77l1,0.64a1.34,1.34,0,0,1,.85,1.19,1,1,0,0,1-.4.81,1.57,1.57,0,0,1-1,.23A5.65,5.65,0,0,1-165,271l-0.48-1.21h-0.36v1.44c0.27,0.07.36,0.1,0.64,0.17a6,6,0,0,0,1.18.14,2.34,2.34,0,0,0,1.51-.47,1.64,1.64,0,0,0,.59-1.31m-5.75,0a1.83,1.83,0,0,0-.29-1,2.37,2.37,0,0,0-.89-0.76l-1-.67a1.34,1.34,0,0,1-.82-1.11c0-.82.79-1,1.43-1a5.09,5.09,0,0,1,.58,0l0.47,1.18h0.36v-1.39l-0.72-.15a5.31,5.31,0,0,0-1.08-.11,1.71,1.71,0,0,0-1.88,1.72,1.65,1.65,0,0,0,.22.88,2.43,2.43,0,0,0,.87.77l1,0.64a1.34,1.34,0,0,1,.85,1.19,1,1,0,0,1-.4.81,1.57,1.57,0,0,1-1,.23,5.65,5.65,0,0,1-.72-0.06l-0.48-1.21h-0.35v1.44c0.27,0.07.35,0.1,0.64,0.17a6,6,0,0,0,1.18.14,2.34,2.34,0,0,0,1.5-.47,1.64,1.64,0,0,0,.59-1.31m-5.73.18h-0.33l-0.59,1.07h-2.15v-2.68h1.77l0.33,0.87h0.3V267h-0.3l-0.33.88h-1.77v-2.64h2.09l0.46,1.06h0.33V264.9h-4.63v0.24l0.83,0.35v5.36l-0.83.35v0.24h4.67Zm-6.3-4.79V264.9h-2.18v0.24l0.82,0.35v4.14l-3.56-4.73h-1.62v0.24l0.83,0.35v5.36l-0.83.35v0.24H-184V271.2l-0.82-.35v-4.77l4,5.46h0.3v-6Zm-8.07,6.29V271.2l-0.82-.35v-5.36l0.82-.35V264.9h-2.58v0.24l0.83,0.35v5.36l-0.83.35v0.24h2.58Zm-4.16-1.68a1.83,1.83,0,0,0-.29-1,2.37,2.37,0,0,0-.89-0.76l-1-.67a1.34,1.34,0,0,1-.82-1.11c0-.82.79-1,1.43-1a5.08,5.08,0,0,1,.58,0l0.47,1.18h0.36v-1.39l-0.72-.15a5.31,5.31,0,0,0-1.08-.11,1.71,1.71,0,0,0-1.88,1.72,1.64,1.64,0,0,0,.22.88,2.42,2.42,0,0,0,.87.77l1,0.64a1.34,1.34,0,0,1,.85,1.19,1,1,0,0,1-.4.81,1.57,1.57,0,0,1-1,.23A5.65,5.65,0,0,1-195,271l-0.48-1.21h-0.35v1.44c0.27,0.07.35,0.1,0.64,0.17a6,6,0,0,0,1.18.14,2.34,2.34,0,0,0,1.51-.47,1.64,1.64,0,0,0,.59-1.31m-5.2-4.62V264.9h-2.29v0.24l0.82,0.35v3.92a1.46,1.46,0,0,1-1.73,1.65,1.45,1.45,0,0,1-1.64-1.69v-3.88l0.83-.35V264.9h-2.58v0.24l0.82,0.35v4c0,1.44.76,2.09,2.41,2.09s2.52-.65,2.52-2.34v-3.7Zm-8.81,4.57A1.27,1.27,0,0,1-207.4,271h-0.69v-2.72h0.68a1.34,1.34,0,0,1,1.49,1.38m-0.29-3.15a1.29,1.29,0,0,1-1.2,1.35h-0.68v-2.63h0.7a1.14,1.14,0,0,1,1.18,1.27m1.31,3.19a1.47,1.47,0,0,0-.84-1.41,2.21,2.21,0,0,0-1.07-.27,2.12,2.12,0,0,0,.81-0.26,1.52,1.52,0,0,0,.8-1.35,1.54,1.54,0,0,0-.55-1.2,2.12,2.12,0,0,0-1.42-.36h-2.68v0.24l0.83,0.35v5.36l-0.83.35v0.24h2.7a2.41,2.41,0,0,0,1.69-.46,1.68,1.68,0,0,0,.55-1.23" transform="translate(297.57 -234.4)" style="fill:#fff"></path><path d="M-260.16,320.53a40.86,40.86,0,0,1-28.2-11.25v4.11a40.85,40.85,0,0,0,28.2,11.25A40.85,40.85,0,0,0-232,313.4v-4.11a40.86,40.86,0,0,1-28.2,11.25" transform="translate(297.57 -234.4)" style="fill:url(#a)"></path><g style="clip-path:url(#c)"><rect x="9.21" y="74.88" width="56.4" height="15.36" style="fill:url(#d)"></rect></g><g style="clip-path:url(#e)"><rect x="9.21" width="56.4" height="15.36" style="fill:url(#f)"></rect></g><path d="M-237.37,280.66l3.47-9.57,3.47,9.57h-6.93Zm-7.64,9.84h7.8v-2.67h-2.67l1.63-4.63h8.67l1.63,4.63h-2.53v2.67h7.8v-2.7h-2l-6.1-16.57h2.47v-2.67h-11v2.67h2.43l-6.1,16.57h-2v2.7Zm-9.27.4c4.3,0,7.43-2.37,7.43-6.37s-2.83-5.24-6.6-6.64c-2.5-1-4.47-1.87-4.47-4,0-1.83,1.47-3.13,3.9-3.13a5.38,5.38,0,0,1,3.27.93,1.94,1.94,0,0,0-.37,1.17,1.94,1.94,0,0,0,2,1.93,2,2,0,0,0,1.93-2.17c0-2.43-3-4.5-6.83-4.5-4.23,0-7,2.57-7,6,0,3.9,2.83,5.23,6.77,6.7,2.33,0.87,4.33,1.83,4.33,3.9s-1.7,3.47-4.37,3.47a6.35,6.35,0,0,1-4-1.17,2.44,2.44,0,0,0,.43-1.43,1.91,1.91,0,0,0-2-1.83,2.05,2.05,0,0,0-2,2.3c0,2.37,3.2,4.8,7.5,4.8m-13.18-.3,1.67,0v-19.3h2.57v-2.7h-8.3v2.7h2.8V284l-11.87-15.47h-5.27v2.7h2.67v16.54h-2.67v2.7h8.4v-2.7h-2.8V273.92Zm-30.12-.1h8.7v-2.7h-2.83V271.25h2.83v-2.7h-8.7v2.7h2.87v16.54h-2.87v2.7Z" transform="translate(297.57 -234.4)" style="fill:#fff"></path></svg>