<svg id="logo" xmlns="http://www.w3.org/2000/svg" width="200" height="40" viewBox="0 0 200 40">
  <path id="Path_1" data-name="Path 1" d="M88.1,1.1H73.967A2.07,2.07,0,0,0,71.9,3.233V16.3a2.092,2.092,0,0,0,2.067,2.267H88.1a2.213,2.213,0,0,0,2.2-2.2V3.233A2.167,2.167,0,0,0,88.1,1.1Zm-.067,15.2h-14V3.233H88.1V16.3Z" transform="translate(-23.967 -0.367)" fill="#0054a7"/>
  <path id="Path_2" data-name="Path 2" d="M88.2,8.533V6.4H77.4V8.6h4.333V9.933H77.4v2.2h4.333v2.8H77.4v2.2H88.2v-2.2H86.6L87.8,14l-1.333-1.867H88.2v-2.2H83.933V8.6H88.2Zm-2.667,3.533A5.767,5.767,0,0,1,84.4,12.8c1,1.2,1.267,1.8,1.267,2.067H83.8v-2.8Zm22.6,3.333h4.8v2.533c0,.533-.2.533-.667.667a3.281,3.281,0,0,1-1.067.067v2.067c3.267.133,3.8-.933,3.8-2.267V15.4h4.6V13.2H108.067v2.2Z" transform="translate(-25.8 -2.133)" fill="#0054a7"/>
  <path id="Path_3" data-name="Path 3" d="M130.067,6.667A7.014,7.014,0,0,0,132,3.467c.4-2-1.533-2.133-2.2-2.133h-1.6v2.2h1.467a2.635,2.635,0,0,1-1.133,1.6,5.533,5.533,0,0,1-1.4-3.733h-2.8L122.4.6a12.386,12.386,0,0,1-3.333,4.933,9.221,9.221,0,0,0,.467-4.2H114V18.6h2.067V8.6s1.267.267,1.267,2.133-1.133,2-1.133,2l.867,1.867a4.132,4.132,0,0,0,2.333-3.467A4.891,4.891,0,0,0,118.267,7.4a7.553,7.553,0,0,0,.6-1.333l1.4,1.467.6-.6.667.733a18.093,18.093,0,0,1-1.667,1.267l1.2,1.733a9.974,9.974,0,0,0,1.8-1.4v1.067h6.467V8.8a13.48,13.48,0,0,0,2.133,1.533s.533-1,1.067-1.933a12.592,12.592,0,0,1-2.467-1.733ZM116,6.2V3.467h1.333A2.942,2.942,0,0,1,116,6.2Zm6.4.6-.733-.867c.133-.2.333-.4.467-.6l.8.933Zm.533-2.6a2.085,2.085,0,0,0,.333-.667h1.4A7.894,7.894,0,0,1,123.933,5l-1-.8Zm1,4a18.808,18.808,0,0,0,2.133-2.867A16.139,16.139,0,0,0,128.6,8.2Z" transform="translate(-38 -0.2)" fill="#0054a7"/>
  <path id="Path_4" data-name="Path 4" d="M125.767,14.6a7.554,7.554,0,0,1-1.733-1,10.451,10.451,0,0,1-3.333,2.667l1.533,1.6A12.327,12.327,0,0,0,125.767,14.6Zm5.2.067,1.8-1.067a11.337,11.337,0,0,1,2.867,3l-1.867,1.267A13.955,13.955,0,0,0,130.967,14.667Zm24.867-7.4h7.8v-2.2h-7.8V.267H153.3v4.8h-8.067v2.2H153.3c-.133,6.067-8.267,8.733-8.267,8.733a9.8,9.8,0,0,1,1.733,2.267,16.846,16.846,0,0,0,7.733-6.333,21.743,21.743,0,0,0,7.667,6.467,14.142,14.142,0,0,1,.867-1.2,6.639,6.639,0,0,1,1.067-1.067c-6.467-2.733-8.2-6.333-8.267-8.867Zm34.733-3.533h-2A14.9,14.9,0,0,0,190.367,1l-1.8-1A13.694,13.694,0,0,1,185.7,3.733h-1.333l.8-.867-2.4-2.733-1.533,1.333,1.8,2.267h-3.067l.8-.867L178.433.133l-1.6,1.333,1.8,2.267h-2.667a1.639,1.639,0,0,0-1.8,1.667v3H176.3V5.933h13.867V8.467h2.067V5.2c0-.933-.4-1.467-1.667-1.467Z" transform="translate(-40.233)" fill="#0054a7"/>
  <path id="Path_5" data-name="Path 5" d="M176.167,15.1h-6.533c.467-.267,2.2-1.4,2.467-2.8a1.678,1.678,0,0,0-1.6-2.2h-8.6v2.133h7.6a2.879,2.879,0,0,1-2.267,1.467H165.7v1.4h-8.2v2.133h8.2V19.5c0,.4-.533.8-2.6.533l.867,2.2a5.2,5.2,0,0,0,3-.6,2.262,2.262,0,0,0,.8-1.733V17.3H176.1V15.1ZM71.767,25.5H74.5v7.2H71.767ZM90.233,35.833h2.733v7.2H90.233ZM78.3,32.633H75.633V25.5h2.4L81.5,29.367V25.5h2.6v7.133H81.567l-3.2-3.533Zm5.467,10.4H81.033v-7.2h2.4L86.9,39.7V35.833h2.6v7.2H86.967l-3.2-3.533Zm29.467-10.4H110.5V25.5h2.467l3.4,3.867V25.5h2.6v7.133H116.5L113.233,29.1ZM92.567,25.5H84.7v1.733h2.6v5.4h2.667v-5.4h2.6Zm8.267,1.6V25.5h-7.6v7.133h7.8v-1.6H95.967V29.9h4.067V28.167h-4v-1Zm9.733,10.4V35.9h-7.6v7.133h7.8v-1.6H105.7V40.3h4.067V38.567h-4v-1Zm-.4-9.8c0-1.267-.867-2.2-2.667-2.2h-5.8v7.2h2.8V30.033h1.267l1.467,2.667H110.1l-1.6-2.667A2.254,2.254,0,0,0,110.167,27.7Zm-3.8.533H104.5V27.167h1.8c.533,0,1,.2,1,.6.067.467-.467.467-.933.467Zm13.533,9.8c0-1.267-.867-2.2-2.667-2.2h-5.8v7.2h2.8V40.367H115.5l1.467,2.667h2.867l-1.6-2.667A2.326,2.326,0,0,0,119.9,38.033Zm-3.8.533h-1.867V37.5h1.8c.533,0,1,.2,1,.6.067.467-.467.467-.933.467Zm10.067-5.933h2.867l-3.2-7.2H122.7l-3.133,7.2h2.8l.333-.933h3.067l.4.933Zm-2.8-2.6.867-2.267.867,2.267Zm30.067,2.6H150.7V25.5h2.4l3.467,3.867V25.5h2.6v7.133h-2.533l-3.2-3.533Zm64.667,10.4h-2.667v-7.2h2.4L221.3,39.7V35.833h2.6v7.2h-2.533l-3.2-3.533Zm-52.067-10.4H168.9l-3.2-7.2h-3.133l-3.133,7.2h2.8l.333-.933h3.067Zm-2.8-2.6.867-2.267.867,2.267Zm48.733,13h2.867l-3.2-7.2H208.5l-3.133,7.2h2.8l.4-1h3.067Zm-2.733-2.667L210.1,38.1l.867,2.267Zm-13.667,2.667h2.867l-3.2-7.2H192.1l-3.133,7.2h2.8l.333-.933h3.067Zm-2.8-2.667.867-2.267.867,2.267ZM135.833,25.5h-7.8v1.733h2.6v5.4H133.3v-5.4h2.533Zm4,10.333h-7.8v1.733h2.6v5.467H137.3V37.567h2.533ZM136.567,25.5h2.8v7.2h-2.8Zm-7.733,10.333h2.8v7.2h-2.8ZM145.1,24.967c-2.667,0-4.867,1.733-4.867,3.933s2.2,3.933,4.867,3.933,4.867-1.733,4.867-3.933S147.767,24.967,145.1,24.967Zm0,6.2a2.276,2.276,0,1,1,2.067-2.267A2.213,2.213,0,0,1,145.1,31.167ZM162.9,35.5c-2.667,0-4.867,1.733-4.867,3.933s2.2,3.933,4.867,3.933,4.867-1.733,4.867-3.933S165.567,35.5,162.9,35.5Zm0,6.2a2.276,2.276,0,1,1,2.067-2.267A2.17,2.17,0,0,1,162.9,41.7Zm9.133-10.867V25.5h-2.6v7.133H176.1v-1.8Zm-100.333,5h2.8V39.9a1.519,1.519,0,0,0,1.6,1.6,1.453,1.453,0,0,0,1.6-1.6V35.833h2.6v4.6c0,1.267-.8,2.667-4.2,2.667-3.467,0-4.4-1.533-4.4-2.533V35.833Zm25.067,7.2h2.467l3.333-7.2H99.7l-1.667,3.933-1.6-3.933H93.5Zm31.333-5.4h-2.8s-.067-.6-1.2-.6c-1.067,0-1.067.4-1.067.533,0,.067,0,.467.867.6a11.988,11.988,0,0,1,3.533.933,2.049,2.049,0,0,1,.867,1.867c0,1.333-1.867,2.267-4.267,2.267S119.9,42.3,119.9,40.9h2.933a1.5,1.5,0,0,0,1.4.667c1.067,0,1.2-.333,1.2-.6s-.2-.533-.667-.6a21.274,21.274,0,0,1-3.4-.733,1.966,1.966,0,0,1-.4-3.4s.933-.867,3.333-.667C126.833,35.633,128.1,36.3,128.1,37.633Zm15.333,5.4h2.733V40.767l3.133-4.933h-3l-1.533,2.533L143.1,35.833h-3l3.333,5Zm24.867-7.2h7.8v1.733h-4.933V38.5h4.067v1.867h-4.067v2.667H168.3Zm20.8-.067h-2.667v4.667c0,.8-.4.867-.667.867h-.933v1.733a8.664,8.664,0,0,0,2.4.133c1.133-.133,1.867-.667,1.867-1.867C189.033,40.033,189.1,35.767,189.1,35.767Zm15.333.067h-5.667v7.133H201.5V40.433h3a2.131,2.131,0,0,0,2.267-2.267A2.2,2.2,0,0,0,204.433,35.833ZM203.3,38.7h-1.8v-.933h1.8c.533,0,.6.333.6.533a.553.553,0,0,1-.6.4Z" transform="translate(-23.9 -3.367)" fill="#0054a7"/>
  <g id="Group_32" data-name="Group 32" transform="translate(0 0.267)">
    <path id="Path_6" data-name="Path 6" d="M35.933.4H3.533A3.5,3.5,0,0,0,0,3.867V36.6a3.557,3.557,0,0,0,3.533,3.533h32.4a3.5,3.5,0,0,0,3.533-3.467V3.867A3.543,3.543,0,0,0,35.933.4ZM35.8,36.467H3.533V3.8H35.867V36.467Z" transform="translate(0 -0.4)" fill="#0054a7"/>
    <path id="Path_7" data-name="Path 7" d="M33.4,8.8H26.867V31.4H25.2v6.467a5.9,5.9,0,0,0,1.667-.133,7.879,7.879,0,0,0,6.4-6.267L33.4,30.8c0-.2.067-.333.067-.533V8.8Zm-15.6,0h6.533v29A7.824,7.824,0,0,1,17.8,30.333V8.8" transform="translate(-5.933 -3.2)" fill="#0054a7"/>
  </g>
</svg>
