<?xml version="1.0" encoding="UTF-8"?>
<svg xmlns="http://www.w3.org/2000/svg" id="Ebene_1" data-name="Ebene 1" viewBox="0 0 1564.31147 172.53692">
  <defs>
    <style>.cls-1{fill:#1a1a18;}</style>
  </defs>
  <title>JKU_Hauptlogo_en_schwarz_quer_cmyk</title>
  <path class="cls-1" d="M60.68146,172.07112c20.14018,0,36.83479-5.829,48.22935-17.22351,11.129-11.1312,17.48906-27.56025,17.48906-49.55491V.99821H84.53058v102.44c0,21.46356-9.54008,30.7381-24.90913,30.7381-12.98566,0-23.32021-6.889-33.91812-18.54908L-.00245,144.24751c12.72012,15.10351,31.80028,27.82361,60.68391,27.82361" transform="translate(0.00245 0.20091)"></path>
  <polygon class="cls-1" points="342.2 1.181 249.453 80.638 156.705 1.181 156.705 50.205 249.453 129.645 156.705 129.645 156.705 169.982 342.2 169.982 342.2 129.645 249.453 129.645 342.2 50.205 342.2 1.181"></polygon>
  <path class="cls-1" d="M452.79351,172.336c49.81827,0,81.353-27.56023,81.353-83.73857V.99754H493.33723v89.191c0,29.41472-15.10352,44.51823-40.01482,44.51823-24.90913,0-40.01262-15.63461-40.01262-45.84379V.99754h-40.8093V89.923c0,54.5894,30.47475,82.413,80.293,82.413" transform="translate(0.00245 0.20091)"></path>
  <path class="cls-1" d="M599.43011,69.9651A27.81306,27.81306,0,0,1,577.17523,59.761L586.602,49.26539c3.8877,4.27588,7.67773,6.80274,12.43945,6.80274,5.63672,0,9.13575-3.40137,9.13575-11.27344V.9651h15.35449V45.47487C623.53168,61.99635,613.8139,69.9651,599.43011,69.9651Z" transform="translate(0.00245 0.20091)"></path>
  <path class="cls-1" d="M671.63422,70.15944c-20.99219,0-36.05567-15.64649-36.05567-34.98584v-.19434c0-19.33935,15.25781-35.18017,36.25-35.18017,20.99121,0,36.05469,15.64648,36.05469,34.98583v.19434C707.88324,54.31862,692.62543,70.15944,671.63422,70.15944Zm20.60254-35.18018c0-11.66211-8.55176-21.38037-20.60254-21.38037S651.225,23.12282,651.225,34.78492v.19434c0,11.66211,8.55273,21.38037,20.60351,21.38037s20.40821-9.52392,20.40821-21.186Z" transform="translate(0.00245 0.20091)"></path>
  <path class="cls-1" d="M763.5639,68.99342V41.68483H735.96429V68.99342H720.9975V.9651h14.96679V27.885H763.5639V.9651h14.9668V68.99342Z" transform="translate(0.00245 0.20091)"></path>
  <path class="cls-1" d="M845.29047,68.99342l-6.21973-15.25781h-28.7666l-6.21973,15.25781H788.8266L817.98187.47926h13.79981L860.937,68.99342ZM824.68793,18.45826l-9.03809,22.06055H833.726Z" transform="translate(0.00245 0.20091)"></path>
  <path class="cls-1" d="M918.95062,68.99342,886.00629,25.74684V68.99342H871.23383V.9651h13.80078l31.876,41.88623V.9651h14.77149V68.99342Z" transform="translate(0.00245 0.20091)"></path>
  <path class="cls-1" d="M995.52679,68.99342,962.58246,25.74684V68.99342H947.81V.9651h13.80078l31.876,41.88623V.9651h14.77148V68.99342Z" transform="translate(0.00245 0.20091)"></path>
  <path class="cls-1" d="M1024.38617,68.99342V.9651h51.31348v13.314h-36.44434V28.07936h32.07031v13.314h-32.07031V55.67946H1076.185v13.314Z" transform="translate(0.00245 0.20091)"></path>
  <path class="cls-1" d="M1113.50043,69.9651a43.28858,43.28858,0,0,1-28.86328-10.88428l8.84277-10.59326c6.123,5.05371,12.53711,8.26074,20.31152,8.26074,6.123,0,9.81543-2.42968,9.81543-6.41406v-.19433c0-3.79-2.332-5.73389-13.70215-8.64942-13.70312-3.49853-22.54687-7.28857-22.54687-20.79736v-.19434c0-12.34228,9.91309-20.50537,23.80957-20.50537A39.37649,39.37649,0,0,1,1136.435,8.64284l-7.77442,11.27294c-6.02539-4.17871-11.95312-6.70556-17.6875-6.70556-5.73339,0-8.74609,2.624-8.74609,5.92822v.19434c0,4.47021,2.915,5.92822,14.6748,8.94091,13.79981,3.59571,21.57422,8.55225,21.57422,20.40821v.19482C1138.476,62.385,1128.17523,69.9651,1113.50043,69.9651Z" transform="translate(0.00245 0.20091)"></path>
  <path class="cls-1" d="M1224.186,68.99342,1203.09711,40.033l-7.8711,8.16309V68.99342h-14.96679V.9651H1195.226V30.70338L1222.82562.9651h18.07617l-27.69726,28.86328,28.96094,39.165Z" transform="translate(0.00245 0.20091)"></path>
  <path class="cls-1" d="M1251.00433,68.99342V.9651h51.31348v13.314h-36.44434V28.07936h32.07032v13.314h-32.07032V55.67946h36.92969v13.314Z" transform="translate(0.00245 0.20091)"></path>
  <path class="cls-1" d="M1342.25629,48.58473h-11.37012V68.99342h-14.9668V.9651h27.79492c16.2295,0,26.04493,9.62109,26.04493,23.51856V24.678C1369.75922,40.42164,1357.5141,48.58473,1342.25629,48.58473Zm12.34277-23.80957c0-6.70557-4.665-10.30176-12.14844-10.30176h-11.56445V35.27076h11.85644c7.48243,0,11.85645-4.47021,11.85645-10.30126Z" transform="translate(0.00245 0.20091)"></path>
  <path class="cls-1" d="M1380.64008,68.99342V.9651h14.96679V55.388h33.917V68.99342Z" transform="translate(0.00245 0.20091)"></path>
  <path class="cls-1" d="M1440.59808,68.99342V.9651h51.31348v13.314h-36.44434V28.07936h32.07032v13.314h-32.07032V55.67946h36.92969v13.314Z" transform="translate(0.00245 0.20091)"></path>
  <path class="cls-1" d="M1546.81586,68.99342l-14.57715-21.769h-11.75879v21.769h-14.9668V.9651h31.09864c16.03515,0,25.65625,8.45508,25.65625,22.44922v.19434c0,10.98193-5.92774,17.88183-14.57715,21.08886l16.61816,24.2959Zm.292-44.80127c0-6.41406-4.4707-9.71875-11.75879-9.71875h-14.86914V34.00758h15.16016c7.28906,0,11.46777-3.88769,11.46777-9.62109Z" transform="translate(0.00245 0.20091)"></path>
  <path class="cls-1" d="M612.3559,172.08571c-18.27051,0-29.44629-10.20411-29.44629-30.22364V102.98854h14.96582V141.4734c0,11.07861,5.53906,16.8125,14.6748,16.8125,9.13477,0,14.67481-5.53955,14.67481-16.32666v-38.9707h14.96582v38.38721C642.19086,161.97877,630.6264,172.08571,612.3559,172.08571Z" transform="translate(0.00245 0.20091)"></path>
  <path class="cls-1" d="M704.67523,171.01686,671.7309,127.77028v43.24658H656.95844V102.98854h13.80078l31.876,41.88623V102.98854h14.77149v68.02832Z" transform="translate(0.00245 0.20091)"></path>
  <path class="cls-1" d="M733.19574,171.01686V102.98854h14.96582v68.02832Z" transform="translate(0.00245 0.20091)"></path>
  <path class="cls-1" d="M797.41156,171.5027h-13.2168l-27.50293-68.51416h16.52149l17.78418,47.91162,17.78515-47.91162h16.13184Z" transform="translate(0.00245 0.20091)"></path>
  <path class="cls-1" d="M833.3559,171.01686V102.98854h51.31347v13.314H848.225v13.8003h32.07031v13.314H848.225v14.28613h36.92968v13.314Z" transform="translate(0.00245 0.20091)"></path>
  <path class="cls-1" d="M939.40863,171.01686l-14.57715-21.769H913.07269v21.769H898.1059V102.98854h31.09863c16.03516,0,25.65625,8.45508,25.65625,22.44922v.19433c0,10.98194-5.92774,17.88184-14.57715,21.08887l16.61816,24.2959Zm.292-44.80127c0-6.41406-4.4707-9.71875-11.75879-9.71875H913.07269V136.031h15.16016c7.28906,0,11.46777-3.8877,11.46777-9.6211Z" transform="translate(0.00245 0.20091)"></path>
  <path class="cls-1" d="M990.80511,171.98854a43.28862,43.28862,0,0,1-28.86328-10.88428l8.84278-10.59326c6.123,5.05371,12.53711,8.26074,20.31152,8.26074,6.12305,0,9.81543-2.42969,9.81543-6.41406v-.19434c0-3.79-2.332-5.73388-13.70215-8.64941-13.70312-3.49854-22.54687-7.28858-22.54687-20.79736v-.19434c0-12.34229,9.91308-20.50537,23.80957-20.50537a39.37656,39.37656,0,0,1,25.26758,8.64941l-7.77442,11.273c-6.02539-4.17871-11.95312-6.70556-17.6875-6.70556-5.7334,0-8.74609,2.624-8.74609,5.92822v.19433c0,4.47022,2.915,5.92823,14.6748,8.94092,13.79981,3.59571,21.57422,8.55225,21.57422,20.40821v.19482C1015.7807,164.40846,1005.47992,171.98854,990.80511,171.98854Z" transform="translate(0.00245 0.20091)"></path>
  <path class="cls-1" d="M1027.92621,171.01686V102.98854H1042.892v68.02832Z" transform="translate(0.00245 0.20091)"></path>
  <path class="cls-1" d="M1087.52679,116.78883v54.228H1072.56v-54.228h-20.69922V102.98854H1108.227v13.80029Z" transform="translate(0.00245 0.20091)"></path>
  <path class="cls-1" d="M1155.01605,143.9026v27.11426h-14.96582V144.1941l-26.14258-41.20556h17.49317l16.22949,27.30859,16.52148-27.30859h17.00684Z" transform="translate(0.00245 0.20091)"></path>
  <path class="cls-1" d="M1219.63519,171.01686V102.98854h14.9668v54.42285h33.917v13.60547Z" transform="translate(0.00245 0.20091)"></path>
  <path class="cls-1" d="M1277.562,171.01686V102.98854h14.96582v68.02832Z" transform="translate(0.00245 0.20091)"></path>
  <path class="cls-1" d="M1355.86957,171.01686l-32.94434-43.24658v43.24658h-14.77246V102.98854h13.80078l31.876,41.88623V102.98854H1368.601v68.02832Z" transform="translate(0.00245 0.20091)"></path>
  <path class="cls-1" d="M1380.83246,171.01686V159.64625l37.416-43.53808h-36.249V102.98854h55.49121v11.3706l-37.415,43.53809h37.415v13.11963Z" transform="translate(0.00245 0.20091)"></path>
</svg>
