<?xml version="1.0" encoding="UTF-8"?><svg id="b" xmlns="http://www.w3.org/2000/svg" viewBox="0 0 1155.33 392.32"><defs><style>.d{fill:#07181e;}.d,.e,.f{stroke-width:0px;}.e{fill:#ff1238;}.f{fill:#005f7b;}</style></defs><g id="c"><path class="f" d="M196.16,23.3c46.17,0,89.58,17.98,122.23,50.63,32.65,32.65,50.63,76.06,50.63,122.23s-17.98,89.58-50.63,122.23c-32.65,32.65-76.06,50.63-122.23,50.63s-89.58-17.98-122.23-50.63c-32.65-32.65-50.63-76.06-50.63-122.23s17.98-89.58,50.63-122.23c32.65-32.65,76.06-50.63,122.23-50.63M196.16,0C87.82,0,0,87.82,0,196.16s87.82,196.16,196.16,196.16,196.16-87.82,196.16-196.16S304.5,0,196.16,0h0Z"/><path class="f" d="M207.81,146.05c0,21.21,17.25,38.46,38.46,38.46h48.97v-87.05h-87.43v48.59Z"/><path class="e" d="M246.27,207.81c-34.06,0-61.76-27.71-61.76-61.76v-48.59h-87.43v160.32c0,21.18,16.59,33.41,37.41,38.92,20.83,5.5,62.13,16.42,62.13,16.42,0,0,40.37-10.92,61.21-16.42,20.82-5.51,37.41-17.74,37.41-38.92v-49.97h-48.97Z"/><path class="d" d="M541.89,184.84h-76v-99.88h23.31v79.47h52.69v20.41Z"/><path class="d" d="M570.68,180.43c-8.01-4.39-14.33-10.52-18.96-18.38-4.63-7.86-6.95-16.86-6.95-27s2.32-19.04,6.95-27,10.95-14.16,18.96-18.6c8.01-4.44,16.84-6.66,26.49-6.66,8.69,0,16.62,1.71,23.81,5.14,7.19,3.43,13.15,8.28,17.88,14.55,4.73,6.27,7.86,13.51,9.41,21.71h-23.74c-1.83-6.37-5.14-11.36-9.92-14.98-4.78-3.62-10.59-5.43-17.44-5.43-5.41,0-10.3,1.3-14.69,3.91-4.39,2.61-7.84,6.27-10.35,11-2.51,4.73-3.76,10.13-3.76,16.21s1.25,11.34,3.76,16.07c2.51,4.73,5.96,8.42,10.35,11.07,4.39,2.66,9.29,3.98,14.69,3.98,6.56,0,12.21-1.66,16.94-4.99,4.73-3.33,8.11-8.03,10.13-14.11h23.74c-1.64,8.01-4.83,15.06-9.55,21.14-4.73,6.08-10.66,10.76-17.8,14.04-7.14,3.28-14.96,4.92-23.45,4.92-9.65,0-18.48-2.19-26.49-6.59Z"/><path class="d" d="M683.91,184.84h-23.31v-99.88h23.31v99.88Z"/><path class="d" d="M548.55,265.68c2.99,4.2,4.49,9.05,4.49,14.55,0,8.88-3.21,15.73-9.63,20.56-6.42,4.83-14.94,7.24-25.55,7.24h-51.97v-99.88h51.1c10.42,0,18.53,2.29,24.32,6.88,5.79,4.58,8.69,11.12,8.69,19.61,0,5.02-1.16,9.46-3.47,13.32-2.32,3.86-5.45,6.71-9.41,8.54,4.63,1.93,8.44,4.99,11.44,9.19ZM488.33,227.82v20.85h26.78c3.67,0,6.54-.96,8.61-2.9,2.07-1.93,3.11-4.49,3.11-7.67s-1.04-5.69-3.11-7.53c-2.08-1.83-4.95-2.75-8.61-2.75h-26.78ZM518.15,288.04c3.76,0,6.66-.94,8.69-2.82,2.03-1.88,3.04-4.42,3.04-7.6s-1.06-5.86-3.18-7.75c-2.12-1.88-4.97-2.82-8.54-2.82h-29.82v20.99h29.82Z"/><path class="d" d="M617.12,235.64h22v72.38h-22v-8.25c-2.32,3.09-5.33,5.6-9.05,7.53-3.72,1.93-7.89,2.9-12.52,2.9-6.47,0-12.21-1.67-17.23-5-5.02-3.33-8.93-7.84-11.73-13.53-2.8-5.69-4.2-12.06-4.2-19.11s1.54-13.7,4.63-19.69c3.09-5.98,7.29-10.71,12.59-14.19,5.31-3.47,11.15-5.21,17.52-5.21,4.44,0,8.37.94,11.8,2.82,3.42,1.88,6.15,4.37,8.18,7.46v-8.11ZM613.21,285.15c2.99-3.47,4.49-7.91,4.49-13.32s-1.52-9.72-4.56-13.25c-3.04-3.52-7.02-5.28-11.94-5.28s-8.9,1.74-11.94,5.21c-3.04,3.47-4.56,7.91-4.56,13.32s1.52,9.84,4.56,13.32,7.02,5.21,11.94,5.21,9.02-1.74,12.02-5.21Z"/><path class="d" d="M702.5,234.34v23.74c-1.84-.29-3.57-.43-5.21-.43-5.89,0-10.83,1.54-14.84,4.63-4.01,3.09-6.01,8.01-6.01,14.77v30.98h-22v-72.38h21.42v12.3c2.7-4.25,6.34-7.58,10.93-9.99,4.58-2.41,9.48-3.62,14.69-3.62h1.01Z"/><path class="d" d="M726.59,305.34c-5.98-3.33-10.69-7.91-14.11-13.75-3.43-5.84-5.14-12.38-5.14-19.61s1.71-13.95,5.14-19.83c3.42-5.89,8.13-10.5,14.11-13.83,5.98-3.33,12.59-4.99,19.83-4.99,6.56,0,12.62,1.45,18.17,4.34,5.55,2.9,10.08,6.85,13.61,11.87,3.52,5.02,5.62,10.67,6.3,16.94h-21.71c-.97-3.96-2.85-7.14-5.65-9.55-2.8-2.41-6.27-3.62-10.42-3.62-4.92,0-8.98,1.76-12.16,5.28-3.18,3.52-4.78,7.99-4.78,13.39s1.59,9.58,4.78,13.1c3.18,3.52,7.24,5.28,12.16,5.28,4.05,0,7.53-1.23,10.42-3.69,2.9-2.46,4.78-5.62,5.65-9.48h21.86c-.68,6.27-2.78,11.92-6.3,16.94-3.52,5.02-8.06,8.97-13.61,11.87-5.55,2.89-11.65,4.34-18.31,4.34-7.24,0-13.85-1.67-19.83-4.99Z"/><path class="d" d="M812.08,276.46c.67,4.63,2.58,8.35,5.72,11.15,3.13,2.8,6.92,4.2,11.36,4.2,4.05,0,7.21-.72,9.48-2.17,2.27-1.45,4.08-3.62,5.43-6.51h22.29c-1.16,5.12-3.5,9.75-7.02,13.9-3.52,4.15-7.91,7.41-13.17,9.77-5.26,2.36-10.93,3.55-17.01,3.55-7.72,0-14.48-1.64-20.27-4.92-5.79-3.28-10.28-7.84-13.46-13.68-3.18-5.84-4.78-12.47-4.78-19.9s1.64-13.92,4.92-19.76c3.28-5.84,7.86-10.42,13.75-13.75,5.89-3.33,12.59-4.99,20.12-4.99s14.26,1.71,19.9,5.14c5.65,3.43,9.96,8.13,12.96,14.11,2.99,5.99,4.49,12.74,4.49,20.27,0,1.35-.05,2.56-.14,3.62h-54.57ZM818.09,253.88c-3.04,2.32-4.95,5.45-5.72,9.41h33c-.68-3.96-2.51-7.09-5.5-9.41-2.99-2.32-6.51-3.47-10.57-3.47-4.44,0-8.18,1.16-11.22,3.47Z"/><path class="d" d="M899.96,308.02h-22v-99.88h22v99.88Z"/><path class="d" d="M930.06,305.34c-5.98-3.33-10.69-7.94-14.11-13.83-3.43-5.88-5.14-12.45-5.14-19.69s1.71-13.92,5.14-19.76c3.42-5.84,8.13-10.42,14.11-13.75,5.98-3.33,12.59-4.99,19.83-4.99s13.82,1.67,19.76,4.99c5.94,3.33,10.64,7.91,14.11,13.75,3.47,5.84,5.21,12.43,5.21,19.76s-1.74,13.8-5.21,19.69c-3.47,5.89-8.18,10.5-14.11,13.83-5.94,3.33-12.52,4.99-19.76,4.99s-13.85-1.67-19.83-4.99ZM961.83,285.07c3.14-3.52,4.71-7.94,4.71-13.25s-1.54-9.84-4.63-13.32c-3.09-3.47-7.09-5.21-12.02-5.21s-8.95,1.74-12.09,5.21c-3.14,3.47-4.71,7.91-4.71,13.32s1.57,9.72,4.71,13.25c3.13,3.52,7.17,5.28,12.09,5.28s8.81-1.76,11.94-5.28Z"/><path class="d" d="M1061.09,240.56c4.49,4.73,6.73,11.1,6.73,19.11v48.35h-22v-42.42c0-3.57-.92-6.49-2.75-8.76-1.83-2.27-4.78-3.4-8.83-3.4s-7.05,1.18-9.26,3.55c-2.22,2.37-3.33,5.33-3.33,8.9v42.12h-22v-72.38h21.57v7.38c2.61-2.9,5.81-5.21,9.63-6.95,3.81-1.74,7.89-2.61,12.23-2.61,7.53,0,13.54,2.37,18.02,7.09Z"/><path class="d" d="M1133.33,235.64h22v72.38h-22v-8.25c-2.32,3.09-5.33,5.6-9.05,7.53-3.72,1.93-7.89,2.9-12.52,2.9-6.47,0-12.21-1.67-17.23-5-5.02-3.33-8.93-7.84-11.73-13.53-2.8-5.69-4.2-12.06-4.2-19.11s1.54-13.7,4.63-19.69c3.09-5.98,7.29-10.71,12.59-14.19,5.31-3.47,11.15-5.21,17.52-5.21,4.44,0,8.37.94,11.8,2.82,3.42,1.88,6.15,4.37,8.18,7.46v-8.11ZM1129.42,285.15c2.99-3.47,4.49-7.91,4.49-13.32s-1.52-9.72-4.56-13.25c-3.04-3.52-7.02-5.28-11.94-5.28s-8.9,1.74-11.94,5.21c-3.04,3.47-4.56,7.91-4.56,13.32s1.52,9.84,4.56,13.32,7.02,5.21,11.94,5.21,9.02-1.74,12.01-5.21Z"/></g></svg>