<?xml version="1.0" encoding="UTF-8"?><svg id="Layer_1" xmlns="http://www.w3.org/2000/svg" version="1.1" viewBox="0 0 1046.5 332.5"><defs><style> .st0 { fill: #ab0c2f; } .st1 { fill: #fff; } .st2 { fill: #0076a5; } </style></defs><path class="st2" d="M331.4,30.5h50.9v199.4h113.8v45h-164.7V30.5ZM807.7,176.6V30.5h50.9v140.9c0,41.8,18.3,61.7,50.5,61.7s50.5-19.9,50.5-61.7V30.5h50.9v146c0,67.2-40.2,102.3-101.5,102.3s-101.5-35-101.5-102.3M645.3,222.3l-70.4-105v157.6h-49.7V30.5h47.4l74,115.4,73.6-115.4h46.6v244.3h-50.1V117.3l-69.6,105h-1.6Z"/><path class="st1" d="M165.1,30.5H35.7v123.1c0,20.6,5.1,41.3,14.6,59.8,9.5,18.5,23.6,35,40.8,47.7l65.4,48.9,65.4-48.9c17.1-12.7,31.2-29.2,40.8-47.7,9.6-18.5,14.6-39.2,14.6-59.8V30.5h-112.1Z"/><path class="st2" d="M269.2,38.7v114.9c0,19.3-4.7,38.6-13.7,55.9-8.9,17.3-22.1,32.7-38.2,44.6l-60.8,45.5-60.8-45.5c-16.1-11.9-29.3-27.3-38.2-44.6-9-17.3-13.7-36.7-13.7-55.9V38.7h225.3ZM257.5,153.6V50.4H55.6v103.2c0,17.4,4.3,34.9,12.4,50.6,8.1,15.7,20.1,29.8,34.8,40.6l53.8,40.3,53.8-40.3c14.6-10.9,26.7-24.9,34.8-40.6,8.1-15.7,12.4-33.2,12.4-50.6"/><path class="st2" d="M152.8,58.3H63.4v77h89.4V58.3ZM83.6,111h-5.2v-18.9h5.2v18.9ZM118.7,116.9h-5.1v-13.2h-6.5v21.7h-5.1v-21.7h-6.5v13.2h-5.1v-30.6h5.1v12.3h6.5v-18.9h-6.5v-5.1h6.5v-8h5.1v8h6.5v5.1h-6.5v18.9h6.5v-12.3h5.1v30.6ZM130.2,111.2c-2.5,0-5-.7-6.5-1.8v-4.4c1.7,1.5,4.2,2.4,6.3,2.4s3-.6,3-1.8-1-1.6-2.3-2l-1.8-.5c-3.6-1-5.2-2.7-5.2-5.5s2.9-5.7,7.2-5.7,4.2.5,5.9,1.6v4.3c-1.9-1.4-3.8-2.1-5.6-2.1s-2.7.7-2.7,1.8.9,1.5,2.1,1.9l2.1.6c3.6,1,5.1,2.7,5.1,5.6s-2.9,5.7-7.6,5.7"/><path class="st2" d="M249.8,58.3h-89.4v77h89.4V58.3ZM196.8,77.1l2.1-10.2,6.5,9,5.6-9,3.5,10.2,8.9-5.6-1.7,10.4c-1.5-.5-3.1-.7-4.7-.7-4.4,0-8.5,1.7-11.6,4.8l-.2.2-.2-.2c-3.1-3.1-7.2-4.8-11.6-4.8s-2.2.1-3.2.3l-2.2-10.1,8.9,5.6ZM205.1,124.6l-19.8-18.8c-3.4-3.4-4.2-8.5-2.3-12.6l26.9,26.9-4.8,4.5ZM224.9,105.7l-9.4,9-27.1-27.1c1.6-.8,3.2-1.1,4.9-1.1,2.9,0,5.8,1.1,8,3.3l3.8,3.7,3.8-3.7c2.2-2.2,5.1-3.3,8-3.3s5.8,1.1,8,3.3c4.4,4.4,4.4,11.6,0,16"/><path class="st0" d="M204.8,206.4c4.2-.9,3.7-3.2,7.3-4.1,2.4-.6,2.7,1.6,7.3.4,0,0-1.7-.2-3.7-2-2.2-2.1-4.9-2.9-9.6-1.4-3.9,1.2-4.8-2.9-9.9-3.4-4-.4-5.6.6-7.2.6h0c2.1-1,15.3-7.6,26.6-15.8,0,0-15.1,1-30.9,5.2,12.6-12.8,20-24.2,20-24.2,0,0-6.5,2.8-15.1,7.8-3.5,2-7.4,4.4-11.4,7.2.8-1.2,2.4-2.2,3.9-5.6,2.1-4.6-1-7.5,2-10.2,3.7-3.3,4.3-6.1,3.6-9-.6-2.6,0-4.2,0-4.2-3.3,3.3-1.6,4.7-3.3,6.5-2.6,2.7-4.4,1.1-7.2,4.3-3.9,4.3-1.4,7.7-5.1,9-3.4,1.2-4.2,2.6-4.4,3.3.4-4.8.4-9.5.4-13.5,0-9.9-.8-16.9-.8-16.9,0,0-6.1,12.1-10.9,29.4-4.8-17.3-10.9-29.4-10.9-29.4,0,0-.8,7.1-.8,16.9,0,4.1,0,8.7.4,13.5-.2-.7-1-2.1-4.4-3.3-3.6-1.3-1.2-4.7-5.1-9-2.8-3.2-4.6-1.6-7.2-4.3-1.7-1.8,0-3.1-3.3-6.5,0,0,.7,1.6,0,4.2-.7,2.9,0,5.7,3.6,9,3,2.7,0,5.6,2,10.2,1.5,3.4,3.1,4.4,3.9,5.6-4-2.7-7.9-5.1-11.4-7.2-8.5-5-15.1-7.8-15.1-7.8,0,0,7.4,11.4,20,24.2-15.8-4.2-30.9-5.2-30.9-5.2,11.3,8.1,24.5,14.7,26.6,15.8h0c-1.5,0-3.2-1-7.2-.6-5.1.5-6,4.6-9.9,3.4-4.7-1.5-7.4-.7-9.6,1.4-1.9,1.9-3.7,2-3.7,2,4.6,1.2,4.9-1,7.3-.4,3.6.9,3.2,3.2,7.3,4.1,5.6,1.2,7.3-2.6,10.3-.1,2.2,1.9,3.7,2.2,4.5,2.2-4.2,2-8.1,4.1-11.4,6.1-8.6,4.9-14.3,9.2-14.3,9.2,0,0,13.5-.7,30.9-5.3-12.6,12.8-20,24.2-20,24.2,0,0,6.5-2.8,15.1-7.8,3.4-2,7.2-4.3,11.1-7-.4.8-.7,2.2-.2,4.9.7,3.8-3.5,3.4-5.2,8.9-1.3,4,.9,4.8,0,8.4-.6,2.4-2.7,1.5-3.9,6.1,0,0,1-1.4,3.6-2.2,2.9-.8,5-2.8,6-7.6.8-4,4.9-2.7,7.9-6.9,2.2-3.1,2.3-5,2.9-6.3-.3,4.7-.5,10.1-.5,14,0,9.9.8,16.9.8,16.9,0,0,6.1-12.1,10.9-29.4,4.8,17.3,10.9,29.4,10.9,29.4,0,0,.8-7.1.8-16.9,0-3.9-.2-9.3-.5-14,.6,1.3.7,3.2,2.9,6.3,3,4.1,7,2.9,7.9,6.9,1,4.8,3.1,6.8,6,7.6,2.6.8,3.6,2.2,3.6,2.2-1.2-4.6-3.3-3.7-3.9-6.1-1-3.6,1.2-4.3,0-8.4-1.8-5.5-5.9-5.1-5.2-8.9.5-2.6.2-4.1-.2-4.9,3.9,2.6,7.7,5,11.1,7,8.5,5,15.1,7.8,15.1,7.8,0,0-7.4-11.4-20-24.2,17.4,4.5,30.9,5.3,30.9,5.3,0,0-5.7-4.3-14.3-9.2-3.4-2-7.2-4-11.4-6.1.9,0,2.3-.4,4.5-2.2,3-2.5,4.7,1.3,10.3.1"/><path class="st1" d="M164,224.2l-2.6,6.1-4.9-1.7-4.9,1.7-2.6-6.1,7.5-2.6,7.5,2.6ZM180.8,198.2l-8.7,12.5-.8,5.7-4.9,5.4-9.9-3.4-9.9,3.4-4.9-5.4-.8-5.7-8.7-12.5c.7-12.8,11.6-21.5,11.6-21.5l12.7,4.1,12.7-4.1s10.9,8.7,11.6,21.5M163.8,209.8h-14.7l7.3,7,7.3-7ZM141.3,191.5s-1.7,7.2,6.7,8.1l-.7-5.6-6-2.5ZM165.8,194l-.7,5.6c8.4-.9,6.7-8.1,6.7-8.1l-6,2.5Z"/></svg>
