<?xml version="1.0" encoding="utf-8"?>
<!-- Generator: Adobe Illustrator 27.6.1, SVG Export Plug-In . SVG Version: 6.00 Build 0)  -->
<svg version="1.1" id="Layer_1" xmlns="http://www.w3.org/2000/svg" xmlns:xlink="http://www.w3.org/1999/xlink" x="0px" y="0px"
	 viewBox="0 0 1080 506" style="enable-background:new 0 0 1080 506;" xml:space="preserve">
<style type="text/css">
	.st0{fill:#E42313;}
	.st1{fill:#FFFFFF;}
</style>
<g>
	<path class="st0" d="M377.5,62.9L198.8,49.2L23.5,62.3c0,0-1.2,38.3-1.2,85.9c0,243.4,177.7,308.3,177.7,308.3
		s178.8-64.2,178.8-307.7C378.7,101.2,377.5,62.9,377.5,62.9z"/>
	<g>
		<path class="st1" d="M206.2,204.7c-34.7,0-66.2,11.3-79.1,16.6c-1.4-4.5-1-7.4-0.2-9.3c3-0.2,5.3-2.6,5.3-5.5
			c0-3.1-2.6-5.6-5.8-5.6c-0.3,0-0.5,0.1-0.8,0.1c-0.3,0-0.6,0.1-0.9,0.2c-0.3,0.1-0.6,0.2-0.9,0.3l-0.3,0.2c-0.1,0-0.3,0.2-0.6,0.5
			c-0.2,0.2-0.4,0.3-0.6,0.5c-1.9,1.7-7.7,8.1-4.3,20.2c-2,0.8-3.4,2.6-4.1,5c-1.9-1-3.9-1.1-5.7-0.5c-2.1,0.8-3.6,2.7-4.2,5.2
			c-1.9-1-3.9-1.3-5.7-0.6c-2.1,0.8-3.6,2.7-4.1,5.3c-1.9-1.1-4-1.4-5.8-0.7c-2.1,0.8-3.5,2.8-4,5.5c-1.9-1.3-4-1.6-5.9-0.9
			c-3.7,1.4-5.1,6.6-3.2,11.6c1.9,4.9,6.5,7.9,10.2,6.4c1.9-0.7,3.3-2.6,3.8-4.9c2,1.4,4.4,1.9,6.4,1.1c1.9-0.7,3.3-2.5,3.9-4.7
			c2,1.3,4.3,1.7,6.3,0.9c1.9-0.7,3.3-2.4,3.9-4.6c2.1,1.3,4.3,1.6,6.2,0.8c1.9-0.7,3.3-2.3,4-4.5c2.1,1.2,4.3,1.4,6.2,0.7
			c0.3-0.1,0.7-0.3,1-0.5c1.2,4.5,0.3,7.4-0.5,8.9c-0.1,0-0.1,0-0.2,0c-3.2,0-5.8,2.5-5.8,5.6c0,3.9,4.3,7,8.5,4.8l0.4-0.1
			c0.5-0.3,5.4-3.3,7.1-10.3c1-4.1,0.6-8.7-1.1-13.6c16.2-4.4,32.4-6.6,48.3-6.6c27.8,0,46.2,6.9,50.1,8.6
			c5.2-8.4,14.1-12.6,20.5-9.2c6.6,3.5,8.1,13.6,3.7,22.8l9.7,9.1h57.6v-1C325.5,253.5,304.8,207.4,206.2,204.7z"/>
	</g>
	<path class="st1" d="M205.5,284c-0.6,0-1.1,0-1.7,0c-22.4,0-50.6,9-62.6,13.3c-1.3-3.7-1-6.2-0.3-7.7c2.5-0.3,4.4-2.3,4.4-4.7
		c0-2.6-2.2-4.7-4.9-4.7c-0.3,0-0.5,0.1-0.7,0.1c-0.3,0-0.5,0.1-0.8,0.2c-0.3,0.1-0.5,0.2-0.7,0.3l-0.3,0.1c0,0-0.3,0.2-0.6,0.4
		c-0.2,0.1-0.4,0.3-0.5,0.4c-2.1,1.9-6.5,7.3-3.4,17.4c-0.2,0-0.4,0.1-0.6,0.2c-1.7,0.7-3,2.1-3.6,4.1c-1.6-0.7-3.3-0.9-4.7-0.3
		c-1.7,0.7-3,2.2-3.6,4.2c-1.6-0.8-3.3-1-4.7-0.4c-1.7,0.7-3,2.2-3.5,4.3c-1.6-0.9-3.3-1.1-4.8-0.5c-1.7,0.7-3,2.3-3.4,4.5
		c-1.6-1-3.4-1.2-4.9-0.6c-1.3,0.5-2.3,1.5-2.9,2.9c-0.9,2-0.9,4.6,0.1,7.1c1.6,4.2,5.6,6.7,8.7,5.5c1.6-0.6,2.7-2.1,3.2-4
		c1.7,1.2,3.7,1.5,5.3,0.8c1.6-0.6,2.7-2,3.2-3.9c1.7,1.1,3.7,1.3,5.3,0.7c1.6-0.6,2.7-1.9,3.3-3.8c1.7,1,3.6,1.2,5.2,0.6
		c1.5-0.6,2.7-1.9,3.4-3.7c1.7,0.9,3.6,1.1,5.2,0.5c0.5-0.2,0.9-0.4,1.4-0.8c0.5,2.8,0,4.6-0.7,5.8c0,0,0,0-0.1,0
		c-2.7,0-4.9,2.1-4.9,4.7c0,2.6,2.2,4.7,4.9,4.7c0.8,0,1.5-0.2,2.3-0.6l0.3-0.1c0.5-0.3,4.5-2.7,5.9-8.5c0.8-3.3,0.6-6.2-0.5-9.9
		c14.2-4,28-6,41-6c18,0,29.4,3.9,33.1,5.3c5-7.7,13.3-11.5,19.3-8.3c5.9,3.1,7.5,11.8,4.2,20.1l8.8,7.7h46.4v-1
		C301.1,323.3,284.5,286.2,205.5,284z"/>
	<path class="st1" d="M203.7,353.1l-0.8,0c-20.1,0-34.9,5.2-45.8,9.1l-1.3,0.4c-1.4-3.6-1-5.2-0.4-6.4c2.1-0.3,3.8-2,3.8-4.1
		c0-2.3-1.9-4.2-4.3-4.2c-0.2,0-0.4,0.1-0.6,0.1c-0.2,0-0.5,0.1-0.8,0.1c-0.2,0.1-0.4,0.2-0.6,0.2l-0.3,0.1c-0.1,0-0.3,0.2-0.5,0.4
		c-0.2,0.1-0.3,0.3-0.4,0.4c-1.4,1.2-5.5,5.9-3,14.6c0,0-0.1,0-0.1,0c-1.3,0.5-2.3,1.7-2.9,3.2c-1.3-0.6-2.6-0.6-3.7-0.2
		c-1.4,0.5-2.3,1.7-2.8,3.3c-1.3-0.6-2.6-0.7-3.7-0.3c-1.4,0.5-2.4,1.8-2.8,3.4c-1.3-0.7-2.6-0.8-3.8-0.4c-1.4,0.5-2.4,1.8-2.8,3.5
		c-1.3-0.7-2.6-0.9-3.8-0.4c-1.1,0.4-1.9,1.2-2.4,2.4c-0.7,1.6-0.7,3.7,0.1,5.7c1.3,3.4,4.6,5.5,7.2,4.4c1.3-0.5,2.2-1.6,2.6-3.1
		c1.4,0.9,2.9,1.1,4.2,0.6c1.2-0.5,2.2-1.6,2.6-3c1.4,0.8,2.9,1,4.1,0.5c1.2-0.5,2.2-1.5,2.7-3c1.4,0.8,2.8,0.9,4.1,0.4
		c1.2-0.5,2.1-1.5,2.7-2.8c1.4,0.7,2.8,0.8,4.1,0.3c0.3-0.1,0.5-0.3,0.8-0.4c0.6,2.6,0.2,4.3-0.3,5.3c-2.4,0-4.3,1.9-4.3,4.1
		c0,2.3,1.9,4.2,4.3,4.2c0.7,0,1.3-0.2,2-0.5l0.3-0.1c0.6-0.4,3.9-2.5,5-7.3c0.7-3,0.6-5.6-0.5-8.8c10.8-2.9,21.1-4.4,30.7-4.4
		c11.3,0,18.6,2.1,21.8,3.2c4.3-6,10.9-8.7,15.8-6.2c4.8,2.5,6.3,9.4,3.9,16.3l6.6,5.4h35.1v-1C275.7,381,262.7,354.4,203.7,353.1z"
		/>
	<path class="st1" d="M253.2,95.1c-1.1-0.5-2.2-0.7-3.3-0.7c-3.1,0-5.9,1.8-7.2,4.6c-0.4,0.9-0.7,1.9-0.7,3l-4.3,1.6l2.8,7.8
		c-3.3,5.7-7.1,11.3-9.4,14.6c-5.3-1.8-16.2-3.8-23.9-4.1c-0.5-2.7-2.2-12.1-3.1-21.3l5.9-5.9l-3.2-3.2c0.4-1,0.6-2,0.6-3
		c0-4.3-3.6-7.9-7.9-7.9c-4.3,0-7.9,3.5-7.9,7.9c0,1,0.2,2,0.6,3l-3.2,3.2l5.9,5.9c-0.8,8.8-2.6,18.6-3.2,21.4
		c-9.1,0.5-17.3,1.9-23.3,4c-2.2-3.2-6-8.8-9.4-14.6l2.8-7.8l-4.3-1.6c0-1.1-0.3-2.1-0.7-3c-1.3-2.8-4.1-4.5-7.2-4.5
		c-1.1,0-2.3,0.2-3.3,0.7c-3.9,1.8-5.6,6.5-3.8,10.5c0.4,0.9,1,1.8,1.8,2.5l-1.5,4.3l7.9,2.9c3.1,6.9,7.6,35.3,7.6,35.7
		c1.5,8.4,18.9,14.6,41.3,14.6c22.7,0,39.7-6,41.2-14.5c0.2-1.1,0.4-2.7,0.8-4.6c1.5-9,4.1-25.6,6.9-31l7.9-2.9l-1.5-4.3
		c0.8-0.7,1.4-1.5,1.8-2.5C258.9,101.7,257.2,97,253.2,95.1z M199.9,158.4c-20.1,0-35.8-3.3-35.8-7.5c0-5.1,18-7.4,35.8-7.4
		c17.2,0,35.8,2.3,35.8,7.4C235.7,155.1,220,158.4,199.9,158.4z"/>
	<g id="MU_London_Dubai_2_">
		<path d="M504.8,163.7c-0.1-2.5-6.5-67.3-6.5-67.3c-0.6-6.4-0.4-12.3-0.4-12.3h-0.3c0,0-1,5.8-3,12.3c0,0-18.2,63.9-19.4,67.3
			h-10.7c-1-3-19.2-67.5-19.2-67.5c-1.8-6.4-3-12.1-3-12.1H442c0,0,0.1,5.8-0.4,12.1c0,0-6.4,64.5-6.5,67.5h-15.8l11.4-101.8h18.9
			l18.2,65.2c1.8,6.5,2.7,11.4,2.7,11.4h0.3c0,0,0.7-4.9,2.7-11.4l18.8-65.2h18.9l11.4,101.8H504.8z"/>
		<path d="M548.5,70.2c-5.5,0-9.9-4-9.9-8.9c0-5,4.4-9,9.9-9c5.6,0,9.9,4,9.9,9C558.4,66.2,554.2,70.2,548.5,70.2z M539.5,163.7V84
			h18v79.7H539.5z"/>
		<path d="M611.5,165.2c-23.5,0-37.1-15.1-37.1-40.4c0-26,14.2-41.6,34.9-41.6c4.4,0,8.4,0.4,12,1.5V47.6h18v111.8
			C633,163,624,165.2,611.5,165.2z M621.3,94.5c-2.5-0.7-5.2-1-8-1c-15.7,0-21,13.5-21,30.3c0,18,5.8,29.9,19.7,29.9
			c4.3,0,7.2-0.4,9.3-1.8V94.5z"/>
		<path d="M692.7,165.2c-23.5,0-37.1-15.1-37.1-40.4c0-26,14.2-41.6,34.9-41.6c4.4,0,8.4,0.4,12,1.5V47.6h18v111.8
			C714.2,163,705.2,165.2,692.7,165.2z M702.5,94.5c-2.5-0.7-5.2-1-8-1c-15.7,0-21,13.5-21,30.3c0,18,5.8,29.9,19.7,29.9
			c4.3,0,7.3-0.4,9.3-1.8V94.5z"/>
		<path d="M741.4,163.7V47.6h18v116.1H741.4z"/>
		<path d="M793.6,130.4c1.5,14.8,8.6,22.2,21.8,22.2c9.2,0,15.8-2.2,20.1-4.4l4.3,11.4c-5.6,3.1-14.2,5.6-26.3,5.6
			c-22.6,0-37-14.6-37-41.6c0-26,13.2-41.1,34-41.1c21.2,0,32.7,14.1,32,40.8L793.6,130.4z M809.8,93.6c-10.5,0-17.7,8.6-17.3,27.7
			l33-5C825.5,100.1,819.8,93.6,809.8,93.6z"/>
		<path d="M875.5,165c-9.3,0-17.3-2.5-22-5.8l4.7-11.5c3,2.4,8.4,4.6,14.9,4.6c7.4,0,12.3-4.7,12.3-11.2c0-6.8-3.6-10.1-11.7-13.2
			c-15.1-5.8-18.2-14.1-18.2-22.3c0-12.7,10.1-23.1,25.3-23.1c8.9,0,15.5,2.2,20.7,5.6l-4.4,10.5c-2.4-1.9-7.1-4.4-12.7-4.4
			c-7.4,0-11.4,4.9-11.4,10.5c0,6.5,4.9,9.8,11.8,12.6c15.5,6.2,19.1,14.2,19.1,23.5C903.9,153.8,892.9,165,875.5,165z"/>
		<path d="M933.9,130.4c1.5,14.8,8.6,22.2,21.7,22.2c9.2,0,15.8-2.2,20.1-4.4l4.3,11.4c-5.6,3.1-14.2,5.6-26.3,5.6
			c-22.6,0-37-14.6-37-41.6c0-26,13.2-41.1,34-41.1c21.1,0,32.7,14.1,32,40.8L933.9,130.4z M950.2,93.6c-10.5,0-17.8,8.6-17.3,27.7
			l33-5C965.9,100.1,960.1,93.6,950.2,93.6z"/>
		<path d="M1038.2,163.7l-14.9-29h-0.3l-15.2,29h-18.3l24.7-41.3L991.9,84h18.9l13.5,26h0.3l14-26h17l-22.6,37.3l25,42.5H1038.2z"/>
		<path d="M456.5,309.3c-20,0-33.6-12.7-33.6-31.2v-72.2h18.8v72c0,10.9,7.1,16.9,15.5,16.9c8.6,0,15.4-5.9,15.4-16.9v-72h17.5v72.2
			C490.1,296.5,476.5,309.3,456.5,309.3z"/>
		<path d="M555,307.6v-56.5c0-6.5-3-13.3-14.3-13.3c-5.9,0-9,0.9-12.4,2.2v67.6h-18v-75.4c7.5-3.6,17.8-5.8,31.2-5.8
			c23.8,0,31.7,11.5,31.7,24.4v56.8H555z"/>
		<path d="M601.9,214.2c-5.5,0-9.9-4-9.9-8.9c0-5,4.4-9,9.9-9c5.6,0,9.9,4,9.9,9C611.8,210.2,607.5,214.2,601.9,214.2z M592.9,307.6
			v-79.7h18v79.7H592.9z"/>
		<path d="M667.5,307.6h-17.2l-26-79.7h19.2l14,51.5c1.6,5.8,1.9,10.9,1.9,10.9h0.3c0,0,0.4-5,2.1-10.9l14.4-51.5H693L667.5,307.6z"
			/>
		<path d="M717.8,274.4c1.5,14.8,8.6,22.2,21.7,22.2c9.2,0,15.8-2.2,20.1-4.4l4.3,11.4c-5.6,3.1-14.2,5.6-26.3,5.6
			c-22.6,0-37-14.6-37-41.6c0-26,13.2-41.1,34-41.1c21.1,0,32.7,14.1,32,40.8L717.8,274.4z M734.1,237.5c-10.5,0-17.8,8.6-17.3,27.7
			l33-5C749.8,244,744,237.5,734.1,237.5z"/>
		<path d="M818,239.7c-6.1-2.1-12.7-1.8-16.9,0.6v67.3h-18.1v-75.4c8.3-4,18.3-6.2,38.5-5.6L818,239.7z"/>
		<path d="M850.5,309c-9.3,0-17.3-2.5-22-5.8l4.7-11.5c3,2.4,8.4,4.6,14.9,4.6c7.4,0,12.3-4.7,12.3-11.2c0-6.8-3.5-10.1-11.7-13.2
			c-15.1-5.8-18.2-14.1-18.2-22.3c0-12.7,10.1-23.1,25.3-23.1c8.9,0,15.5,2.2,20.7,5.6l-4.4,10.5c-2.4-1.9-7.1-4.4-12.7-4.4
			c-7.4,0-11.4,4.9-11.4,10.5c0,6.5,4.9,9.8,11.8,12.6c15.5,6.2,19.1,14.2,19.1,23.5C878.9,297.7,868,309,850.5,309z"/>
		<path d="M904.4,214.2c-5.5,0-9.9-4-9.9-8.9c0-5,4.4-9,9.9-9c5.6,0,9.9,4,9.9,9C914.3,210.2,910,214.2,904.4,214.2z M895.3,307.6
			v-79.7h18.1v79.7H895.3z"/>
		<path d="M959.7,308.5c-15.7,0-21.9-10.5-21.9-21.6v-47.5h-8.9v-11.5h8.9v-17.6l18-5v22.6h13v11.5h-13V286c0,6.2,2.5,10.4,8.7,10.4
			c1.6,0,2.8-0.3,4.3-0.7v11.2C967.2,307.6,963.9,308.5,959.7,308.5z"/>
		<path d="M1009.8,339.4h-19.1l13-31.8l-26.3-79.7h19.2l13.8,51.6c1.6,6.2,1.6,11.4,1.6,11.4h0.3c0,0,0.5-5.2,2.2-11.4l14.8-51.6
			h16.9L1009.8,339.4z"/>
		<path d="M450.8,458c-11.7,0-21.6-2.4-26.9-5.5v-93.6c5.9-3.3,15.2-5.6,26.3-5.6c28.1,0,42.3,19.8,42.3,51.3
			C492.5,436,479.6,458,450.8,458z M449.9,362c-5.3,0-9,0.6-12.6,2.1v82.4c3,1.2,7.5,1.9,12.7,1.9c20.6,0,28.4-15.2,28.4-43.9
			C478.4,376.5,469.3,362,449.9,362z"/>
		<path d="M539.2,458.2c-20,0-28.3-10.1-28.3-26v-55.3h13v55.8c0,9.3,5,16.4,16,16.4c6.2,0,10.7-1,14.3-3.3v-68.9h13v75
			C561.4,455.2,552.1,458.2,539.2,458.2z"/>
		<path d="M612.1,458c-10.8,0-19.1-2.5-23.8-5.6v-112h12.9v39c4-2.1,8.4-3.7,16.3-3.7c18.3,0,30.9,15.4,30.9,39.5
			C648.4,440.9,635.8,458,612.1,458z M614.2,383.5c-5.9,0-9.3,1-13,3.1v61.1c3,1.5,7.1,1.9,11.2,1.9c16.4,0,22.9-13.8,22.9-33.9
			C635.4,398.2,629.3,383.5,614.2,383.5z"/>
		<path d="M692.6,458c-20.7,0-30.3-9-30.3-23.5c0-21.2,19.8-27.4,44.5-29.9v-4.9c0-12.3-7.4-15.8-17.6-15.8c-7.7,0-14.8,2.8-19.2,5
			l-3.1-7.7c4.6-2.5,13.5-5.9,24.4-5.9c14.8,0,27.8,6.4,27.8,25.9v51.2C713,455.8,703.7,458,692.6,458z M706.8,411.3
			c-20.1,2.5-32.1,6.8-32.1,22.9c0,11.5,7.1,16.3,18.9,16.3c5,0,9.9-0.9,13.2-2.7V411.3z"/>
		<path d="M747.5,361.4c-4.3,0-7.7-3.3-7.7-7.1c0-4,3.4-7.3,7.7-7.3c4.1,0,7.5,3.3,7.5,7.3C755,358.2,751.6,361.4,747.5,361.4z
			 M740.9,456.5v-79.7h13v79.7H740.9z"/>
	</g>
</g>
</svg>
