<svg width="295" height="65" viewBox="0 0 295 65" fill="none" xmlns="http://www.w3.org/2000/svg">
<g clip-path="url(#clip0_2724_28)">
<path d="M233.829 10.3241C233.393 9.91128 232.787 9.12282 232.787 9.12282C232.787 9.12282 232.915 10.0913 232.915 10.7232V14.4034H231.23V5.54639H231.41L235.82 9.7039C236.244 10.105 236.848 10.9052 236.848 10.9052C236.848 10.9052 236.733 9.91128 236.733 9.30478V5.62269H238.418V14.4797H238.239L233.829 10.3221V10.3241Z" fill="white"/>
<path d="M241.182 5.62256H246.968V7.21122H242.982V9.22443H246.492V10.774H242.982V12.8146H247.147V14.4032H241.182V5.62256Z" fill="white"/>
<path d="M248.863 5.62269H250.766L252.038 9.14826C252.245 9.72933 252.475 10.6469 252.502 10.7369C252.515 10.686 252.759 9.72933 253.041 9.14826L254.724 5.54639H254.904L256.614 9.14826C256.885 9.71564 257.128 10.6469 257.153 10.7369C257.167 10.686 257.397 9.74303 257.617 9.14826L258.877 5.62269H260.627L257.452 14.4797H257.272L255.305 10.2439C255.087 9.77824 254.841 9.03087 254.816 8.95261C254.802 8.99174 254.534 9.76651 254.315 10.2439L252.272 14.4797H252.093L248.867 5.62269H248.863Z" fill="white"/>
<path d="M233.609 24.884L230.576 19.3198H232.594L233.829 21.7087C234.15 22.3289 234.536 23.3619 234.536 23.3619C234.536 23.3619 234.896 22.3543 235.218 21.7087L236.4 19.3198H238.251L235.422 24.7549V28.0985H233.609V24.884Z" fill="white"/>
<path d="M239.164 23.7084C239.164 21.1122 241.169 19.2026 243.689 19.2026C246.21 19.2026 248.214 21.1141 248.214 23.7084C248.214 26.3027 246.21 28.2142 243.689 28.2142C241.169 28.2142 239.164 26.3027 239.164 23.7084ZM246.364 23.7084C246.364 22.0689 245.285 20.8167 243.689 20.8167C242.094 20.8167 241.015 22.0689 241.015 23.7084C241.015 25.3479 242.094 26.6001 243.689 26.6001C245.285 26.6001 246.364 25.3479 246.364 23.7084Z" fill="white"/>
<path d="M250.573 19.3179H253.813C255.599 19.3179 257.066 20.1572 257.066 22.2095C257.066 23.5399 256.372 24.3793 255.356 24.7784L257.348 28.0966H255.291L253.517 25.0503H252.373V28.0966H250.573V19.3159V19.3179ZM253.762 23.5263C254.648 23.5263 255.215 23.178 255.215 22.2095C255.215 21.2411 254.623 20.9046 253.762 20.9046H252.373V23.5263H253.762Z" fill="white"/>
<path d="M259.51 19.3179H261.31V22.2232C261.31 22.6498 261.246 23.2563 261.195 23.6945C261.402 23.2289 261.659 22.7261 261.967 22.325L264.306 19.3159H266.35L263.367 23.1643L266.658 28.0966H264.486L262.158 24.5201L261.308 25.5395V28.0966H259.509V19.3159L259.51 19.3179Z" fill="white"/>
<path d="M231.23 33.0132H236.862V34.6018H233.03V36.887H236.513V38.5011H233.03V41.7938H231.23V33.0132Z" fill="white"/>
<path d="M239.153 33.0132H240.952V41.7938H239.153V33.0132Z" fill="white"/>
<path d="M243.707 33.0132H245.507V40.2052H249.467V41.7938H243.707V33.0132Z" fill="white"/>
<path d="M251.467 32.9233H251.61L255.917 37.6756L260.159 32.9233H260.313V41.794H258.577V38.5013C258.577 37.9065 258.642 36.9654 258.642 36.9654C258.642 36.9654 258.114 37.7402 257.703 38.2058L255.967 40.1545H255.8L254.064 38.2058C253.653 37.7402 253.125 36.9654 253.125 36.9654C253.125 36.9654 253.189 37.9084 253.189 38.5013V41.794H251.467V32.9233Z" fill="white"/>
<path d="M234.433 46.6323H234.587L238.584 55.4893H236.694L236.205 54.3017H232.812L232.323 55.4893H230.588L234.431 46.6323H234.433ZM235.565 52.7913L235.011 51.4609C234.768 50.8798 234.511 49.9896 234.483 49.8977C234.47 49.9368 234.213 50.8524 233.969 51.4609L233.416 52.7913H235.563H235.565Z" fill="white"/>
<path d="M239.507 51.099C239.507 48.5028 241.5 46.605 244.007 46.605C245.589 46.605 246.718 47.1724 247.503 48.3991L246.128 49.3812C245.717 48.7101 245.01 48.2328 244.007 48.2328C242.425 48.2328 241.36 49.4595 241.36 51.099C241.36 52.7385 242.427 53.9907 244.007 53.9907C245.139 53.9907 245.768 53.4487 246.257 52.6994L247.657 53.6679C246.9 54.8554 245.69 55.6048 244.007 55.6048C241.5 55.6048 239.507 53.6933 239.507 51.099Z" fill="white"/>
<path d="M252.728 46.6323H252.882L256.879 55.4893H254.989L254.5 54.3017H251.107L250.618 55.4893H248.883L252.726 46.6323H252.728ZM253.86 52.7913L253.306 51.4609C253.063 50.8798 252.806 49.9896 252.778 49.8977C252.765 49.9368 252.508 50.8524 252.264 51.4609L251.711 52.7913H253.858H253.86Z" fill="white"/>
<path d="M258.7 46.7085H261.386C264.073 46.7085 265.989 48.5026 265.989 51.0988C265.989 53.6951 264.086 55.4892 261.386 55.4892H258.7V46.7085ZM261.297 53.9005C263.237 53.9005 264.125 52.7384 264.125 51.0988C264.125 49.4593 263.239 48.2972 261.297 48.2972H260.5V53.9005H261.297Z" fill="white"/>
<path d="M268.27 46.7085H274.056V48.2972H270.07V50.3104H273.58V51.8599H270.07V53.9005H274.235V55.4892H268.27V46.7085Z" fill="white"/>
<path d="M276.658 46.6187H276.8L281.107 51.3709L285.35 46.6187H285.504V55.4893H283.768V52.1966C283.768 51.6018 283.832 50.6607 283.832 50.6607C283.832 50.6607 283.305 51.4355 282.894 51.9011L281.158 53.8498H280.99L279.255 51.9011C278.844 51.4355 278.316 50.6607 278.316 50.6607C278.316 50.6607 278.38 51.6038 278.38 52.1966V55.4893H276.658V46.6187Z" fill="white"/>
<path d="M290.36 52.2747L287.327 46.7104H289.345L290.58 49.0993C290.902 49.7195 291.287 50.7525 291.287 50.7525C291.287 50.7525 291.648 49.7449 291.969 49.0993L293.151 46.7104H295.002L292.174 52.1455V55.4892H290.36V52.2747Z" fill="white"/>
<path d="M218.304 0H216.216V65H218.304V0Z" fill="white"/>
<path d="M80.7557 31.0122L67.913 5.91455H59.605L76.8053 38.7873V55.4134H84.7022V38.7873L101.903 5.91455H93.5985L80.7557 31.0122Z" fill="white"/>
<path d="M203.733 55.4171L181.497 5.45459H181.106L158.856 55.4171H166.379L169.001 49.4186H193.569L196.208 55.4171H203.735H203.733ZM172.42 41.6983L181.316 21.4547L190.209 41.6983H172.42Z" fill="white"/>
<path d="M155.576 13.1672V5.91455H118.826V13.1672V32.5031V55.4134H126.562V40.2155H147.839V32.5031H126.562V13.1672H155.576Z" fill="white"/>
<path d="M0 5.45459V55.4856H7.22296V22.3253L43.7059 55.8769H44.302V38.2549V18.1052V5.91241H36.6213V6.83195V38.2549L0.972022 5.45459H0Z" fill="white"/>
</g>
<defs>
<clipPath id="clip0_2724_28">
<rect width="295" height="65" fill="white"/>
</clipPath>
</defs>
</svg>
