<?xml version="1.0" encoding="UTF-8"?>
<svg xmlns="http://www.w3.org/2000/svg" x="0px" y="0px" viewBox="0 0 433.7 146.3">
	<style>
		.logo1 {fill: #7a003f;}
		.logo2 {fill: #ffffff;}
		.logo3 {fill: #000000;}
	</style>
	<title>Logo der Otto-von-Guericke-Universität Magdeburg</title>
	<g>
		
		<path class="logo2" d="M433.7,8.2v99.1c0,4.5-3.7,8.2-8.2,8.2H133l-18,27.4c-1-1.1-20.8-25.1-22.9-26.1l0.2-1.3H87l-0.1,0.9c-13.3,15-18.7,25.6-18.7,25.6c-1.9-8.8-1.2-25.9-1.2-25.9s0.2-0.2,0.4-0.7H8.2c-4.5,0-8.2-3.7-8.2-8.2V8.2C0,3.7,3.7,0,8.2,0h417.3C430,0,433.7,3.7,433.7,8.2z"></path>
		<path class="logo3" d="M96.3,44.7c-2.2-0.7-3.1-3.3-3.1-5.5l0.6-0.3c0.1,0.1,0.4,1.4,0.3,1.5c0.7,1.4,1.5,3,3.7,2.8c1.6-0.2,2.1-1.8,2.7-1.7c0.2,0,0.4,0.2,0.5,0.3l-0.3,0.8l0.6,0.3l1.6,0l0,0.8c-1.3,0-2.4,0.2-3.4,0.4c-0.7,0.1-1.6,0.8-1.6,1c-0.3,0.5-0.3,1.4-0.6,1.4l-0.7,0.1L96.3,44.7z M93.3,84.4c-0.3,0-0.4,0.6-0.6,0.5c-0.6-0.4-1.2-1-1.2-1.8l-1.7,0.1c0-0.5-1.1-0.2-0.9,0.5c0.2,0,1,0.1,1-0.1c0.7,0.8,1.5,0.8,1.8,1.4c0.4,0.8,0.2,1.7,0.8,2.1c0.1-1.6,1.6-1.3,1.6-2.5C93.9,84.3,93.5,84.4,93.3,84.4z M111.6,53.1l-0.8,1.3l-1,0c-0.3-0.9,0.5-0.9,0.5-1.1c0-0.5,0.3-0.6,0-1.3c-0.2-0.4-0.5-0.9-0.8-1.1c-0.4,1.3-1.6,2.1-3.2,2.1c-2.1,0-2.6-1.6-2.6-3.4l0.2-0.8c0-0.3-1.9-0.3-3.1,1.5c0,0,0.1,0.9,1.7,1.2c0,0,0.1,0.6,0,0.6c-1.7,0.3-2.1-1.5-2.9-1.6l-0.6,0.3c0,0.2-0.1,0.5-0.1,0.5l0.2,0.5l-1.5,0c-0.1-0.4,0-0.7,0-1c0-0.9,0.9-0.7,1.7-0.7l0.6,0c0-0.9,0.6-0.6,0.6-1.4c0-0.3-0.5-0.3-0.8-0.3l-0.3,0.5c0,0-0.9-0.1-0.9-0.2c0-0.2,0.8-1.2,0.9-1.4c0.3-0.3,1.8-2.3,6.6-2.3c0,0-0.3,0.5-0.2,0.7l-2.6,0.2c-1.9,0.6-2,0.8-2.5,1.4c0,0-0.1,1.2,1,0.9c0,0,0.9-0.6,1.5-0.7l2.2,0c1,0,2,0.4,2.5,0.6C109.8,48.8,111.6,51.4,111.6,53.1z M106.8,51.7c-2.2,0.2-1.9-2.2-1.9-2.2c-0.3,0.3-0.7,2.6,1.6,2.5L106.8,51.7z M107.4,50.2l0-0.7l-1.3,0l0,0.7L107.4,50.2z M116.3,48c-0.3-0.1-0.8-1.3-1.2-1.7l-0.9,0.1c0.4,1.1,1.6,1.4,1.4,2.3c0,0.1,0.9,0.3,1.3,0c0-0.5-0.1-0.7-0.2-1.3L116.3,48z M96.8,64.7l-0.5-1.9l-0.6,0c0,0.4,0.2,0.6,0.3,1c0.2,0.6-0.2,0.9,0.8,1.4l0.1,1.9l0.6,0l-0.1-2.5L96.8,64.7z M113.7,41.2c-0.4-0.6-1.1-2.5-1.9-2.6c-2.3-0.2-3.8,1.2-5,1.3c-0.6,0,0.5-0.8,0.5-0.8c0.2-0.6-4-0.8-4-0.8c-0.1,0-3.1,0-3.3,1.4l0,0.5l2.6,0.4c1.1,0.3,1.3-0.1,2.6,0.1l2.4,0l2.2-0.6l1.1,0.1c0.3,0,0.7,0.5,0.8,0.7c0.8,1.5,1.6,1.7,2.8,2.8c2.2,2.1,2.2,3,3.2,2.6c-0.2-0.2-1.4-2.5-2-3.1C114.9,42.2,114.5,42.2,113.7,41.2z M111.9,48.4c-0.3,0.1-0.6,0.6-0.6,0.6c1,4.7,4.2,4.8,4.2,4.8l0.6-0.6C116.1,53.3,113,53.1,111.9,48.4z M101.3,53.4l0,0.6l1,0l0,0.9l0.6,0l-0.1-1.5L101.3,53.4z M117.7,46.4C117.7,46.4,117.7,46.4,117.7,46.4C117.7,46.4,117.7,46.4,117.7,46.4z M147.4,70.9c0,0-0.6,10.3,7.4,4.7l-6.9,7.1c-2.9-0.2-5.3-1.7-7.6-5.7l-0.9,0.8c3.8,11.2,9,6.8,13.9,6.2l-4.6,4.6c-4.5,1.2-7.3,2.5-11.6-2.8c0,0-0.8,2.4,0.6,3.6c1.4,1.2,9.9,3.3,8,7.1c-0.3,0.5-1.1,1-1.1,1l-2.6,0c0,0,1.1-2.2-1.3-2.5c-1-0.1-3-0.3-3,4.5c0,1.1,1,2.3,2,3.1h0c0.9,0.8,1.7,1.3,1.7,1.3s-1.6,2.4-5.6-0.2c-0.6-0.4-1.5-1-1.5-1c-3.6-2.7-3.7-3.9-5.5-2.2c0.2,0.7,0.5,1.4,0.8,2.2c2.1,5.2,6.2,12.5,6.2,12.5s0,0-0.1,0.1c-0.1,0.2-0.5,0.7-0.9,1.4c-0.1,0.1-0.1,0.2-0.2,0.3c-0.6,0.8-1.3,2-2.1,3.2c-0.1,0.1-0.1,0.2-0.2,0.3c-1.9,2.9-4.4,6.8-6.9,10.6c-0.1,0.2-0.3,0.4-0.4,0.7c-2,3.1-4,6.2-5.6,8.6c-0.1,0.1-0.1,0.2-0.2,0.2c-0.4,0.6-0.8,1.3-1.2,1.8c-0.1,0.1-0.2,0.3-0.3,0.4c-0.4,0.6-0.8,1.2-1.1,1.7c-0.1,0.1-0.1,0.2-0.2,0.2c-0.4,0.6-0.6,1-0.8,1.2c-0.3,0.4-6.1-5.8-10.8-11.6l-1.5-1.8c-8.4-10.2-11.6-14.4-13.3-14.9l0.3-2.4l0.7-5.8c-0.4,0-0.7,0-1.1-0.1l-0.9,5.9l-0.4,2.4c-6,5.5-12.2,13.9-16.6,20.9l-1,1.5c-4.1,6.2-3.5,6.1-3.6,5.9c-0.8-1.5-1.5-7.4-1.9-13.7l-0.1-1.3c-0.1-2-0.2-3.9-0.3-5.7c0-0.2,0-0.5,0-0.7c0-0.1,0-0.1,0-0.1c0-0.5,0-1-0.1-1.4c0-0.1,0-0.1,0-0.2c0-0.3,0-0.7,0-1c0-0.1,0-0.1,0-0.2c0-0.2,0-0.4,0-0.6c0,0,0-0.1,0-0.1c-0.1-2.6-0.1-4.7,0.1-5.8c0.1-0.4,0.1-0.6,0.3-0.8c3.7-4.9,6-9.1,8-11.9c0.1-0.2,0.3-0.4,0.4-0.6c-0.3,0.2-0.6,0.4-0.8,0.6c-0.9,0.7-1.8,1.3-2.5,1.5c-1.1,0.3-1.6-1.4-2.8-0.8c-1.2,0.6-1.5,0.2-2.8,0.6c-1,0.3-1.2,0.1-1.6,1.3c-0.3,1.2,0.7,2.4,2.4,3c-0.8,0.2-1.2,0.9-1.2,0.9c-2.2-1.1-5.2-3.9-6.1-6.7c-0.5-1.6-0.1-3.3,1.6-4.6c0,0-0.2-2.4-2.9-2.6c-2.8-0.2-3.1,5.5-3.2,6l-2.8-5.9c-0.1-1.9,6.7-7-0.1-8.1L49.3,84c-2.9,1.2-7-3.7-7-5.8L42.2,74c0,0,2,3.9,4.8,3.8c0,0,4.4,0.5,2.3-9c-1-4.5,3.2-5.9,5.3-8.4c0.9-1.2,1.1-2.4,2.3-3.5c-0.5,0.4-6.3,1.8-9.6,0.4c-2.4-1-1.7,2.6-1.7,2.6L42.3,57c-0.2-0.5-0.4-7.8-0.4-9.7c0.1-1.8,2.3-3.8,4.5-3.5c6.5,0.7,4.4-2.8,6.6-2.5c2,0.2,4.1,0.8,8-0.6c0.7-0.2,3.1-0.9,5-3.3c1.4-2,1.1-4.1,1.3-5.9l-1,0c-0.7,0.5-0.2,3.5-0.7,4.6c-0.4,0.8-3.7,4.5-9.7,4.3c-2.6-0.3-3.6-1.4-4.7-0.4c-1.5,1.4-2.4,1.6-2.4,1.6l-0.1-3.1c0.4-0.9,2.5-1.7,4.1-1.8c1.9-0.1,2.8-0.8,4.2-1.6c1.5-0.8,2.6-2,3.2-3.8c1-2.9,1.8-4.4,2.7-7.2c1.7-5.6,5.5-11.8,12.4-15.2c5.5-2.8,9.9-5.7,19.5-4.9c0.7,0.1,1.7-1.6,6.5-1.5c3.1,0.1,5.6,0.4,9.6,1.5c3.5,0.9,8.2,3.1,10.9,4.8c1,0.6,5.6-0.8,9.1,10.3c1.2,3.7,2.5,5,4,6.6c0.9,1-0.3,2.1,0.3,3.3c0.5,1.2,1.6,1.4,2.2,2.5c1.3,2.1-0.1,4,1.2,6c1.3,2,3.8,4.9,7.1,7c1.3,0.8,2.3,0.8,3.4,1.8c3.1,2.7,0.4,6.3,1.9,10c1.6,3.9,6.3,1.3,6.2,9C157.2,67.2,155.5,70.5,147.4,70.9zM57.5,78.6c0-0.3-0.6-0.2-0.6-0.2c0.1,3.4-2.8,4.9-5.8,5c0.3,0.2,0.4,0.5,0.4,0.5C54.4,83.8,57.6,81.9,57.5,78.6z M87.9,109.8c0,0-1.1,0-1.7-0.2c-2-0.7-8.3-1.4-10.1-6.7c0,0,0,0,0,0c0,0,0,0,0,0c-4.2,5.8-9.2,13.3-9.2,13.3s-0.7,17.1,1.2,25.9c0,0,5.4-10.6,18.7-25.6L87.9,109.8z M81.6,99.4c0.5-1.1,0.9-1.4,1-2c-1.1,0.4-1.5,1.5-1.8,2.9c0,0.2-0.5,1.8-0.6,1.8c0,0,0.2,0.4,0.4,0.9c0.2,0.3,0.4,0.7,0.5,1c0-0.4,0-0.7,0-1v0c0-0.4-0.1-0.9-0.1-1.4C81,100.6,81.1,100.5,81.6,99.4z M127.2,102.9L127.2,102.9c-1.4-3.1-2.7-6.4-3.8-9.6c-0.2-0.7-1.7,1.5-1.7,1.5s-1.4,4-6.6,8.1h0c-4.3,3.4-11.3,6.8-22.3,8l-0.4,2.6l-0.4,3.2c2.1,0.9,22,24.9,22.9,26.1l18.3-27.7c0,0-0.4-0.7-1.1-2C131,110.9,129.1,107.2,127.2,102.9z M132.8,70c0,0-1.4,0.9,0.4,2.1c0,0-5.4-0.4-5.4-7c0,0-2.8,3.7,1.6,6.1l-0.5,0.7c-4.5-2.1-2.5-6.7-3.7-10.7c-1.8-5.8,0.6-7.6,0.1-13.1c-0.3-3.5-2.8-4.9-3.6-8.2c-1.4-5.6-1.2-9.9,0-14.7c1-3.8,1.1-4.5-3.1-5.1c-2.7-0.3-4.8-7.5-9.1-8c-2.9-0.4-2.9,0.4-3.7,0.8c0.9-0.3,4.2-0.7,7.6,6c0.9,1.8,2.5,3,4.7,3.2c0,0-1.7,1.3-3.8,0.3c-2-1-2.3-2.2-3.6-3.7c-1.9-2.2-3.9-2.3-5.9-2.4c0,0-8,0.7-11.6-5.7c0,0-3.3,8.3-12.9,6.8c0,0-2.7,1.9-2.3,3c0.8,1.9,1.1,1.4,1.9,2.2c0.3,0.4,0.7,0.3,0.9,0.9c0.8,3.2-1.2,2.2-2.2,3.2c-1.4,1.3-0.9,6.1-0.9,6.1c-4.1,1.2-3.2,4.8-3.2,4.8l6.3-0.2c3.5,0.4,2.6,3.5,6,4.6c1.1,0.4,1.1,3.9,0.6,6.9c-0.2,0.9-0.3,2.1-0.5,2.8c-0.6,1.5-0.3,6.5-0.1,9.6l-0.4-1c-2.7,5.1-0.8,6.7,3.5,9.7c0.8,0.6,0-2.3,2.9-2.6c2-0.2,1.5,0.3,2.8,1c0.8,0.4,0.7-0.9,1-0.6c0,0,0.9,0.1,0.4,0.1c-0.9,3.1-2.7,0.5-3.6,0.4c-2-0.1-1,2.8-1,2.8c-0.2,0.8-1,0.2-1.1,1c-0.1,0.9,0.8,2.2,1.3,2.2c2.1-0.3,1.4,0.4,2.6,0.3c1.7-0.1-0.2-1.3,1.3-1.3c4.2-0.1,4.2,3.6,8.1,3.5l0,2.1c-2.6,0.6-2.7-1.3-3.8-1.4c-1.3-0.2-0.4,1.1-0.4,1.1c2.8,1.2,2.8,2.8,4.2,2.7c0.6-0.1,1.4-1.6,1.4-4l0.9,0c0,0,0.4,6.9-1.6,7.2c-4.3,0.6-3.6-3.2-5.3-3.3c-1.3-0.1-0.8,0.5-1.9,0.1l0.5-0.2l-1,0l0.6,0.2c-2,0.8-3.9-0.4-4.4-0.5c-2.4-0.4-3.5,0.3-4.5,0.6c-0.2,0.1-0.6,0.1-0.8,0c-0.8-0.4-1-0.5-2.2-0.7c-1.6-0.2-1.7,0-3,0.7c0,0-0.3,1.9,3.1,1.5c1-0.1,1.8-0.1,1.8-0.1c0,0.3-0.8,1.6-2.9,1.6c-1.6,0.1-5.4-2-5.5-2.2c-0.6,0.6-2.2,1-3,1c-2.3,0.6-2.8-1.1-3.1-1.9c-0.7-1.8-0.4-5.2,0.1-4.8c1.6,1.5,3.8,1.3,3.8,1l0.1-0.8c0.9-2.9,5-4.3,5.8-4.2c0.8-0.2,1.9-3.4,1.9-3.4c-1.6-1.4-1.6-1.4-2.1-2.1c-1.9-2.4,0.8-7.1,0.8-7.1c-0.1-2.1-0.7-7,0.3-8.1c0.3-0.3,1.4-0.8,1.5-2.3c0-0.2,0-0.4,0-0.6c0-0.5-0.1-1-0.5-1.3c-0.4-0.2-0.7,0-1.2-0.1c-0.9-0.3-0.8-1.2-1.5-1.9c-0.6-0.6-2.5-1.2-1.6-1.3c0.2,0,0.4-0.1,0.6-0.1c0.4,0.1,0.4,0.3,0.8,0.4c0.6,0.2,1.1,0.7,1.5,0.3c0.2-0.2,0.3-0.5,0-0.7c-0.2-0.2-0.4,0-0.6-0.1c-0.9-0.3-0.8-1.5-1.7-1.7c-1.3-0.4-1.9-0.6-3.1-0.8c-1.1-0.2-1.9-0.8-2.9-0.3c-1.2,0.5-2.1,0.8-3.1,1.7c-1,0.9-1.8,2.8-1.8,2.8c0.1,0.1,0.4,0.8,0.7,0.7c0,0,0.9-1.1,1.7-1.8c0.9-0.8,2.3-1,2.3-1c2.5-0.1,2.1-0.2,3.7,0.1c0.5,0.1-0.1,0.3,1.1,0.6c-0.7,0.6-2.7-0.2-4.1,0.5c-0.3,0.1-0.5,0.5-0.5,0.5c0.3,0.6,0.4,0.7,0.7,0.6c1.2-0.2,1.8-0.1,2.9,0.2c0.9,0.2,1.5,0.3,2.1,1c2.5,3.1,3,1.6,3.4,2.4c0.2,0.4,0.1,0.5,0,0.7c-0.8,0.7-1.2,0.7-1.6,0.6c-0.3-0.1-0.5-0.2-0.7-0.5c-0.3-0.4,0.1-0.9-0.3-1.2c-0.6-0.5-1.2-1.4-1.2-1.4c-0.2,0.5-0.1,0.9-0.2,1.5c-0.2,1-0.8,1.3-1.7,1.6c-0.6,0.2-1,0.3-1.7,0.1c-1-0.2-1.7-0.7-2.1-1.6c-0.3-0.8,0.1-2.2,0.1-2.2c-0.3,0-0.6,0-1,0.2c-0.4,0.2-0.8,0.7-0.5,1c-0.5,1,1.1,2.3,1.1,2.3c-0.9,0.7-1.2-0.5-1.7-0.1c-0.7,0.6,1,1.2,1.9,1.5c0.9,0.3,1.5,0.2,2.4,0.2c0.8,0,1.6-0.6,2.1-0.3l-1.6,0.9c0,0,0.3,1-2.9,0.6c-0.9-0.1-1.2-0.6-2-1.1c-0.9-0.5-1.1-1.5-2.1-1.5c-1.1,0.1-1.7,0.8-2.2,1.8c-0.4,0.8-0.3,1.4-0.5,2.3c-0.6,3.2-1.2,4.7-0.8,8.2c0.2,2,2.5,2.6,3.2,4.3c1.1,2.8,0.8,14.1,3.3,16.6c0.2,0.3,1.5,4.9,1.6,6.1c1.1,3,0.5,2.1,0.8,3.5c0.1-0.1,2.5,4.2,3.2,4c0,0,1.8-3,3.6-3c0.1,0,0.6-0.3,0.6-0.3c0.6-0.6,2-1.5,2.6-2.4c0,0-0.6-6.3,0.9-6.4c0,0-0.3,0.7,0,1c0.3,0.3,0.6,0,1,0c0.5,0,0,3.7,0.4,6.6c0.1,0.7-0.3,0.9-0.6,1.5c-0.4,0.9,0.3,2.1-1.2,2.1c-0.5,0-0.1,1.3,0.2,2.3l1.6-0.7c0.4-0.5,0.5-3.5,0.9-3.2c2.1,1.1,2.5,2.2,2.6,3.6c0,1.4-0.1,1.9-0.1,1.9l0.7,0l0.5-2.2c1.5-0.6,1.1,4.3,1.4,4c1.4-1.7,0.5-5.1,0.6-5.6c0-0.5-0.9-0.4-0.8,0.6c0,0.2-1-0.2-1-0.2l0.3-1.8c0.7,0,1.8-0.3,1.8-0.3c0.9-0.1,4,1.7,6.5,3.6c5.1-1,7.4-5.2,11-7.9c1.3-0.9,2.5-1.9,3.6-3.2c1.3-1.5,1.5-3.1,2.2-5.2c0.6-2.1,0.7-3.4,1.3-5.7c0.4-1.4,0.8-2.7,1.8-4.6c-0.2,3.3-1.5,7.2-2,10.3c-0.3,2.1-0.6,3.4-1.7,5.1c-1.5,2.4-3.4,3.8-5.4,6.2c-1.6,1.9-3.1,2.9-4.9,4.7c-0.6,0.6-2.6,2.3-3.2,2.4c0.3,0.5,0.6,1,0.5,1.2c-0.1,0.4-0.2,0.6-0.4,0.9c-0.3,0.6-0.8,1.1-1.3,1.8c-0.8,1.2-1.2,2.2-2.4,2.8l-0.5,0.3c4.5-1.3,8-3.1,10.7-4.9c0,0,0,0,0,0c5.6-3.8,7.9-8,8.7-9.5c0.6-3,4.8-22.7,4.8-19.5c0,0,2.5,2.9,5.1-1.7c0,0,1.2,1.7,3.2,1.5C136.4,73.5,135.1,69.3,132.8,70z M77.4,49.8c0,0,0-0.4-0.2-0.7c-0.2-0.4-0.9-0.6-0.9-0.6C75.6,49.2,77,50.4,77.4,49.8z M79.1,49.6l0.4-0.9l-0.4,0L79.1,49.6z M83.8,77.7c-0.8,0.2-1.9,2.4-2.2,2.5c-1,0.2-0.4,1,0.6,0.5c3.7-1.9,4.6-2.4,6.7-0.5c0,0,2.3-2.5,5.4-0.5c0.7,0.4,1.6,0.9,2.7,1.1l-2.2-2.6c-1.1-0.5-3.4-0.6-4.2-1.3c-0.8-0.7-0.8-1.2-0.8-1.2s-0.4-1.2-1-1.3c-0.5-0.1,0,0.6-0.8,1.3C86.8,76.9,85,77.4,83.8,77.7z"></path>
        <g>
            <path class="logo1" d="M24.3,57.5c0-22.2,9.8-42,25.1-55.2H8.2c-3.3,0-5.9,2.7-5.9,6v99.1c0,3.3,2.7,6,5.9,6H50C34.3,100,24.3,80,24.3,57.5z"></path><path class="logo1" d="M271.9,19.2c-2.3,0-2.6,2.6-2.6,5.4c0,3.5,0.6,5.3,2.6,5.3c2.1,0,2.6-2.1,2.6-5.3C274.5,21.6,274.1,19.2,271.9,19.2z"></path><path class="logo1" d="M278.4,78.7h-2.2v16.3h2.1c3.2,0,5-1.4,5-8c0-3.5-0.5-5.4-1.5-6.7C281.1,79.2,279.8,78.7,278.4,78.7z"></path><path class="logo1" d="M326.2,87.7H323v7.2h3.8c2.1,0,3.4-1.4,3.4-3.6C330.1,89.3,328.7,87.7,326.2,87.7z"></path><path class="logo1" d="M425.5,2.2H147.3c15.3,13.2,25.1,33.1,25.1,55.2c0,22.5-10,42.6-25.7,55.8h278.9c3.3,0,6-2.7,6-6V8.2C431.5,4.9,428.8,2.2,425.5,2.2z M397,18.1c0-0.3,0.2-0.5,0.5-0.5h6.5c0.3,0,0.5,0.2,0.5,0.5V19c0,0.3-0.2,0.5-0.5,0.5h-4.8v3.8h4.3c0.3,0,0.5,0.2,0.5,0.5v0.9c0,0.3-0.3,0.5-0.5,0.5h-4.3v4.5h5c0.3,0,0.5,0.2,0.5,0.5v1c0,0.3-0.3,0.5-0.5,0.5h-6.7c-0.3,0-0.5-0.2-0.5-0.5V18.1z M381.6,41c1.1,0,2,0.8,2,1.9c0,1.1-0.9,2-1.9,2c-1.1,0-1.9-0.9-1.9-2C379.7,41.8,380.6,41,381.6,41z M376,17.4c0.8,0,1.8,0.1,2.6,0.6c0.3,0.1,0.4,0.4,0.2,0.7l-0.4,0.9c-0.1,0.2-0.3,0.3-0.6,0.2c-0.5-0.2-1-0.4-1.6-0.4c-2.1,0-3.4,1.5-3.4,5.2c0,3.7,1.4,5.2,3.4,5.2c0.5,0,1.2-0.2,1.6-0.4c0.2-0.1,0.5,0,0.6,0.2l0.5,1c0.1,0.3,0,0.5-0.2,0.6c-0.7,0.4-1.6,0.6-2.7,0.6c-3.4,0-5.5-2.6-5.5-7.3C370.4,20.2,372.6,17.4,376,17.4z M376.9,42.9c0,1.1-0.9,2-1.9,2c-1.1,0-1.9-0.9-1.9-2c0-1.1,0.9-1.9,1.9-1.9C376,41,376.9,41.8,376.9,42.9z M362.8,18.1c0-0.3,0.2-0.5,0.5-0.5h1.3c0.3,0,0.5,0.2,0.5,0.5v13.1c0,0.3-0.2,0.5-0.5,0.5h-1.3c-0.3,0-0.5-0.2-0.5-0.5V18.1z M348.6,18.1c0-0.3,0.2-0.5,0.5-0.5h3.7c3.5,0,4.3,2.2,4.3,3.6c0,1.7-0.9,3.1-3.1,3.5c1,0.2,1.8,1.1,2.2,2c0.3,0.7,1.2,2.7,1.8,4.4c0.1,0.4,0.1,0.6-0.4,0.6h-1.5c-0.3,0-0.5-0.1-0.6-0.4c-0.5-1.4-0.8-2.9-1.4-4.1c-0.5-0.9-1.1-1.8-2.4-1.8h-0.9v5.8c0,0.3-0.2,0.5-0.5,0.5h-1.2c-0.3,0-0.5-0.2-0.5-0.5V18.1z M320.4,18.1c0-0.3,0.2-0.5,0.5-0.5h1.2c0.3,0,0.5,0.2,0.5,0.5v9c0,1.8,0.6,2.9,2.3,2.9c1.5,0,2.4-0.6,2.4-2.8v-9.1c0-0.3,0.2-0.5,0.5-0.5h1.2c0.3,0,0.5,0.2,0.5,0.5v9.3c0,2.9-1.6,4.5-4.6,4.5c-3.1,0-4.6-1.7-4.6-4.5V18.1z M253.4,17.6h1.4c0.3,0,0.6,0.2,0.6,0.5l2.4,9.5c0.2,0.7,0.4,1.8,0.4,2.7c0.1-1,0.3-2.1,0.4-2.7l2.4-9.5c0.1-0.3,0.3-0.5,0.6-0.5h1.3c0.3,0,0.5,0.3,0.4,0.6l-3.8,13.1c-0.1,0.3-0.4,0.5-0.6,0.5h-1.6c-0.3,0-0.5-0.2-0.6-0.5L253,18.2C252.9,17.8,253.1,17.6,253.4,17.6z M235.5,17.4c3.2,0,4.9,2.4,4.9,7.3c0,4.8-1.7,7.1-4.9,7.1c-3.3,0-5-2.3-5-7.1C230.6,19.9,232.2,17.4,235.5,17.4z M218.3,18.1c0-0.3,0.3-0.5,0.5-0.5h8.2c0.3,0,0.5,0.2,0.5,0.5v1c0,0.3-0.2,0.5-0.5,0.5h-3v11.6c0,0.3-0.2,0.5-0.5,0.5h-1.2c-0.3,0-0.5-0.2-0.5-0.5V19.6h-3c-0.3,0-0.5-0.2-0.5-0.5V18.1z M204.8,61.8V47.4c0-0.5,0.3-0.8,0.8-0.8h1.9c0.5,0,0.8,0.3,0.8,0.8V62c0,4.6-2.5,7.1-7.3,7.1c-4.9,0-7.2-2.6-7.2-7.1V47.4c0-0.5,0.3-0.8,0.8-0.8h1.9c0.5,0,0.8,0.3,0.8,0.8v14.2c0,2.9,1,4.5,3.7,4.5C203.5,66.1,204.8,65.2,204.8,61.8z M198.3,17.4c3.2,0,4.9,2.4,4.9,7.3c0,4.8-1.7,7.1-4.9,7.1c-3.3,0-5-2.3-5-7.1C193.3,19.9,195,17.4,198.3,17.4z M214.4,97.2c0,0.4-0.4,0.8-0.8,0.8h-1.7c-0.4,0-0.8-0.3-0.8-0.8l0.1-13.8c0-0.8,0.2-3.7,0.2-4.6c-0.3,1.1-0.7,3.1-1,4.5l-4.1,13.9c-0.1,0.5-0.5,0.8-1,0.8H203c-0.4,0-0.9-0.3-1-0.8L198,83.3c-0.4-1.4-0.7-3.4-1-4.5c0,0.9,0.2,3.8,0.2,4.6l0.1,13.8c0,0.4-0.4,0.8-0.8,0.8h-1.7c-0.4,0-0.8-0.4-0.8-0.8V76.5c0-0.4,0.4-0.8,0.8-0.8h3.7c0.4,0,0.9,0.3,1,0.7l4.3,15.1c0.2,0.8,0.3,2.2,0.4,3.3c0.1-1.1,0.2-2.5,0.4-3.3l4.3-15.1c0.1-0.4,0.6-0.7,1-0.7h3.7c0.4,0,0.8,0.3,0.8,0.8V97.2z M215.2,19.1c0,0.3-0.2,0.5-0.5,0.5h-3v11.6c0,0.3-0.2,0.5-0.5,0.5H210c-0.3,0-0.5-0.2-0.5-0.5V19.6h-3c-0.3,0-0.5-0.2-0.5-0.5v-1c0-0.3,0.3-0.5,0.5-0.5h8.2c0.3,0,0.5,0.2,0.5,0.5V19.1z M220.5,55l0,13.1c0,0.4-0.4,0.8-0.8,0.8H218c-0.4,0-0.8-0.4-0.8-0.8V47.4c0-0.4,0.4-0.8,0.8-0.8h3.1c0.4,0,0.9,0.2,1.1,0.6l5.6,13.6c0.6,1.5,1,3.1,1.5,4.7c-0.2-1.7-0.3-3.8-0.3-5.3l0-12.8c0-0.4,0.4-0.8,0.8-0.8h1.7c0.4,0,0.8,0.4,0.8,0.8v20.7c0,0.4-0.4,0.8-0.8,0.8h-3.1c-0.4,0-0.7-0.2-0.9-0.6l-5.8-13.8c-0.6-1.4-1-3.2-1.5-4.9C220.2,51.2,220.5,53.8,220.5,55z M240,98h-2.3c-0.5,0-0.9-0.3-1-0.7l-1.3-4.9h-7l-1.3,4.9c-0.1,0.4-0.5,0.7-1,0.7H224c-0.5,0-0.7-0.4-0.6-0.9l5.9-20.5c0.1-0.5,0.6-0.8,1-0.8h2.9c0.4,0,0.8,0.3,1,0.8l6.3,20.5C240.7,97.5,240.5,98,240,98zM245.4,68.1c0,0.4-0.4,0.8-0.8,0.8h-2c-0.4,0-0.8-0.4-0.8-0.8V47.4c0-0.4,0.4-0.8,0.8-0.8h2c0.4,0,0.8,0.4,0.8,0.8V68.1zM262.2,96c0,0.8-0.2,1.1-1,1.4c-1.3,0.5-3.1,0.8-4.9,0.8c-6.3,0-9-4.3-9-11.4c0-6.9,3.3-11.2,9-11.2c1.9,0,3.8,0.5,5.3,1.3c0.4,0.2,0.6,0.6,0.4,1l-0.7,1.4c-0.2,0.4-0.6,0.6-1,0.4c-1.2-0.6-2.3-1-4-1c-3.5,0-5.3,2.6-5.3,8.4c0,5.9,2.1,8,5.6,8c0.8,0,1.4-0.1,2.1-0.3v-6.5h-2.9c-0.4,0-0.8-0.4-0.8-0.8v-1.5c0-0.4,0.4-0.8,0.8-0.8h5.6c0.4,0,0.8,0.4,0.8,0.8V96z M269.9,47.5L264,68.1c-0.1,0.4-0.6,0.7-1,0.7h-2.5c-0.4,0-0.9-0.3-1-0.7l-6.1-20.6c-0.1-0.5,0.1-0.9,0.6-0.9h2.3c0.5,0,0.9,0.3,1,0.8l3.8,14.9c0.3,1.1,0.6,2.8,0.7,4.3c0.2-1.5,0.4-3.3,0.7-4.3l3.8-14.9c0.1-0.5,0.5-0.8,1-0.8h2C269.7,46.6,270,47.1,269.9,47.5zM267,24.7c0-4.8,1.7-7.3,5-7.3c3.2,0,4.9,2.4,4.9,7.3c0,4.8-1.7,7.1-4.9,7.1C268.6,31.8,267,29.5,267,24.7z M278.9,98h-5.4c-0.4,0-0.8-0.4-0.8-0.8V76.5c0-0.4,0.4-0.8,0.8-0.8h5.2c4.7,0,8.3,2.5,8.3,11C287.1,93.8,285.2,98,278.9,98z M289.7,68.1c0,0.4-0.4,0.8-0.8,0.8h-10.5c-0.4,0-0.8-0.4-0.8-0.8V47.4c0-0.4,0.4-0.8,0.8-0.8h10.2c0.4,0,0.8,0.4,0.8,0.8v1.5c0,0.4-0.3,0.8-0.8,0.8H281v5.9h6.7c0.4,0,0.8,0.3,0.8,0.8v1.4c0,0.5-0.4,0.8-0.8,0.8H281v7.1h7.8c0.4,0,0.8,0.4,0.8,0.8V68.1zM291.3,31.2c0,0.3-0.3,0.5-0.5,0.5h-2c-0.3,0-0.5-0.1-0.6-0.4l-3.7-8.8c-0.4-0.9-0.7-2.1-0.9-3.1c0.1,1.1,0.3,2.7,0.3,3.5l0,8.3c0,0.3-0.2,0.5-0.5,0.5h-1.1c-0.3,0-0.5-0.2-0.5-0.5V18c0-0.3,0.2-0.5,0.5-0.5h2c0.3,0,0.6,0.1,0.7,0.4l3.5,8.7c0.4,0.9,0.6,2,0.9,3c-0.1-1.1-0.2-2.4-0.2-3.4l0-8.2c0-0.3,0.2-0.5,0.5-0.5h1.1c0.3,0,0.5,0.2,0.5,0.5V31.2z M308.7,97.2c0,0.4-0.4,0.8-0.8,0.8h-10.5c-0.4,0-0.8-0.4-0.8-0.8V76.5c0-0.4,0.4-0.8,0.8-0.8h10.2c0.4,0,0.8,0.4,0.8,0.8V78c0,0.4-0.3,0.8-0.8,0.8h-7.5v5.9h6.7c0.4,0,0.8,0.3,0.8,0.8v1.4c0,0.5-0.4,0.8-0.8,0.8h-6.7v7.1h7.8c0.4,0,0.8,0.4,0.8,0.8V97.2zM312.4,68.8H310c-0.5,0-0.8-0.1-1-0.7c-0.8-2.3-1.3-4.6-2.2-6.4C306,60.3,305,59,303,59h-1.3v9.1c0,0.4-0.4,0.8-0.8,0.8H299c-0.4,0-0.8-0.4-0.8-0.8V47.4c0-0.4,0.4-0.8,0.8-0.8h5.8c5.6,0,6.7,3.4,6.7,5.6c0,2.6-1.5,4.9-4.8,5.4c1.6,0.3,2.8,1.7,3.5,3.2c0.5,1.1,1.8,4.3,2.8,7C313.2,68.4,313.1,68.8,312.4,68.8z M314.5,30.4c0,0.5-0.1,0.7-0.6,0.9c-0.8,0.3-2,0.5-3.1,0.5c-4,0-5.7-2.7-5.7-7.2c0-4.4,2.1-7.2,5.8-7.2c1.2,0,2.4,0.3,3.4,0.8c0.3,0.1,0.4,0.4,0.2,0.6l-0.4,0.9c-0.1,0.2-0.4,0.4-0.6,0.2c-0.7-0.4-1.5-0.6-2.6-0.6c-2.2,0-3.4,1.6-3.4,5.3c0,3.8,1.3,5.1,3.5,5.1c0.5,0,0.9-0.1,1.3-0.2v-4.1h-1.8c-0.3,0-0.5-0.2-0.5-0.5v-1c0-0.3,0.2-0.5,0.5-0.5h3.5c0.3,0,0.5,0.2,0.5,0.5V30.4z M319.5,67.1l0.4-1.6c0.1-0.4,0.5-0.7,1-0.5c1.3,0.5,2.8,1,4.4,1c2.2,0,3.8-1.1,3.8-3.1c0-2.2-2-3.1-4.1-4.1l-1.4-0.6c-2-1-3.9-2.3-3.9-5.5c0-3.5,2.5-6.1,6.7-6.1c1.6,0,3.2,0.4,4.3,0.8c0.4,0.1,0.5,0.6,0.4,1l-0.4,1.5c-0.1,0.4-0.5,0.6-0.9,0.5c-1.1-0.4-1.9-0.7-3.4-0.7c-2.1,0-3.2,1.1-3.2,2.9c0,1.7,1.5,2.4,3.2,3.2l1.8,0.8c2.3,1.1,4.4,2.6,4.4,6.1c0,3.9-2.7,6.5-7.3,6.5c-1.9,0-4-0.4-5.4-1C319.6,67.9,319.4,67.5,319.5,67.1z M327.2,98h-6.9c-0.4,0-0.8-0.4-0.8-0.8V76.5c0-0.4,0.4-0.8,0.8-0.8h6.6c3.8,0,6.1,2.4,6.1,5.6c0,2.3-1.1,4-3.6,4.8c3,0.5,4.6,2.8,4.6,5.5C333.9,95.7,331.5,98,327.2,98z M335.6,31.2V18.1c0-0.3,0.2-0.5,0.5-0.5h6.5c0.3,0,0.5,0.2,0.5,0.5V19c0,0.3-0.2,0.5-0.5,0.5h-4.8v3.8h4.3c0.3,0,0.5,0.2,0.5,0.5v0.9c0,0.3-0.3,0.5-0.5,0.5h-4.3v4.5h5c0.3,0,0.5,0.2,0.5,0.5v1c0,0.3-0.2,0.5-0.5,0.5h-6.7C335.8,31.7,335.6,31.5,335.6,31.2z M340.5,68.1V47.4c0-0.4,0.4-0.8,0.8-0.8h2c0.4,0,0.8,0.4,0.8,0.8v20.6c0,0.4-0.4,0.8-0.8,0.8h-2C340.9,68.8,340.5,68.5,340.5,68.1z M357.2,91.1c0,4.6-2.5,7.1-7.3,7.1c-4.9,0-7.2-2.6-7.2-7.1V76.5c0-0.5,0.3-0.8,0.8-0.8h1.9c0.5,0,0.8,0.3,0.8,0.8v14.2c0,2.9,1,4.5,3.7,4.5c2.4,0,3.8-1,3.8-4.3V76.5c0-0.5,0.3-0.8,0.8-0.8h1.9c0.5,0,0.8,0.3,0.8,0.8V91.1z M365.6,49c0,0.4-0.3,0.8-0.8,0.8h-4.7v18.3c0,0.4-0.4,0.8-0.8,0.8h-1.9c-0.4,0-0.8-0.4-0.8-0.8V49.8h-4.7c-0.4,0-0.8-0.3-0.8-0.8v-1.6c0-0.4,0.4-0.8,0.8-0.8h12.9c0.4,0,0.8,0.4,0.8,0.8V49zM381.7,98h-2.4c-0.5,0-0.8-0.1-1-0.7c-0.8-2.3-1.3-4.6-2.2-6.4c-0.8-1.5-1.7-2.8-3.7-2.8h-1.4v9.1c0,0.4-0.4,0.8-0.8,0.8h-1.9c-0.4,0-0.8-0.4-0.8-0.8V76.5c0-0.4,0.4-0.8,0.8-0.8h5.8c5.6,0,6.7,3.4,6.7,5.6c0,2.6-1.5,4.9-4.8,5.4c1.6,0.3,2.8,1.7,3.5,3.2c0.5,1.1,1.8,4.3,2.8,7C382.4,97.5,382.3,98,381.7,98z M386.4,68.8h-2.3c-0.5,0-0.9-0.3-1-0.7l-1.3-4.9h-7l-1.3,4.9c-0.1,0.4-0.5,0.7-1,0.7h-2.1c-0.5,0-0.7-0.4-0.6-0.9l5.9-20.5c0.1-0.5,0.6-0.8,1-0.8h2.9c0.4,0,0.8,0.3,1,0.8l6.3,20.5C387.2,68.4,386.9,68.8,386.4,68.8z M385.8,24.4v6.9c0,0.3-0.2,0.5-0.5,0.5h-1.2c-0.3,0-0.5-0.2-0.5-0.5V18.1c0-0.3,0.2-0.5,0.5-0.5h1.2c0.3,0,0.5,0.2,0.5,0.5v5.4l3.7-5.6c0.2-0.2,0.4-0.3,0.7-0.3h1.6c0.4,0,0.4,0.3,0.3,0.6l-4.1,5.7l4.5,7.2c0.2,0.3,0.1,0.6-0.3,0.6h-1.7c-0.3,0-0.5-0.1-0.7-0.4L385.8,24.4z M404.7,96c0,0.8-0.2,1.1-1,1.4c-1.3,0.5-3.1,0.8-4.9,0.8c-6.3,0-9-4.3-9-11.4c0-6.9,3.3-11.2,9-11.2c1.9,0,3.8,0.5,5.3,1.3c0.4,0.2,0.6,0.6,0.4,1l-0.7,1.4c-0.2,0.4-0.6,0.6-1,0.4c-1.2-0.6-2.3-1-4-1c-3.5,0-5.3,2.6-5.3,8.4c0,5.9,2.1,8,5.6,8c0.8,0,1.5-0.1,2.1-0.3v-6.5h-2.9c-0.4,0-0.8-0.4-0.8-0.8v-1.5c0-0.4,0.4-0.8,0.8-0.8h5.6c0.4,0,0.8,0.4,0.8,0.8V96z M405.3,49c0,0.4-0.3,0.8-0.8,0.8h-4.7v18.3c0,0.4-0.4,0.8-0.8,0.8h-1.9c-0.4,0-0.8-0.4-0.8-0.8V49.8h-4.7c-0.4,0-0.8-0.3-0.8-0.8v-1.6c0-0.4,0.4-0.8,0.8-0.8h12.9c0.4,0,0.8,0.4,0.8,0.8V49z"></path>
            <path class="logo1" d="M354.8,21.5c0-1-0.7-1.9-2.1-1.9h-1.9v4.1h1.7C353.9,23.6,354.8,22.8,354.8,21.5z"></path>
            <path class="logo1" d="M307.9,52.7c0-1.6-1.1-3-3.3-3h-3v6.5h2.6C306.6,56.2,307.9,54.8,307.9,52.7z"></path>
            <path class="logo1" d="M198.2,30c2.1,0,2.6-2.1,2.6-5.3c0-3-0.5-5.4-2.6-5.4c-2.3,0-2.6,2.6-2.6,5.4C195.6,28.2,196.3,30,198.2,30z"></path>
            <path class="logo1" d="M231.8,77.6c-0.1,0.9-0.3,2.2-0.5,3.1l-2.1,8.7h5.4l-2.3-8.7C232,79.8,231.9,78.4,231.8,77.6z"></path>
            <path class="logo1" d="M329.4,81.8c0-1.9-1.1-3.1-3.2-3.1H323v6.2h2.9C328.2,84.9,329.4,83.7,329.4,81.8z"></path>
            <path class="logo1" d="M377.2,81.8c0-1.6-1-3-3.3-3h-3v6.5h2.6C375.9,85.3,377.2,83.9,377.2,81.8z"></path>
            <path class="logo1" d="M235.5,30c2.1,0,2.6-2.1,2.6-5.3c0-3-0.5-5.4-2.6-5.4c-2.3,0-2.6,2.6-2.6,5.4C232.9,28.2,233.5,30,235.5,30z"></path>
            <path class="logo1" d="M378.2,48.4c-0.1,0.9-0.3,2.2-0.5,3.1l-2.1,8.7h5.4l-2.3-8.7C378.5,50.6,378.3,49.3,378.2,48.4z"></path>
        </g>
	</g>
</svg>