<?xml version="1.0" encoding="utf-8"?><svg version="1.1" xmlns="http://www.w3.org/2000/svg" xmlns:xlink="http://www.w3.org/1999/xlink" width="500px" height="106px" preserveAspectRatio="none"><path fill="#ea609e" d="M89.4,61.2c0-0.3-0.3-0.6-0.6-0.6c-0.7-0.1-1.5-0.1-2.3,0.1c0.1-0.1,5.8-7.2,4-14.3c-0.1-0.3-0.3-0.5-0.7-0.5c-1.1-0.1-2.3,0.1-3.3,0.4c2.1-5.9,1.9-10.4,1.8-11.3c-0.3-3.8-0.8-7.5-3.1-9.2c-0.2-0.1-0.4-0.1-0.5-0.1c-5.8,2.7-6.4,9.6-6.4,9.6c-1.8,12.6-5.2,19.3-8.3,23.2c-0.7-0.6-1.6-0.9-2.7-0.8c-1.4,0.2-3.3,1.5-2.9,3.8c0.8,5.4-1.4,10.7-10.2,7.8c-1.9-0.7-3.8-1.5-5.8-2.6c0-5.2,0-10.3-0.1-14.7c0,0,0,0,0,0c-0.1-1.2,0-2.4,0-3.6c0,0.5,0.2,1.1,0.4,1.6c1.4,2.4,4,1.7,4.7,1.4c2.3-1.2,4-3,5-5.2c1-2.2,1.2-4.6,0.6-7.1c-0.7-2.8-2.7-5.8-6.4-7.6c0.7-1.4,1.4-2.8,2.2-4.2c0,0,0,0,0,0c1.4,0.1,1.8-1,2.2-2.5c0.5-2-0.2-3.2-2.4-3.9c-0.4-0.1-0.8-0.2-1.4-0.3c0,0,0.1-0.1,0.1-0.1c1.7-2.4,1.2-9.9-1.7-14.5c-1.7-2.7-4.9-6-6.3-6c0,0,0,0,0,0s0,0,0,0c-1.4,0-4.7,3.3-6.3,6c-2.8,4.6-3.4,12-1.7,14.5c0,0,0.1,0.1,0.1,0.1c-0.6,0.1-1.1,0.2-1.4,0.4c-2.2,0.7-2.9,1.9-2.4,3.9c0.4,1.5,0.8,2.5,2.2,2.5c0,0,0,0,0,0c1,1.6,1.8,3.3,2.6,5c-1.7,1.1-3.4,2.6-4.6,4.7c-2.6,4.5-2.3,11,0.9,19.3c0.6,1.5,1,3,1.3,4.5c-1.9-0.4-6.8-1.2-10.8,2.2c-3.6-2.9-10.2-8.3-12.9-27.7c0,0-0.6-6.9-6.4-9.6c-0.2-0.1-0.4-0.1-0.5,0.1c-2.3,1.7-2.8,5.4-3.1,9.2c-0.1,0.9-0.2,5.4,1.8,11.3c-1-0.3-2.2-0.5-3.3-0.4c-0.3,0-0.6,0.2-0.7,0.5c-1.9,7.2,3.9,14.2,4,14.3c-0.8-0.2-1.6-0.2-2.3-0.1c-0.3,0.1-0.6,0.3-0.6,0.6c-0.4,4,0.9,7.5,4,10.5c-0.3,0-0.5,0-0.8,0.1c-0.4,0.1-0.6,0.4-0.5,0.8c0.3,2.4,1.4,4.5,3.3,6.3c-0.2,0-0.4,0.1-0.6,0.1c-0.3,0.1-0.5,0.4-0.5,0.7c0.1,2.5,1.3,4.6,3.6,6.3c-0.2,0-0.4,0.1-0.6,0.1c-0.4,0.1-0.6,0.4-0.6,0.8c0.4,2.5,1.6,4.5,4.2,6c-0.4,0.1-0.9,0.2-1.3,0.4c-0.3,0.1-0.5,0.5-0.4,0.8c0.4,1.6,2.6,4.7,6.2,5.8c-1.1,0.4-2.1,1-3,1.6c-0.3,0.2-0.4,0.5-0.4,0.8c0,0.3,0.3,0.6,0.6,0.7c4.2,1.7,6.8,2.5,12.3,1.8c7.3-0.9,12.8-0.7,17.3,0.9c0.4,0.2,0.8,0.2,1.2,0.2c0.4,0,0.8,0,1.2-0.2c4.5-1.6,10-1.8,17.3-0.9c5.5,0.7,8.1,0,12.3-1.8c0.3-0.1,0.5-0.4,0.6-0.7c0-0.3-0.1-0.7-0.4-0.8c-0.9-0.6-1.9-1.2-3-1.6c3.5-1.1,5.8-4.2,6.2-5.8c0.1-0.3-0.1-0.7-0.4-0.8c-0.4-0.2-0.8-0.3-1.3-0.4c2.5-1.5,3.8-3.5,4.2-6c0.1-0.4-0.2-0.7-0.6-0.8c-0.2,0-0.4-0.1-0.6-0.1c2.3-1.7,3.5-3.8,3.6-6.3c0-0.3-0.2-0.6-0.5-0.7c-0.2-0.1-0.4-0.1-0.6-0.1c1.9-1.8,3-3.9,3.3-6.3c0-0.4-0.2-0.7-0.5-0.8c-0.2-0.1-0.5-0.1-0.8-0.1C88.6,68.7,89.9,65.2,89.4,61.2z M89.6,46.8C92,56.8,79.3,69.5,67.9,73c1.9-1.9,3-4.2,3.4-6.9c8.3-6.2,12.6-13,14.8-18.7C86.8,47.1,88.3,46.8,89.6,46.8z M79.4,35.4c0,0,0.5-6.2,5.6-8.7c3.6,3.2,5.9,22.9-13.5,38c0.2-3.6-0.4-5-0.7-5.5C74.8,54.3,77.7,47.2,79.4,35.4z M48.4,48c0.2-3.4,0.8-6.8,1.8-10.2c1,0.6,1.8,1.6,2.1,2.9c0.4,1.5,0.1,3.5-2.1,4.8C49.2,46.1,48.5,47,48.4,48z M58.1,39.3c1.2,4.5-0.8,8.8-5.1,11.1c-0.5,0.3-2.3,0.7-3.3-1c-0.7-1.2-0.3-2.4,1-3.2c2.7-1.5,3.1-4.1,2.6-5.9c-0.4-1.7-1.5-2.9-2.8-3.6c0.5-1.5,1.1-3,1.7-4.4C55.6,34,57.4,36.8,58.1,39.3z M37.7,14c0.3-2.9,1.2-5.6,2.4-7.6c1.9-3,4.8-5.5,5.5-5.5c0,0,0,0,0,0s0,0,0,0c0.7,0,3.6,2.5,5.5,5.5c2.6,4.1,3.2,11.3,1.7,13.4c-0.2,0.3-0.4,0.4-0.5,0.4c-0.1,0-0.2,0-0.3,0c-0.6-0.1-1.2-0.2-1.9-0.3c0.3-0.6,0.6-1.7,0.7-2.9c0.1-2.6-0.1-4.6-0.6-6.8c-0.3-1.2-0.6-2.3-0.9-3.5c-0.1-0.3-0.6-0.2-0.5,0.1c0.7,2.1,1.2,5.5,1.2,6.9c0.1,1.4,0.1,5.9-1.3,5.9c-0.9-0.1-1.8-0.1-2.6-0.1L45.7,4.5c0-0.3-0.5-0.3-0.5,0l-0.3,15.3c-0.8,0-1.7,0.1-2.6,0.1C41,20,41,15.5,41.1,14.1c0.1-1.4,0.5-4.8,1.2-6.9c0.1-0.3-0.4-0.4-0.5-0.1c-0.4,1.1-0.7,2.3-0.9,3.5c-0.5,2.2-0.7,4.1-0.6,6.8c0.1,1.2,0.4,2.3,0.7,2.9c-0.6,0.1-1.3,0.2-1.9,0.3c0,0-0.1,0-0.2,0c-0.2,0-0.3-0.2-0.5-0.4C37.6,18.9,37.4,16.7,37.7,14zM36.7,26.5c-0.1-0.2-0.3-0.3-0.5-0.2c-0.7,0.1-0.9,0.1-1.4-1.7c-0.4-1.4,0-2.1,1.7-2.6c1.8-0.6,6.2-1.1,9-1.1s7.2,0.5,9,1.1c1.7,0.5,2.1,1.2,1.7,2.6c-0.5,1.8-0.7,1.8-1.4,1.7c-0.2,0-0.4,0.1-0.5,0.2c-4.8,8-7.2,17.1-6.8,25.6c0,4.2,0.1,9.1,0.1,14.1c-1-0.5-3.5-2.1-3.9-2.3c0-4.2,0-8.2,0.1-11.8C43.9,43.5,41.5,34.4,36.7,26.5z M42.5,52C42.5,52,42.5,52,42.5,52c0,1.8,0,3.6,0,5.6c-0.3-1.2-0.7-2.4-1.2-3.6c-2.4-6.2-2.9-11.1-1.4-13.7c0.3-0.5,0.6-0.9,1-1.3C42.2,43.3,42.7,47.7,42.5,52z M35.8,55.9c-3.1-8.1-3.4-14.3-1-18.5c1.1-1.9,2.6-3.3,4.1-4.2c0.6,1.5,1.2,3.1,1.7,4.6C40,38.3,39.5,39,39,39.7c-1.7,2.9-1.2,8,1.3,14.6c1.2,3.2,1.9,6.2,2.1,9c-1.7-0.9-3.4-1.7-5.2-2.2C37,59.4,36.5,57.7,35.8,55.9z M25.5,64.2c1.5-1.5,3.5-2.5,5.7-2.8c4.5-0.6,8.9,1.5,12.9,3.9c3.8,2.3,6.7,3.7,9.8,4.9c4.2,1.5,13.2,2.6,11.5-8.9c-0.1-1,0.4-2.4,2.1-2.6c1.5-0.2,2.6,0.9,2.7,2c0.8,5.7-0.6,9.9-4.3,12.7c-2.2,1.7-4.4,2.5-7.1,2.5h0c-1.9,0-4-0.4-6.5-1.2c-3.9-1.3-7.5-3.3-10.8-5.3c-4.4-2.6-7.3-3.6-9.7-3.3c-4,0.5-4.9,4.2-3.1,6c0.8,0.8,2,1,3.5,0.9c1.6-0.1,2.9-1,3.9-2.6c0.4-0.6,0.7-1.4,1-2.2c1.2,0.5,4.1,2.2,4.3,2.3c-0.6,1.7-2.6,6.2-8.6,7c-0.3,0-4.3,0.6-7.4-2.1c-1.5-1.3-2.4-3.1-2.5-5C23,68.1,23.9,65.9,25.5,64.2z M56.3,90.6c2.1-1.1,3.5-3.1,3.8-5.3c3.8,2.8,4,7.8-0.2,10.6C59.7,94,58.7,91.9,56.3,90.6z M61.4,98.4c-0.7,0.1-1.4,0.1-2.1,0.3c0.3-0.6,0.4-1.1,0.5-1.6C60.3,97.4,60.9,97.9,61.4,98.4z M54.5,88.9c0.9,2,0.4,4.1-0.1,5.5c-1.1,2.7-3.7,5.3-6.4,6.6c0.3-5.5,0.5-15.9,0.6-26.8c2,0.9,4.9,2,7.3,2.4C53,80.8,52.2,84,54.5,88.9z M55.9,90c-0.1-0.5-0.3-1-0.5-1.5c-1.8-3.9-1.6-6.5,0.2-9.7C59.3,80.8,60.8,86.9,55.9,90z M55.3,94.8c0.5-1.2,0.7-2.3,0.7-3.5c3.1,2.2,3.3,5.4,2.4,7.5c-1.7,0.3-4,0.9-6.3,1.9c-1.5,0.7-3,1.2-4.3,1.4c0,0,0,0,0,0C51.1,100.8,54,97.9,55.3,94.8z M60,84.1c-0.2-2.3-1.6-4.7-4.1-5.8c0.3-0.5,0.6-0.9,0.9-1.4c1.1,0.1,3.3,0.3,5.6-0.4c0.6,1.3,0.7,2.7,0.3,4C62.3,82.3,60.9,83.5,60,84.1z M31.1,95.9c-4.2-2.9-4-7.8-0.2-10.6c0.2,2.2,1.7,4.2,3.8,5.3C32.3,91.9,31.2,94,31.1,95.9z M31.6,98.6c-0.7-0.1-1.4-0.2-2.1-0.3c0.5-0.5,1.1-1,1.6-1.4C31.2,97.5,31.4,98.1,31.6,98.6z M35.5,88.5c-0.2,0.5-0.4,1-0.5,1.5c-4.9-3-3.4-9.2,0.3-11.2C37.1,82,37.3,84.6,35.5,88.5z M35.9,77.8c4.3-1.6,5.9-5.2,6.5-6.8c0,0,0,0,0,0c0,11.9,0.2,23.8,0.6,29.9c-2.8-1.3-5.3-3.9-6.4-6.6c-0.6-1.4-1.1-3.5-0.1-5.5C38.5,84.4,38.1,81.4,35.9,77.8z M30.9,84.1c-0.9-0.6-2.2-1.8-2.7-3.7c-0.2-0.8-0.3-1.6-0.1-2.5c3.2,1.1,6,0.4,6.9,0.2c0,0,0,0.1,0.1,0.1C33.8,78.8,31.2,80.5,30.9,84.1z M34.9,91.3c0,1.1,0.2,2.3,0.7,3.5c1.3,3.1,4.2,6,7.5,7.3c0,0,0,0,0,0c-1.3-0.2-2.8-0.7-4.3-1.4c-2.3-1-4.6-1.6-6.3-1.9C31.7,96.8,31.7,93.6,34.9,91.3z M36.3,67.8c-0.2,0.8-0.5,1.5-0.9,2.1c-0.9,1.3-1.9,2-3.1,2.1c-1.2,0.1-2.1-0.1-2.8-0.7c-1.1-0.9-0.8-3.8,2.5-4.3C33.2,66.9,34.6,67.1,36.3,67.8z M5.9,26.7c5.1,2.5,5.6,8.7,5.6,8.7c2.2,15.7,6.8,23.2,13.1,28.2c-0.9,1-1.6,2.1-2.1,3.4C-0.2,51.7,2.2,30.1,5.9,26.7z M1.3,46.8c1.3,0,2.8,0.3,3.5,0.7c2.5,6.3,7.4,13.9,17.5,20.6c-0.2,1.1-0.4,2.9,0.3,4.9C11.4,69.2-1.1,56.7,1.3,46.8z M2.5,61.5c0.9-0.1,2.2,0.1,3,0.5c4.6,5.6,11.4,10.2,17.8,12.1c0.9,1.5,2.2,2.6,3.9,3.4c-0.2,0.6-0.2,1.2-0.2,1.7c-7.5-1.2-13.7-3.3-17.9-6.1C4.3,70.1,2,66.2,2.5,61.5z M5.2,72.7c0.5-0.1,1.1,0.1,1.9,0.4c0.4,0.3,0.9,0.6,1.4,1c4.4,2.9,10.8,5,18.6,6.3c0.2,0.9,0.9,3,3.5,4.4C25.6,84.2,6.8,83.2,5.2,72.7z M7.4,79.9c0.4-0.1,0.8-0.1,1.4,0.1c5.6,4.1,14.9,5.1,20.6,5.7c-1.3,1-2.3,2.5-2.5,4.2C14.3,88.6,7.9,85.3,7.4,79.9z M9.9,87c0.5-0.1,1.1-0.1,1.7,0c3.4,1.9,8.5,3.1,15.2,3.8c0.1,1.9,1.1,3.4,2.4,4.5c0,0,0,0,0,0C21.6,94.7,11,93.8,9.9,87z M12.5,94c0.9-0.3,2-0.2,2.6-0.2c3.4,1.4,8.5,2.2,15.8,2.6c-1.2,0.5-1.9,1.2-2.4,1.9c-3.4-0.2-6.4,0.1-9,0.8C15.7,98.8,13,95.8,12.5,94zM26.8,103.8c-5.2,0.7-7.5,0-11.6-1.7c4.2-2.9,10.4-3.7,18-2.2c1.8,0.4,3.6,1,5.2,1.7c1.7,0.7,3.3,1.3,4.8,1.5c0.1,0.5,0.2,1.2,0.2,1.2C39,103.1,33.7,102.9,26.8,103.8z M46.6,104c-0.1,0.8-0.3,0.8-1.1,0.8c-0.8,0-1,0-1.1-0.8c-0.6-3.7-0.8-18-0.9-32.4c1.3,0.7,2.6,1.4,3.9,2.1C47.4,87.4,47.1,100.5,46.6,104z M75.6,102.1c-4,1.7-6.4,2.3-11.6,1.7c-6.8-0.9-12.1-0.7-16.5,0.5c0-0.1,0.1-0.7,0.2-1.2c1.5-0.2,3.1-0.8,4.8-1.5c1.7-0.7,3.4-1.4,5.2-1.7C65.3,98.5,71.5,99.3,75.6,102.1z M78.5,94c-0.6,1.8-3.2,4.8-6.9,5.1c-2.6-0.8-5.6-1-9-0.8c-0.5-0.6-1.3-1.3-2.4-1.9c7.3-0.4,12.4-1.2,15.8-2.6C76.4,93.8,77.6,93.7,78.5,94z M81,87c-1.1,6.8-11.7,7.7-19.4,8.3c0,0,0,0,0,0c1.3-1,2.3-2.5,2.4-4.5c6.8-0.7,11.8-2,15.2-3.8C79.9,86.9,80.5,86.9,81,87z M83.5,79.9c-0.5,5.4-6.9,8.7-19.5,10c-0.2-1.8-1.2-3.2-2.5-4.2c8.7-0.8,16-2.3,20.6-5.7C82.7,79.8,83.1,79.8,83.5,79.9z M85.7,72.7C84.2,83,66.1,84.2,60.3,84.7c3.1-1.7,3.5-4.2,3.5-4.4c7.8-1.3,14.2-3.4,18.6-6.3c0.5-0.3,0.9-0.6,1.4-1C84.6,72.8,85.2,72.6,85.7,72.7z M64,79.3c0-0.9-0.1-2-0.8-3.2c1-0.4,2-0.9,2.9-1.6c6.7-1.5,14.3-6.4,19.3-12.5c0.8-0.4,2-0.6,3-0.5C89.5,72.8,74.7,77.5,64,79.3z M51,26.5c0.2,0,0.5,0,0.7-0.1c0.7-0.3,1-1.1,1.1-2.1c0-0.3,0-0.6,0-0.8c0-0.3-0.5-0.4-0.5,0c0,0.3,0,0.6-0.2,1.1c-0.3,0.8-0.6,0.9-0.7,1c-0.1,0-0.2,0-0.2,0C50.4,25.4,50.3,26.4,51,26.5z M45.5,25.2c0.1,0.1,0.2,0.2,0.4,0.4c0.5,0.3,1.2,0.3,1.2,0.3c0.5,0,0.6-0.7,0-0.8c0,0-0.6,0-0.9-0.1c-0.6-0.3-0.5-1.7-0.6-2.6c0-0.3-0.5-0.3-0.5,0c-0.1,2,0,2.6-1,2.7c-0.5,0-1.1,0-1.3,0c-0.7,0.1-0.6,1.1,0.1,1c0.4,0,0.8-0.1,1.3-0.2C44.9,25.8,45.3,25.5,45.5,25.2z M39,23.2c0-0.3-0.5-0.3-0.5,0c0,0.3,0,0.5,0.1,0.8c0.4,1.4,0.3,1.5,0.2,1.6c-0.1,0-0.2,0.1-0.3,0.1c-0.5,0.5,0.2,1.3,0.8,0.8c0.5-0.4,0.6-0.9,0.5-1.2C39.7,24.8,39,23.8,39,23.2z"/><g fill="#231815"><path d="M111.4,56.8V31.1h-9.1v-3.5h22.3v3.5h-9.1v25.7H111.4z"/><path d="M145.9,43.9v3.3c0,6.4-4.3,10-10,10c-5.9,0-10.1-3.6-10.1-10v-3.3c0-6.1,4.2-10,10.1-10C141.6,33.9,145.9,37.5,145.9,43.9z M129.8,44.2v2.7c0,4.2,2.2,7,6.1,7c3.8,0,6-2.8,6-7v-2.7c0-4.1-2.3-7-6-7C132.1,37.2,129.8,40.1,129.8,44.2z"/><path d="M157.1,56.8h-4V26h4v18.4h0.2l9.4-10.1h4.6l-9.1,9.8l9.7,12.8h-4.8l-7.9-10.4l-2.1,2.1V56.8z"/><path d="M187.6,56.8l-0.5,1.2c-1.9,4.8-4.2,6.7-8.2,6.7c-0.7,0-1.7-0.1-2.3-0.2v-3.2c0.4,0.1,1.2,0.1,1.7,0.1c2.6,0,4-1,4.7-3.6l0.2-0.8l-8.5-22.8h4.4l6.1,18.7h0.2l6.2-18.7h4.2C195.4,35.6,187.6,56.8,187.6,56.8z"/><path d="M220.1,43.9v3.3c0,6.4-4.3,10-10,10c-5.9,0-10.1-3.6-10.1-10v-3.3c0-6.1,4.2-10,10.1-10C215.8,33.9,220.1,37.5,220.1,43.9z M204,44.2v2.7c0,4.2,2.2,7,6.1,7c3.8,0,6-2.8,6-7v-2.7c0-4.1-2.3-7-6-7C206.4,37.2,204,40.1,204,44.2z"/><path d="M255.9,46.6v-19h4.1v19.2c0,6.4-4.6,10.7-11.5,10.7c-6.9,0-11.5-4.3-11.5-10.7V27.5h4.1v19c0,4.5,2.9,7.3,7.5,7.3C253,53.8,255.9,51.1,255.9,46.6z"/><path d="M267.8,34.2h4v4.1h0.2c0.6-1.8,2.2-4.5,7.1-4.5c4.7,0,7.9,2.5,7.9,7.5v15.4h-4V42.7c0-3.5-1.9-5.3-5-5.3c-4.1,0-6.1,3-6.1,6.9v12.6h-4V34.2z"/><path d="M297.2,25.4c1.7,0,2.9,1.1,2.9,2.7c0,1.5-1.2,2.7-2.9,2.7c-1.6,0-2.8-1.1-2.8-2.7C294.4,26.5,295.6,25.4,297.2,25.4z M295.2,34.2h4v22.6h-4V34.2z"/><path d="M305.5,34.2h4.4l5.7,18.5h0.2l6.2-18.5h4.3l-8.4,22.6h-4.1L305.5,34.2z"/><path d="M329.9,47.2v-3.4c0-6.2,4.1-10,9.6-10c5.6,0,9.7,3.9,9.7,10v2.7h-15.3v1.1c0,3.5,2.1,6.2,5.9,6.2c2.7,0,4.6-1.3,5-2.7h4.1c-0.4,2.4-3.2,6-9,6C333.6,57.2,329.9,53.3,329.9,47.2z M345.2,43.7v-0.4c0-3.7-2.3-6.2-5.7-6.2c-3.4,0-5.7,2.4-5.7,6.2v0.4H345.2z"/><path d="M356.2,34.2h4v3.5h0.2c0.6-1.5,2.3-3.8,6.4-3.8c0.5,0,1,0,1.5,0.1v3.6c-0.4-0.1-1.2-0.1-1.9-0.1c-4.1,0-6.1,2.4-6.1,5.4v13.9h-4V34.2z"/><path d="M381.1,33.9c5,0,8.3,2.5,8.3,6.4h-3.7c-0.1-1.6-1.6-3.3-4.8-3.3c-2.7,0-4.7,1.2-4.7,3.4c0,2.7,3.1,3,5.8,3.5c4.4,0.8,8,1.9,8,6.3c0,4.5-3.7,7.1-9.3,7.1c-5.2,0-8.7-2.3-8.7-6.3h3.9c0.3,2,1.7,3.2,5,3.2c3.7,0,5.2-1.6,5.2-3.5c0-2.5-2.6-3-5.8-3.6c-4.3-0.9-7.8-1.8-7.8-6.3C372.4,35.9,376.5,33.9,381.1,33.9z"/><path d="M399.5,25.4c1.7,0,2.9,1.1,2.9,2.7c0,1.5-1.2,2.7-2.9,2.7c-1.6,0-2.8-1.1-2.8-2.7C396.7,26.5,397.9,25.4,399.5,25.4z M397.5,34.2h4v22.6h-4V34.2z"/><path d="M412.2,28.6h4v5.7h5.3v3.2h-5.3v12.9c0,2.6,0.9,3.3,3.8,3.3c0.6,0,1.5,0,1.8-0.1v3.2c-0.3,0.1-2,0.2-2.9,0.2c-5.5,0-6.7-2.1-6.7-6.5v-13h-3.6v-3.2h3.6V28.6z"/><path d="M438.8,56.8l-0.5,1.2c-1.9,4.8-4.2,6.7-8.2,6.7c-0.7,0-1.7-0.1-2.3-0.2v-3.2c0.4,0.1,1.2,0.1,1.7,0.1c2.6,0,4-1,4.7-3.6l0.2-0.8l-8.5-22.8h4.4l6.1,18.7h0.2l6.2-18.7h4.2C446.6,35.6,438.8,56.8,438.8,56.8z"/><path d="M481.8,43.9v3.3c0,6.4-4.3,10-10,10c-5.9,0-10.1-3.6-10.1-10v-3.3c0-6.1,4.2-10,10.1-10C477.5,33.9,481.8,37.5,481.8,43.9z M465.7,44.2v2.7c0,4.2,2.2,7,6.1,7c3.8,0,6-2.8,6-7v-2.7c0-4.1-2.3-7-6-7C468,37.2,465.7,40.1,465.7,44.2z"/><path d="M490,37.5h-3.9v-3.2h3.9V32c0-4.3,2.1-6.3,7.3-6.3c1,0,2.2,0.1,2.7,0.1V29c-0.4,0-1.5-0.1-2.1-0.1c-2.7,0-3.9,0.8-3.9,3.4v2h5.4v3.2h-5.4v19.3h-4V37.5z"/></g><g fill="#231815"><path d="M111.4,97.6V68.3h18v3.5h-13.9v9.7h12.7v3.5h-12.7v12.5H111.4z"/><path d="M153.6,84.7V88c0,6.4-4.3,10-10,10c-5.9,0-10.1-3.6-10.1-10v-3.3c0-6.1,4.2-10,10.1-10C149.4,74.7,153.6,78.3,153.6,84.7z M137.5,85v2.7c0,4.2,2.2,7,6.1,7c3.8,0,6-2.8,6-7V85c0-4.1-2.3-7-6-7C139.9,78,137.5,80.9,137.5,85z"/><path d="M160.3,75h4v3.5h0.2c0.6-1.5,2.3-3.8,6.4-3.8c0.5,0,1,0,1.5,0.1v3.6c-0.4-0.1-1.2-0.1-1.9-0.1c-4.1,0-6.1,2.4-6.1,5.4v13.9h-4V75z"/><path d="M176.9,88v-3.4c0-6.2,4.1-10,9.6-10c5.6,0,9.7,3.9,9.7,10v2.7h-15.3v1.1c0,3.5,2.1,6.2,5.9,6.2c2.7,0,4.6-1.3,5-2.7h4.1c-0.4,2.4-3.2,6-9,6C180.6,98,176.9,94.1,176.9,88z M192.2,84.5v-0.4c0-3.7-2.3-6.2-5.7-6.2c-3.4,0-5.7,2.4-5.7,6.2v0.4H192.2z"/><path d="M205.8,66.2c1.7,0,2.9,1.1,2.9,2.7c0,1.5-1.2,2.7-2.9,2.7c-1.6,0-2.8-1.1-2.8-2.7C203,67.3,204.2,66.2,205.8,66.2z M203.8,75h4v22.6h-4V75z"/><path d="M231.7,96.9v-3.3h-0.2c-0.9,2-3.3,3.5-6.5,3.5c-5.2,0-9.2-3.5-9.2-9.5v-3.5c0-6,4-9.5,9.2-9.5c3.5,0,6,1.9,6.7,3.7h0.2V75h3.8v21.9c0,6.2-4.3,8.9-10.2,8.9s-8.9-2.9-9.2-6.2h4.1c0.3,1.6,2.2,2.9,5.2,2.9C229.7,102.6,231.7,100.5,231.7,96.9z M219.8,85v2.1c0,4.1,2.6,6.8,6.2,6.8c3.7,0,5.7-3,5.7-6.2v-3.4c0-3.3-2.1-6.3-5.8-6.3C222.1,78.1,219.8,80.8,219.8,85z"/><path d="M243.5,75h4v4.1h0.2c0.6-1.8,2.2-4.5,7.1-4.5c4.7,0,7.9,2.5,7.9,7.5v15.4h-4V83.5c0-3.5-1.9-5.3-5-5.3c-4.1,0-6.1,3-6.1,6.9v12.6h-4V75z"/><path d="M282.8,90.2c0.6,2.8,3.3,4.5,7.2,4.5c4.2,0,6.8-2,6.8-5c0-2.3-1.5-3.7-4.9-4.5l-5.2-1.3c-4.5-1.1-7.1-3.8-7.1-7.7c0-5,4.4-8.5,10.5-8.5c6,0,10,3.2,10.5,7.7h-4.1c-0.6-2.6-2.9-4.2-6.5-4.2c-3.8,0-6.3,2-6.3,4.8c0,2.1,1.5,3.5,4.2,4.1l5.2,1.3c5.3,1.3,7.9,3.7,7.9,8c0,5.3-4.4,8.8-11.3,8.8c-6.4,0-10.5-3.3-10.9-8H282.8z"/><path d="M309.6,69.4h4v5.7h5.3v3.2h-5.3v12.9c0,2.6,0.9,3.3,3.8,3.3c0.6,0,1.5,0,1.8-0.1v3.2c-0.3,0.1-2,0.2-2.9,0.2c-5.5,0-6.7-2.1-6.7-6.5v-13h-3.6v-3.2h3.6V69.4z"/><path d="M343.8,97.6h-4v-3.8h-0.2c-0.7,1.8-2.9,4.1-6.9,4.1c-4.7,0-8-2-8-7.3V75h4v14.6c0,3.7,2.3,4.9,5.1,4.9c3.4,0,6-2.4,6-5.3V75h4V97.6z"/><path d="M366.3,78.4h0.2V66.8h4v30.8h-3.8V94h-0.2c-0.7,2.3-3.6,3.9-7,3.9c-5.4,0-8.9-3.7-8.9-9.4v-4.3c0-5.8,3.6-9.5,9-9.5C362.9,74.7,365.4,76.1,366.3,78.4z M354.6,84.9v2.7c0,4.4,2.2,6.9,5.9,6.9c3.6,0,6-2.5,6-6.5v-3.9c0-3.6-2.6-6.1-6.1-6.1C356.8,78.1,354.6,80.6,354.6,84.9z"/><path d="M381.9,66.2c1.7,0,2.9,1.1,2.9,2.7c0,1.5-1.2,2.7-2.9,2.7c-1.6,0-2.8-1.1-2.8-2.7C379.1,67.3,380.3,66.2,381.9,66.2z M379.9,75h4v22.6h-4V75z"/><path d="M391.7,88v-3.4c0-6.2,4.1-10,9.6-10c5.6,0,9.7,3.9,9.7,10v2.7h-15.3v1.1c0,3.5,2.1,6.2,5.9,6.2c2.7,0,4.6-1.3,5-2.7h4.1c-0.4,2.4-3.2,6-9,6C395.4,98,391.7,94.1,391.7,88z M407,84.5v-0.4c0-3.7-2.3-6.2-5.7-6.2c-3.4,0-5.7,2.4-5.7,6.2v0.4H407z"/><path d="M425.1,74.7c5,0,8.3,2.5,8.3,6.4h-3.7c-0.1-1.6-1.6-3.3-4.8-3.3c-2.7,0-4.7,1.2-4.7,3.4c0,2.7,3.1,3,5.8,3.5c4.4,0.8,8,1.9,8,6.3c0,4.5-3.7,7.1-9.3,7.1c-5.2,0-8.7-2.3-8.7-6.3h3.9c0.3,2,1.7,3.2,5,3.2c3.7,0,5.2-1.6,5.2-3.5c0-2.5-2.6-3-5.8-3.6c-4.3-0.9-7.8-1.8-7.8-6.3C416.5,76.7,420.6,74.7,425.1,74.7z"/></g></svg>